G04 #@! TF.GenerationSoftware,KiCad,Pcbnew,7.0.10*
G04 #@! TF.CreationDate,2024-01-15T15:50:15+01:00*
G04 #@! TF.ProjectId,mico,6d69636f-2e6b-4696-9361-645f70636258,rev?*
G04 #@! TF.SameCoordinates,Original*
G04 #@! TF.FileFunction,Copper,L1,Top*
G04 #@! TF.FilePolarity,Positive*
%FSLAX46Y46*%
G04 Gerber Fmt 4.6, Leading zero omitted, Abs format (unit mm)*
G04 Created by KiCad (PCBNEW 7.0.10) date 2024-01-15 15:50:15*
%MOMM*%
%LPD*%
G01*
G04 APERTURE LIST*
G04 Aperture macros list*
%AMRoundRect*
0 Rectangle with rounded corners*
0 $1 Rounding radius*
0 $2 $3 $4 $5 $6 $7 $8 $9 X,Y pos of 4 corners*
0 Add a 4 corners polygon primitive as box body*
4,1,4,$2,$3,$4,$5,$6,$7,$8,$9,$2,$3,0*
0 Add four circle primitives for the rounded corners*
1,1,$1+$1,$2,$3*
1,1,$1+$1,$4,$5*
1,1,$1+$1,$6,$7*
1,1,$1+$1,$8,$9*
0 Add four rect primitives between the rounded corners*
20,1,$1+$1,$2,$3,$4,$5,0*
20,1,$1+$1,$4,$5,$6,$7,0*
20,1,$1+$1,$6,$7,$8,$9,0*
20,1,$1+$1,$8,$9,$2,$3,0*%
G04 Aperture macros list end*
G04 #@! TA.AperFunction,SMDPad,CuDef*
%ADD10R,1.500000X0.900000*%
G04 #@! TD*
G04 #@! TA.AperFunction,SMDPad,CuDef*
%ADD11RoundRect,0.140000X0.140000X0.170000X-0.140000X0.170000X-0.140000X-0.170000X0.140000X-0.170000X0*%
G04 #@! TD*
G04 #@! TA.AperFunction,ComponentPad*
%ADD12C,6.400000*%
G04 #@! TD*
G04 #@! TA.AperFunction,ComponentPad*
%ADD13C,0.650000*%
G04 #@! TD*
G04 #@! TA.AperFunction,ComponentPad*
%ADD14C,0.600000*%
G04 #@! TD*
G04 #@! TA.AperFunction,ComponentPad*
%ADD15O,1.350000X0.750000*%
G04 #@! TD*
G04 #@! TA.AperFunction,SMDPad,CuDef*
%ADD16O,1.000000X1.000000*%
G04 #@! TD*
G04 #@! TA.AperFunction,SMDPad,CuDef*
%ADD17R,1.000000X1.000000*%
G04 #@! TD*
G04 #@! TA.AperFunction,SMDPad,CuDef*
%ADD18C,1.000000*%
G04 #@! TD*
G04 #@! TA.AperFunction,ViaPad*
%ADD19C,0.600000*%
G04 #@! TD*
G04 #@! TA.AperFunction,Conductor*
%ADD20C,0.400000*%
G04 #@! TD*
G04 #@! TA.AperFunction,Conductor*
%ADD21C,0.200000*%
G04 #@! TD*
G04 #@! TA.AperFunction,Conductor*
%ADD22C,0.160000*%
G04 #@! TD*
G04 APERTURE END LIST*
D10*
X128000000Y-110350000D03*
X128000000Y-113650000D03*
X132900000Y-113650000D03*
X132900000Y-110350000D03*
D11*
X127710000Y-108750000D03*
X126750000Y-108750000D03*
D12*
X136000000Y-123750000D03*
X136000000Y-100250000D03*
D13*
X143810000Y-108400000D03*
D14*
X144460000Y-109200000D03*
X144460000Y-110800000D03*
X144460000Y-111600000D03*
X144460000Y-112400000D03*
X144460000Y-113200000D03*
X145170000Y-112800000D03*
X144460000Y-114800000D03*
D15*
X145060000Y-107870000D03*
X149450000Y-107510000D03*
X149450000Y-116490000D03*
X145060000Y-116130000D03*
D16*
X124390000Y-105200000D03*
X125660000Y-105200000D03*
X126930000Y-105200000D03*
D17*
X128200000Y-105200000D03*
D18*
X130000000Y-105200000D03*
D16*
X131670000Y-119000000D03*
D18*
X130400000Y-119000000D03*
D19*
X126750000Y-113750000D03*
X137000000Y-114500000D03*
X132500000Y-112000000D03*
X141300000Y-111200000D03*
X141400000Y-114800000D03*
X139000000Y-111000000D03*
X131400000Y-111000000D03*
X131400000Y-109000000D03*
X129400000Y-109000000D03*
X130400000Y-110000000D03*
X125650000Y-119000000D03*
X130150000Y-117500000D03*
X123400000Y-106000000D03*
X134900000Y-105250000D03*
X122150000Y-108500000D03*
X123920000Y-109480000D03*
X127000000Y-106650000D03*
X138025000Y-110125000D03*
X121650000Y-110750000D03*
X121500000Y-115800000D03*
X129400000Y-111000000D03*
X137000000Y-104600000D03*
X134250000Y-117600000D03*
X139800000Y-107000000D03*
X135900000Y-109750000D03*
X124650000Y-111000000D03*
X131907866Y-115580000D03*
X137400000Y-116600000D03*
X136400000Y-106000000D03*
X124400000Y-108000000D03*
X125579045Y-109421610D03*
X135623025Y-110626975D03*
X135500000Y-107250000D03*
X124390000Y-105200000D03*
X125660000Y-105200000D03*
X120650000Y-110500000D03*
X121900000Y-114600000D03*
X133000000Y-119200000D03*
X129150000Y-104500000D03*
X132200000Y-114600000D03*
X124400000Y-113000000D03*
X131000000Y-114400000D03*
X124600000Y-112000000D03*
D20*
X127000000Y-106650000D02*
X128200000Y-105450000D01*
X128200000Y-105450000D02*
X128200000Y-105200000D01*
D21*
X124750000Y-107250000D02*
X124400000Y-107600000D01*
X124400000Y-107600000D02*
X124400000Y-108000000D01*
X135500000Y-107250000D02*
X124750000Y-107250000D01*
X135300000Y-110303950D02*
X135623025Y-110626975D01*
X135300000Y-107450000D02*
X135300000Y-110303950D01*
X135500000Y-107250000D02*
X135300000Y-107450000D01*
X125579045Y-109421610D02*
X124821610Y-109421610D01*
X124821610Y-109421610D02*
X124400000Y-109000000D01*
X124400000Y-109000000D02*
X124400000Y-108000000D01*
D22*
X124400000Y-113000000D02*
X124400000Y-114750000D01*
X124400000Y-114750000D02*
X124650000Y-115000000D01*
X124650000Y-115000000D02*
X131250000Y-115000000D01*
X131250000Y-115000000D02*
X131650000Y-114600000D01*
X131650000Y-114600000D02*
X132200000Y-114600000D01*
D20*
X131907866Y-115580000D02*
X131867196Y-115539330D01*
X123400000Y-115000000D02*
X123400000Y-111500000D01*
X132200000Y-116600000D02*
X137400000Y-116600000D01*
X131907866Y-116307866D02*
X132200000Y-116600000D01*
X131907866Y-115580000D02*
X131907866Y-116307866D01*
X131867196Y-115539330D02*
X123939330Y-115539330D01*
X123939330Y-115539330D02*
X123400000Y-115000000D01*
X123400000Y-111500000D02*
X123900000Y-111000000D01*
X134250000Y-117600000D02*
X134050000Y-117400000D01*
X134050000Y-117400000D02*
X130250000Y-117400000D01*
X130250000Y-117400000D02*
X130150000Y-117500000D01*
X123920000Y-109480000D02*
X123920000Y-109820000D01*
X128000000Y-110350000D02*
X128000000Y-108980000D01*
X128000000Y-108980000D02*
X127750000Y-108730000D01*
X127650000Y-110350000D02*
X128000000Y-110350000D01*
X137246000Y-114254000D02*
X137000000Y-114500000D01*
X128000000Y-110350000D02*
X128000000Y-110750000D01*
X128000000Y-110750000D02*
X130000000Y-112750000D01*
X137000000Y-112750000D02*
X137246000Y-112996000D01*
X130000000Y-112750000D02*
X137000000Y-112750000D01*
X137246000Y-112996000D02*
X137246000Y-114254000D01*
X135900000Y-109750000D02*
X137800000Y-111650000D01*
X137800000Y-111650000D02*
X137800000Y-116200000D01*
X137800000Y-116200000D02*
X137400000Y-116600000D01*
D21*
X132500000Y-112000000D02*
X132500000Y-111550000D01*
X132500000Y-111550000D02*
X133700000Y-110350000D01*
X141400000Y-111300000D02*
X141300000Y-111200000D01*
X141400000Y-114800000D02*
X141400000Y-111300000D01*
D20*
X144460000Y-110800000D02*
X144884264Y-110800000D01*
X146800000Y-113600000D02*
X146200000Y-114200000D01*
X144884264Y-110800000D02*
X146800000Y-112715736D01*
X146800000Y-112715736D02*
X146800000Y-113600000D01*
X146200000Y-114200000D02*
X145460000Y-114200000D01*
X145460000Y-114200000D02*
X144460000Y-113200000D01*
X140200000Y-111000000D02*
X140400000Y-110800000D01*
X139000000Y-111000000D02*
X140200000Y-111000000D01*
X130150000Y-118750000D02*
X130400000Y-119000000D01*
X130150000Y-117500000D02*
X130150000Y-118750000D01*
X130400000Y-119000000D02*
X125650000Y-119000000D01*
X134900000Y-105250000D02*
X134900000Y-105000000D01*
X134900000Y-105000000D02*
X135150000Y-104750000D01*
X128200000Y-105200000D02*
X128200000Y-105550000D01*
X121900000Y-110750000D02*
X122150000Y-110500000D01*
X121650000Y-110750000D02*
X121900000Y-110750000D01*
X122150000Y-108500000D02*
X122150000Y-110500000D01*
X122150000Y-107250000D02*
X123400000Y-106000000D01*
X122150000Y-108500000D02*
X122150000Y-107250000D01*
X121500000Y-115800000D02*
X122500000Y-115800000D01*
X122500000Y-115800000D02*
X122700000Y-115600000D01*
X122700000Y-111800000D02*
X121650000Y-110750000D01*
X122700000Y-115600000D02*
X122700000Y-111800000D01*
X135300000Y-104600000D02*
X135150000Y-104750000D01*
X137000000Y-104600000D02*
X135300000Y-104600000D01*
X138025000Y-110125000D02*
X139675000Y-110125000D01*
X139675000Y-110125000D02*
X139800000Y-110000000D01*
X139800000Y-107800000D02*
X139800000Y-107000000D01*
X139800000Y-110000000D02*
X139800000Y-107800000D01*
X124650000Y-111000000D02*
X123900000Y-111000000D01*
X126930000Y-105720000D02*
X126150000Y-106500000D01*
X126150000Y-106500000D02*
X124400000Y-106500000D01*
X124400000Y-106500000D02*
X123150000Y-107750000D01*
X123150000Y-110250000D02*
X123900000Y-111000000D01*
X123150000Y-107750000D02*
X123150000Y-110250000D01*
X126930000Y-105200000D02*
X126930000Y-105720000D01*
X136400000Y-109250000D02*
X135900000Y-109750000D01*
X136400000Y-106000000D02*
X136400000Y-109250000D01*
D22*
X120650000Y-110500000D02*
X120650000Y-114050000D01*
X121200000Y-114600000D02*
X120700000Y-114100000D01*
X121900000Y-114600000D02*
X121200000Y-114600000D01*
X120700000Y-114100000D02*
X121150000Y-114550000D01*
X120650000Y-114050000D02*
X120700000Y-114100000D01*
D21*
X131870000Y-119200000D02*
X131670000Y-119000000D01*
X133000000Y-119200000D02*
X131870000Y-119200000D01*
D22*
X130000000Y-105200000D02*
X130000000Y-104850000D01*
X129650000Y-104500000D02*
X129150000Y-104500000D01*
X130000000Y-104850000D02*
X129650000Y-104500000D01*
X131000000Y-114400000D02*
X127200000Y-114400000D01*
X124800000Y-112000000D02*
X124600000Y-112000000D01*
X125100000Y-112300000D02*
X125100000Y-114200000D01*
X125100000Y-112300000D02*
X124800000Y-112000000D01*
X125300000Y-114400000D02*
X127200000Y-114400000D01*
X125100000Y-114200000D02*
X125300000Y-114400000D01*
G04 #@! TA.AperFunction,Conductor*
G36*
X136384733Y-96294400D02*
G01*
X136394373Y-96295350D01*
X136770582Y-96351156D01*
X136780088Y-96353046D01*
X137149029Y-96445462D01*
X137158300Y-96448274D01*
X137516399Y-96576403D01*
X137525368Y-96580118D01*
X137869176Y-96742727D01*
X137877739Y-96747305D01*
X138203938Y-96942821D01*
X138212016Y-96948218D01*
X138517493Y-97174775D01*
X138525000Y-97180937D01*
X138806797Y-97436342D01*
X138813657Y-97443202D01*
X139069060Y-97724996D01*
X139075224Y-97732506D01*
X139301781Y-98037983D01*
X139307178Y-98046061D01*
X139502694Y-98372260D01*
X139507274Y-98380828D01*
X139669879Y-98724628D01*
X139673597Y-98733604D01*
X139801721Y-99091686D01*
X139804541Y-99100983D01*
X139896950Y-99469900D01*
X139898845Y-99479429D01*
X139954647Y-99855612D01*
X139955600Y-99865280D01*
X139974381Y-100247577D01*
X139974500Y-100252435D01*
X139974500Y-104559208D01*
X140000849Y-104674655D01*
X140000850Y-104674658D01*
X140000851Y-104674660D01*
X140013928Y-104701816D01*
X140052229Y-104781351D01*
X140118549Y-104864513D01*
X140126064Y-104873936D01*
X140126068Y-104873939D01*
X140218648Y-104947770D01*
X140269793Y-104972399D01*
X140325340Y-104999149D01*
X140440790Y-105025500D01*
X140494928Y-105025500D01*
X150625500Y-105025500D01*
X150683691Y-105044407D01*
X150719655Y-105093907D01*
X150724500Y-105124500D01*
X150724500Y-107062065D01*
X150705593Y-107120256D01*
X150656093Y-107156220D01*
X150594907Y-107156220D01*
X150545407Y-107120256D01*
X150535059Y-107102332D01*
X150518916Y-107066074D01*
X150518914Y-107066071D01*
X150409811Y-106915903D01*
X150271869Y-106791701D01*
X150111136Y-106698900D01*
X150111131Y-106698898D01*
X149934598Y-106641538D01*
X149796279Y-106627000D01*
X149704001Y-106627000D01*
X149704000Y-106627001D01*
X149704000Y-107259988D01*
X149125389Y-107259988D01*
X149052463Y-107274494D01*
X148969764Y-107329751D01*
X148914507Y-107412450D01*
X148895103Y-107510000D01*
X148914507Y-107607550D01*
X148969764Y-107690249D01*
X149052463Y-107745506D01*
X149125389Y-107760012D01*
X149704000Y-107760012D01*
X149704000Y-108392999D01*
X149704001Y-108393000D01*
X149796275Y-108393000D01*
X149796279Y-108392999D01*
X149934598Y-108378461D01*
X150111131Y-108321101D01*
X150111136Y-108321099D01*
X150271869Y-108228298D01*
X150409811Y-108104096D01*
X150518914Y-107953928D01*
X150518918Y-107953922D01*
X150535059Y-107917668D01*
X150575999Y-107872198D01*
X150635847Y-107859476D01*
X150691743Y-107884362D01*
X150722336Y-107937350D01*
X150724500Y-107957934D01*
X150724500Y-116042065D01*
X150705593Y-116100256D01*
X150656093Y-116136220D01*
X150594907Y-116136220D01*
X150545407Y-116100256D01*
X150535059Y-116082332D01*
X150518916Y-116046074D01*
X150518914Y-116046071D01*
X150409811Y-115895903D01*
X150271869Y-115771701D01*
X150111136Y-115678900D01*
X150111131Y-115678898D01*
X149934598Y-115621538D01*
X149796279Y-115607000D01*
X149704001Y-115607000D01*
X149704000Y-115607001D01*
X149704000Y-116239988D01*
X149125389Y-116239988D01*
X149052463Y-116254494D01*
X148969764Y-116309751D01*
X148914507Y-116392450D01*
X148895103Y-116490000D01*
X148914507Y-116587550D01*
X148969764Y-116670249D01*
X149052463Y-116725506D01*
X149125389Y-116740012D01*
X149704000Y-116740012D01*
X149704000Y-117372999D01*
X149704001Y-117373000D01*
X149796275Y-117373000D01*
X149796279Y-117372999D01*
X149934598Y-117358461D01*
X150111131Y-117301101D01*
X150111136Y-117301099D01*
X150271869Y-117208298D01*
X150409811Y-117084096D01*
X150518914Y-116933928D01*
X150518918Y-116933922D01*
X150535059Y-116897668D01*
X150575999Y-116852198D01*
X150635847Y-116839476D01*
X150691743Y-116864362D01*
X150722336Y-116917350D01*
X150724500Y-116937934D01*
X150724500Y-118875500D01*
X150705593Y-118933691D01*
X150656093Y-118969655D01*
X150625500Y-118974500D01*
X140508285Y-118974500D01*
X140500000Y-118974500D01*
X140440790Y-118974500D01*
X140420756Y-118979072D01*
X140325344Y-119000849D01*
X140325338Y-119000852D01*
X140218648Y-119052229D01*
X140126068Y-119126060D01*
X140126060Y-119126068D01*
X140052229Y-119218648D01*
X140000852Y-119325338D01*
X140000849Y-119325344D01*
X139974500Y-119440791D01*
X139974500Y-123747564D01*
X139974381Y-123752422D01*
X139955600Y-124134719D01*
X139954647Y-124144387D01*
X139898845Y-124520570D01*
X139896950Y-124530099D01*
X139804541Y-124899016D01*
X139801721Y-124908313D01*
X139673597Y-125266395D01*
X139669879Y-125275371D01*
X139507274Y-125619171D01*
X139502694Y-125627739D01*
X139307178Y-125953938D01*
X139301781Y-125962016D01*
X139075224Y-126267493D01*
X139069060Y-126275003D01*
X138813662Y-126556792D01*
X138806792Y-126563662D01*
X138525003Y-126819060D01*
X138517493Y-126825224D01*
X138212016Y-127051781D01*
X138203938Y-127057178D01*
X137877739Y-127252694D01*
X137869171Y-127257274D01*
X137525371Y-127419879D01*
X137516395Y-127423597D01*
X137158313Y-127551721D01*
X137149016Y-127554541D01*
X136780099Y-127646950D01*
X136770570Y-127648845D01*
X136394387Y-127704647D01*
X136384719Y-127705600D01*
X136004858Y-127724261D01*
X135995142Y-127724261D01*
X135615280Y-127705600D01*
X135605612Y-127704647D01*
X135229429Y-127648845D01*
X135219900Y-127646950D01*
X134850983Y-127554541D01*
X134841686Y-127551721D01*
X134483604Y-127423597D01*
X134474628Y-127419879D01*
X134130828Y-127257274D01*
X134122260Y-127252694D01*
X133796061Y-127057178D01*
X133787983Y-127051781D01*
X133482506Y-126825224D01*
X133474996Y-126819060D01*
X133193207Y-126563662D01*
X133186342Y-126556797D01*
X132930937Y-126275000D01*
X132924775Y-126267493D01*
X132865752Y-126187910D01*
X132698218Y-125962016D01*
X132692821Y-125953938D01*
X132497305Y-125627739D01*
X132492725Y-125619171D01*
X132486756Y-125606551D01*
X132330118Y-125275368D01*
X132326402Y-125266395D01*
X132248413Y-125048430D01*
X132198274Y-124908300D01*
X132195462Y-124899029D01*
X132103046Y-124530088D01*
X132101156Y-124520582D01*
X132045350Y-124144373D01*
X132044400Y-124134731D01*
X132025619Y-123752421D01*
X132025560Y-123750006D01*
X132286911Y-123750006D01*
X132307250Y-124138106D01*
X132307253Y-124138134D01*
X132368049Y-124521990D01*
X132368050Y-124521992D01*
X132468642Y-124897405D01*
X132468649Y-124897428D01*
X132607922Y-125260246D01*
X132784368Y-125606540D01*
X132784374Y-125606551D01*
X132996050Y-125932501D01*
X133202876Y-126187910D01*
X134699993Y-124690792D01*
X134701570Y-124693365D01*
X134865130Y-124884870D01*
X135056635Y-125048430D01*
X135059205Y-125050004D01*
X133562088Y-126547122D01*
X133817498Y-126753949D01*
X134143448Y-126965625D01*
X134143459Y-126965631D01*
X134489753Y-127142077D01*
X134852571Y-127281350D01*
X134852594Y-127281357D01*
X135228007Y-127381949D01*
X135228009Y-127381950D01*
X135611865Y-127442746D01*
X135611893Y-127442749D01*
X135999994Y-127463089D01*
X136000006Y-127463089D01*
X136388106Y-127442749D01*
X136388134Y-127442746D01*
X136771990Y-127381950D01*
X136771992Y-127381949D01*
X137147405Y-127281357D01*
X137147428Y-127281350D01*
X137510246Y-127142077D01*
X137856540Y-126965631D01*
X137856551Y-126965624D01*
X138182492Y-126753956D01*
X138182502Y-126753949D01*
X138437910Y-126547122D01*
X136940793Y-125050005D01*
X136943365Y-125048430D01*
X137134870Y-124884870D01*
X137298430Y-124693365D01*
X137300005Y-124690793D01*
X138797122Y-126187910D01*
X139003949Y-125932502D01*
X139003956Y-125932492D01*
X139215624Y-125606551D01*
X139215631Y-125606540D01*
X139392077Y-125260246D01*
X139531350Y-124897428D01*
X139531357Y-124897405D01*
X139631949Y-124521992D01*
X139631950Y-124521990D01*
X139692746Y-124138134D01*
X139692749Y-124138106D01*
X139713089Y-123750006D01*
X139713089Y-123749993D01*
X139692749Y-123361893D01*
X139692746Y-123361865D01*
X139631950Y-122978009D01*
X139631949Y-122978007D01*
X139531357Y-122602594D01*
X139531350Y-122602571D01*
X139392077Y-122239753D01*
X139215631Y-121893461D01*
X139003949Y-121567498D01*
X138797122Y-121312088D01*
X137300004Y-122809205D01*
X137298430Y-122806635D01*
X137134870Y-122615130D01*
X136943365Y-122451570D01*
X136940792Y-122449993D01*
X138437910Y-120952876D01*
X138182501Y-120746050D01*
X137856551Y-120534374D01*
X137856540Y-120534368D01*
X137510246Y-120357922D01*
X137147428Y-120218649D01*
X137147405Y-120218642D01*
X136771992Y-120118050D01*
X136771990Y-120118049D01*
X136388134Y-120057253D01*
X136388106Y-120057250D01*
X136000006Y-120036911D01*
X135999994Y-120036911D01*
X135611893Y-120057250D01*
X135611865Y-120057253D01*
X135228009Y-120118049D01*
X135228007Y-120118050D01*
X134852594Y-120218642D01*
X134852571Y-120218649D01*
X134489753Y-120357922D01*
X134143461Y-120534368D01*
X133817504Y-120746046D01*
X133562088Y-120952876D01*
X135059206Y-122449994D01*
X135056635Y-122451570D01*
X134865130Y-122615130D01*
X134701570Y-122806635D01*
X134699994Y-122809206D01*
X133202876Y-121312088D01*
X132996046Y-121567504D01*
X132784368Y-121893461D01*
X132607922Y-122239753D01*
X132468649Y-122602571D01*
X132468642Y-122602594D01*
X132368050Y-122978007D01*
X132368049Y-122978009D01*
X132307253Y-123361865D01*
X132307250Y-123361893D01*
X132286911Y-123749993D01*
X132286911Y-123750006D01*
X132025560Y-123750006D01*
X132025500Y-123747564D01*
X132025500Y-120440791D01*
X131999150Y-120325344D01*
X131999149Y-120325343D01*
X131999149Y-120325340D01*
X131969007Y-120262750D01*
X131947770Y-120218648D01*
X131873939Y-120126068D01*
X131873936Y-120126064D01*
X131863887Y-120118050D01*
X131781351Y-120052229D01*
X131701816Y-120013928D01*
X131674660Y-120000851D01*
X131674658Y-120000850D01*
X131674655Y-120000849D01*
X131583449Y-119980032D01*
X131559210Y-119974500D01*
X131559209Y-119974500D01*
X131010008Y-119974500D01*
X130951817Y-119955593D01*
X130915853Y-119906093D01*
X130913020Y-119872231D01*
X130399999Y-119359210D01*
X129885830Y-119873380D01*
X129877755Y-119921310D01*
X129834067Y-119964147D01*
X129789991Y-119974500D01*
X124037824Y-119974500D01*
X123982725Y-119957750D01*
X123598706Y-119700500D01*
X123521696Y-119648911D01*
X123516613Y-119645268D01*
X123049087Y-119287268D01*
X123044238Y-119283306D01*
X122719105Y-119000004D01*
X129387123Y-119000004D01*
X129406583Y-119197597D01*
X129406584Y-119197600D01*
X129464223Y-119387607D01*
X129464226Y-119387615D01*
X129530041Y-119510746D01*
X130040787Y-119000000D01*
X130759210Y-119000000D01*
X131004521Y-119245312D01*
X131027083Y-119280209D01*
X131045179Y-119327925D01*
X131045181Y-119327927D01*
X131045182Y-119327930D01*
X131141817Y-119467929D01*
X131269148Y-119580734D01*
X131419775Y-119659790D01*
X131584944Y-119700500D01*
X131584947Y-119700500D01*
X131755053Y-119700500D01*
X131755056Y-119700500D01*
X131920225Y-119659790D01*
X132070852Y-119580734D01*
X132133315Y-119525397D01*
X132189409Y-119500962D01*
X132198964Y-119500500D01*
X132552917Y-119500500D01*
X132611108Y-119519407D01*
X132627733Y-119534667D01*
X132668872Y-119582143D01*
X132789947Y-119659953D01*
X132896403Y-119691211D01*
X132928035Y-119700499D01*
X132928036Y-119700499D01*
X132928039Y-119700500D01*
X132928041Y-119700500D01*
X133071959Y-119700500D01*
X133071961Y-119700500D01*
X133210053Y-119659953D01*
X133331128Y-119582143D01*
X133425377Y-119473373D01*
X133485165Y-119342457D01*
X133505647Y-119200000D01*
X133495017Y-119126068D01*
X133485165Y-119057543D01*
X133459273Y-119000849D01*
X133425377Y-118926627D01*
X133331128Y-118817857D01*
X133331127Y-118817856D01*
X133331126Y-118817855D01*
X133210057Y-118740049D01*
X133210054Y-118740047D01*
X133210053Y-118740047D01*
X133210050Y-118740046D01*
X133071964Y-118699500D01*
X133071961Y-118699500D01*
X132928039Y-118699500D01*
X132928035Y-118699500D01*
X132789949Y-118740046D01*
X132789942Y-118740049D01*
X132668876Y-118817854D01*
X132668871Y-118817858D01*
X132627736Y-118865331D01*
X132575340Y-118896927D01*
X132552917Y-118899500D01*
X132449404Y-118899500D01*
X132391213Y-118880593D01*
X132356837Y-118835605D01*
X132355140Y-118831131D01*
X132355140Y-118831128D01*
X132294818Y-118672070D01*
X132198183Y-118532071D01*
X132070852Y-118419266D01*
X131920225Y-118340210D01*
X131920224Y-118340209D01*
X131920223Y-118340209D01*
X131755058Y-118299500D01*
X131755056Y-118299500D01*
X131584944Y-118299500D01*
X131584941Y-118299500D01*
X131419776Y-118340209D01*
X131269146Y-118419267D01*
X131141818Y-118532069D01*
X131141816Y-118532072D01*
X131045182Y-118672070D01*
X131027082Y-118719793D01*
X131004520Y-118754688D01*
X130759210Y-118999999D01*
X130759210Y-119000000D01*
X130040787Y-119000000D01*
X130040788Y-118999999D01*
X129530041Y-118489252D01*
X129464228Y-118612380D01*
X129464223Y-118612392D01*
X129406584Y-118802399D01*
X129406583Y-118802402D01*
X129387123Y-118999995D01*
X129387123Y-119000004D01*
X122719105Y-119000004D01*
X122600296Y-118896481D01*
X122595707Y-118892220D01*
X122177103Y-118478096D01*
X122172793Y-118473554D01*
X121866910Y-118130041D01*
X129889252Y-118130041D01*
X130399999Y-118640788D01*
X130910746Y-118130041D01*
X130787615Y-118064226D01*
X130787607Y-118064223D01*
X130597600Y-118006584D01*
X130597597Y-118006583D01*
X130400004Y-117987123D01*
X130399996Y-117987123D01*
X130202402Y-118006583D01*
X130202399Y-118006584D01*
X130012392Y-118064223D01*
X130012380Y-118064228D01*
X129889252Y-118130041D01*
X121866910Y-118130041D01*
X121808306Y-118064228D01*
X121781197Y-118033784D01*
X121777185Y-118028980D01*
X121759650Y-118006584D01*
X121414187Y-117565348D01*
X121410488Y-117560303D01*
X121232780Y-117301101D01*
X121077520Y-117074640D01*
X121074144Y-117069366D01*
X120772543Y-116563619D01*
X120769508Y-116558142D01*
X120500490Y-116034352D01*
X120497807Y-116028694D01*
X120262445Y-115488953D01*
X120260124Y-115483136D01*
X120059345Y-114929566D01*
X120057398Y-114923615D01*
X119995056Y-114710575D01*
X119892023Y-114358482D01*
X119890459Y-114352432D01*
X119761135Y-113777939D01*
X119759961Y-113771825D01*
X119667219Y-113190325D01*
X119666430Y-113184125D01*
X119610634Y-112597895D01*
X119610240Y-112591660D01*
X119610201Y-112590432D01*
X119591618Y-112003128D01*
X119591618Y-111996869D01*
X119595916Y-111861050D01*
X119610241Y-111408322D01*
X119610633Y-111402106D01*
X119666431Y-110815859D01*
X119667218Y-110809678D01*
X119716608Y-110500002D01*
X120144353Y-110500002D01*
X120164834Y-110642456D01*
X120209403Y-110740046D01*
X120224623Y-110773373D01*
X120318872Y-110882143D01*
X120324020Y-110885451D01*
X120362753Y-110932815D01*
X120369500Y-110968737D01*
X120369500Y-113988489D01*
X120368551Y-114002163D01*
X120367377Y-114010575D01*
X120369394Y-114054182D01*
X120369500Y-114058755D01*
X120369500Y-114075990D01*
X120369594Y-114077014D01*
X120371015Y-114089263D01*
X120372221Y-114115334D01*
X120375616Y-114123023D01*
X120382364Y-114144814D01*
X120383909Y-114153080D01*
X120383910Y-114153082D01*
X120383911Y-114153084D01*
X120397649Y-114175272D01*
X120404037Y-114187391D01*
X120414579Y-114211266D01*
X120420526Y-114217213D01*
X120434688Y-114235092D01*
X120437742Y-114240024D01*
X120439117Y-114242245D01*
X120459938Y-114257968D01*
X120470281Y-114266968D01*
X120958166Y-114754853D01*
X120967165Y-114765195D01*
X120972277Y-114771964D01*
X120972279Y-114771967D01*
X120991252Y-114789263D01*
X121004549Y-114801385D01*
X121007857Y-114804543D01*
X121020038Y-114816724D01*
X121020837Y-114817388D01*
X121030485Y-114825031D01*
X121049775Y-114842615D01*
X121049778Y-114842617D01*
X121057613Y-114845652D01*
X121077804Y-114856295D01*
X121084738Y-114861045D01*
X121110143Y-114867019D01*
X121123237Y-114871075D01*
X121147562Y-114880499D01*
X121147565Y-114880500D01*
X121155969Y-114880500D01*
X121178636Y-114883129D01*
X121186821Y-114885055D01*
X121210368Y-114881770D01*
X121212671Y-114881449D01*
X121226348Y-114880500D01*
X121435586Y-114880500D01*
X121493777Y-114899407D01*
X121510405Y-114914669D01*
X121568870Y-114982141D01*
X121568872Y-114982143D01*
X121634536Y-115024343D01*
X121689947Y-115059953D01*
X121756519Y-115079500D01*
X121828035Y-115100499D01*
X121828036Y-115100499D01*
X121828039Y-115100500D01*
X121828041Y-115100500D01*
X121971959Y-115100500D01*
X121971961Y-115100500D01*
X122110053Y-115059953D01*
X122231128Y-114982143D01*
X122325377Y-114873373D01*
X122385165Y-114742457D01*
X122399543Y-114642456D01*
X122405647Y-114600002D01*
X122405647Y-114599997D01*
X122385165Y-114457543D01*
X122362523Y-114407965D01*
X122325377Y-114326627D01*
X122231128Y-114217857D01*
X122231127Y-114217856D01*
X122231126Y-114217855D01*
X122110057Y-114140049D01*
X122110054Y-114140047D01*
X122110053Y-114140047D01*
X122110050Y-114140046D01*
X121971964Y-114099500D01*
X121971961Y-114099500D01*
X121828039Y-114099500D01*
X121828035Y-114099500D01*
X121689949Y-114140046D01*
X121689942Y-114140049D01*
X121568872Y-114217856D01*
X121568870Y-114217858D01*
X121510405Y-114285331D01*
X121458009Y-114316927D01*
X121435586Y-114319500D01*
X121357195Y-114319500D01*
X121299004Y-114300593D01*
X121287191Y-114290504D01*
X120959496Y-113962809D01*
X120931719Y-113908292D01*
X120930500Y-113892805D01*
X120930500Y-112376757D01*
X120949407Y-112318566D01*
X120998907Y-112282602D01*
X121060093Y-112282602D01*
X121109593Y-112318566D01*
X121112785Y-112323236D01*
X121117855Y-112331126D01*
X121117856Y-112331127D01*
X121117857Y-112331128D01*
X121226627Y-112425377D01*
X121302337Y-112459953D01*
X121357543Y-112485165D01*
X121464196Y-112500500D01*
X121464201Y-112500500D01*
X121535804Y-112500500D01*
X121624680Y-112487720D01*
X121642457Y-112485165D01*
X121773373Y-112425377D01*
X121882143Y-112331128D01*
X121959953Y-112210053D01*
X122000500Y-112071961D01*
X122000500Y-111928039D01*
X121959953Y-111789947D01*
X121929433Y-111742457D01*
X121882144Y-111668873D01*
X121871850Y-111659953D01*
X121773373Y-111574623D01*
X121733068Y-111556216D01*
X121642456Y-111514834D01*
X121535804Y-111499500D01*
X121535799Y-111499500D01*
X121464201Y-111499500D01*
X121464196Y-111499500D01*
X121357543Y-111514834D01*
X121226628Y-111574622D01*
X121117857Y-111668872D01*
X121112784Y-111676766D01*
X121065417Y-111715497D01*
X121004332Y-111718989D01*
X120952860Y-111685910D01*
X120930661Y-111628893D01*
X120930500Y-111623242D01*
X120930500Y-110968737D01*
X120949407Y-110910546D01*
X120975978Y-110885452D01*
X120981128Y-110882143D01*
X121075377Y-110773373D01*
X121135165Y-110642457D01*
X121149889Y-110540046D01*
X121155647Y-110500002D01*
X121155647Y-110499997D01*
X121135165Y-110357543D01*
X121108657Y-110299500D01*
X121075377Y-110226627D01*
X120981128Y-110117857D01*
X120981127Y-110117856D01*
X120981126Y-110117855D01*
X120860057Y-110040049D01*
X120860054Y-110040047D01*
X120860053Y-110040047D01*
X120852748Y-110037902D01*
X120721964Y-109999500D01*
X120721961Y-109999500D01*
X120578039Y-109999500D01*
X120578035Y-109999500D01*
X120439949Y-110040046D01*
X120439942Y-110040049D01*
X120318873Y-110117855D01*
X120224622Y-110226628D01*
X120164834Y-110357543D01*
X120144353Y-110499997D01*
X120144353Y-110500002D01*
X119716608Y-110500002D01*
X119759962Y-110228169D01*
X119761134Y-110222066D01*
X119890463Y-109647547D01*
X119892021Y-109641525D01*
X120057399Y-109076379D01*
X120059345Y-109070433D01*
X120070576Y-109039467D01*
X120260128Y-108516852D01*
X120262445Y-108511046D01*
X120269007Y-108495999D01*
X120497810Y-107971296D01*
X120500490Y-107965647D01*
X120769515Y-107441844D01*
X120772535Y-107436394D01*
X121074152Y-106930618D01*
X121077511Y-106925372D01*
X121410501Y-106439676D01*
X121414176Y-106434666D01*
X121777199Y-105971001D01*
X121781183Y-105966230D01*
X122172805Y-105526431D01*
X122177089Y-105521917D01*
X122595726Y-105107760D01*
X122600275Y-105103536D01*
X123044246Y-104716685D01*
X123049087Y-104712731D01*
X123516613Y-104354731D01*
X123521653Y-104351116D01*
X123982727Y-104042248D01*
X124037824Y-104025500D01*
X127506030Y-104025500D01*
X127564221Y-104044407D01*
X127600185Y-104093907D01*
X127600185Y-104155093D01*
X127564221Y-104204593D01*
X127540627Y-104217258D01*
X127454038Y-104249553D01*
X127337100Y-104337092D01*
X127337092Y-104337100D01*
X127249556Y-104454034D01*
X127249552Y-104454042D01*
X127245100Y-104465977D01*
X127207047Y-104513889D01*
X127148099Y-104530284D01*
X127128652Y-104527498D01*
X127015059Y-104499500D01*
X127015056Y-104499500D01*
X126844944Y-104499500D01*
X126844941Y-104499500D01*
X126679776Y-104540209D01*
X126529146Y-104619267D01*
X126401818Y-104732069D01*
X126401816Y-104732072D01*
X126376475Y-104768785D01*
X126327858Y-104805934D01*
X126266690Y-104807412D01*
X126216336Y-104772654D01*
X126213525Y-104768785D01*
X126188183Y-104732071D01*
X126123373Y-104674655D01*
X126060853Y-104619267D01*
X126060852Y-104619266D01*
X125910225Y-104540210D01*
X125910224Y-104540209D01*
X125910223Y-104540209D01*
X125745058Y-104499500D01*
X125745056Y-104499500D01*
X125574944Y-104499500D01*
X125574941Y-104499500D01*
X125409776Y-104540209D01*
X125259146Y-104619267D01*
X125131818Y-104732069D01*
X125131816Y-104732072D01*
X125106475Y-104768785D01*
X125057858Y-104805934D01*
X124996690Y-104807412D01*
X124946336Y-104772654D01*
X124943525Y-104768785D01*
X124918183Y-104732071D01*
X124853373Y-104674655D01*
X124790853Y-104619267D01*
X124790852Y-104619266D01*
X124640225Y-104540210D01*
X124640224Y-104540209D01*
X124640223Y-104540209D01*
X124475058Y-104499500D01*
X124475056Y-104499500D01*
X124304944Y-104499500D01*
X124304941Y-104499500D01*
X124139776Y-104540209D01*
X123989146Y-104619267D01*
X123861818Y-104732069D01*
X123861816Y-104732072D01*
X123790409Y-104835522D01*
X123765182Y-104872070D01*
X123704860Y-105031128D01*
X123684355Y-105200000D01*
X123704860Y-105368872D01*
X123765182Y-105527930D01*
X123861817Y-105667929D01*
X123989148Y-105780734D01*
X124139775Y-105859790D01*
X124304944Y-105900500D01*
X124304947Y-105900500D01*
X124475053Y-105900500D01*
X124475056Y-105900500D01*
X124640225Y-105859790D01*
X124790852Y-105780734D01*
X124918183Y-105667929D01*
X124943525Y-105631214D01*
X124992141Y-105594065D01*
X125053308Y-105592587D01*
X125103663Y-105627344D01*
X125106475Y-105631215D01*
X125131813Y-105667924D01*
X125131816Y-105667927D01*
X125131817Y-105667929D01*
X125259148Y-105780734D01*
X125409775Y-105859790D01*
X125574944Y-105900500D01*
X125574947Y-105900500D01*
X125745053Y-105900500D01*
X125745056Y-105900500D01*
X125910225Y-105859790D01*
X125994235Y-105815697D01*
X126054545Y-105805397D01*
X126109393Y-105832513D01*
X126137828Y-105886690D01*
X126128988Y-105947233D01*
X126110245Y-105973361D01*
X126013104Y-106070503D01*
X125958588Y-106098281D01*
X125943100Y-106099500D01*
X124463433Y-106099500D01*
X124336567Y-106099500D01*
X124336565Y-106099500D01*
X124336562Y-106099501D01*
X124313624Y-106106953D01*
X124298529Y-106110577D01*
X124274701Y-106114352D01*
X124274691Y-106114355D01*
X124253202Y-106125305D01*
X124238852Y-106131249D01*
X124215915Y-106138701D01*
X124215906Y-106138706D01*
X124196385Y-106152887D01*
X124183151Y-106160997D01*
X124161660Y-106171948D01*
X124161658Y-106171950D01*
X124139094Y-106194513D01*
X124139092Y-106194515D01*
X124139090Y-106194515D01*
X124139091Y-106194516D01*
X122844515Y-107489092D01*
X122821950Y-107511658D01*
X122821948Y-107511660D01*
X122810997Y-107533151D01*
X122802887Y-107546385D01*
X122788706Y-107565906D01*
X122788701Y-107565915D01*
X122781249Y-107588852D01*
X122775305Y-107603202D01*
X122764355Y-107624691D01*
X122764352Y-107624701D01*
X122760577Y-107648529D01*
X122756953Y-107663624D01*
X122749501Y-107686562D01*
X122749500Y-107686569D01*
X122749500Y-110313437D01*
X122756953Y-110336374D01*
X122760579Y-110351474D01*
X122764354Y-110375306D01*
X122775301Y-110396788D01*
X122781247Y-110411142D01*
X122788703Y-110434088D01*
X122788702Y-110434088D01*
X122802884Y-110453608D01*
X122810997Y-110466847D01*
X122821950Y-110488342D01*
X122821951Y-110488343D01*
X122842030Y-110508423D01*
X122842031Y-110508423D01*
X122842032Y-110508424D01*
X122842031Y-110508424D01*
X122844515Y-110510908D01*
X122844516Y-110510909D01*
X123084736Y-110751129D01*
X123263603Y-110929995D01*
X123291381Y-110984512D01*
X123281810Y-111044944D01*
X123263605Y-111070000D01*
X123211269Y-111122338D01*
X123094515Y-111239092D01*
X123071950Y-111261658D01*
X123071948Y-111261660D01*
X123060997Y-111283151D01*
X123052887Y-111296385D01*
X123038706Y-111315906D01*
X123038701Y-111315915D01*
X123031249Y-111338852D01*
X123025305Y-111353202D01*
X123014355Y-111374691D01*
X123014352Y-111374701D01*
X123010577Y-111398529D01*
X123006953Y-111413624D01*
X122999501Y-111436562D01*
X122999500Y-111436569D01*
X122999500Y-115063437D01*
X123006953Y-115086374D01*
X123010579Y-115101474D01*
X123014354Y-115125306D01*
X123025301Y-115146788D01*
X123031247Y-115161142D01*
X123038703Y-115184088D01*
X123038702Y-115184088D01*
X123052884Y-115203608D01*
X123060997Y-115216847D01*
X123071950Y-115238342D01*
X123071951Y-115238343D01*
X123092030Y-115258423D01*
X123092031Y-115258423D01*
X123094513Y-115260905D01*
X123094516Y-115260909D01*
X123678421Y-115844814D01*
X123678424Y-115844816D01*
X123678423Y-115844816D01*
X123694425Y-115860817D01*
X123700988Y-115867380D01*
X123722475Y-115878328D01*
X123735716Y-115886442D01*
X123755238Y-115900624D01*
X123755239Y-115900624D01*
X123755241Y-115900626D01*
X123778191Y-115908082D01*
X123792531Y-115914023D01*
X123814026Y-115924976D01*
X123837864Y-115928751D01*
X123852941Y-115932371D01*
X123875897Y-115939830D01*
X123907811Y-115939830D01*
X131408366Y-115939830D01*
X131466557Y-115958737D01*
X131502521Y-116008237D01*
X131507366Y-116038830D01*
X131507366Y-116371303D01*
X131514819Y-116394240D01*
X131518445Y-116409340D01*
X131522220Y-116433172D01*
X131533167Y-116454654D01*
X131539113Y-116469008D01*
X131546569Y-116491954D01*
X131546568Y-116491954D01*
X131560750Y-116511474D01*
X131568863Y-116524713D01*
X131579816Y-116546208D01*
X131579817Y-116546209D01*
X131599896Y-116566289D01*
X131599897Y-116566289D01*
X131602379Y-116568771D01*
X131602382Y-116568775D01*
X131939091Y-116905484D01*
X131939094Y-116905486D01*
X131939093Y-116905486D01*
X131950958Y-116917350D01*
X131961658Y-116928050D01*
X131983145Y-116938998D01*
X131996386Y-116947112D01*
X132015908Y-116961294D01*
X132015909Y-116961294D01*
X132015911Y-116961296D01*
X132038861Y-116968752D01*
X132053201Y-116974693D01*
X132074696Y-116985646D01*
X132098534Y-116989421D01*
X132113611Y-116993041D01*
X132136567Y-117000500D01*
X132168481Y-117000500D01*
X137068368Y-117000500D01*
X137121889Y-117016215D01*
X137189947Y-117059953D01*
X137296403Y-117091211D01*
X137328035Y-117100499D01*
X137328036Y-117100499D01*
X137328039Y-117100500D01*
X137328041Y-117100500D01*
X137471959Y-117100500D01*
X137471961Y-117100500D01*
X137610053Y-117059953D01*
X137731128Y-116982143D01*
X137825377Y-116873373D01*
X137885165Y-116742457D01*
X137890757Y-116703559D01*
X137917751Y-116648653D01*
X137918667Y-116647724D01*
X138105483Y-116460909D01*
X138128050Y-116438342D01*
X138139002Y-116416843D01*
X138147115Y-116403605D01*
X138161296Y-116384090D01*
X138161325Y-116384000D01*
X143911261Y-116384000D01*
X143915588Y-116404355D01*
X143915591Y-116404365D01*
X143991083Y-116573925D01*
X143991085Y-116573928D01*
X144100188Y-116724096D01*
X144238130Y-116848298D01*
X144398863Y-116941099D01*
X144398868Y-116941101D01*
X144575401Y-116998461D01*
X144713720Y-117012999D01*
X144713725Y-117013000D01*
X144805999Y-117013000D01*
X144806000Y-117012999D01*
X145314000Y-117012999D01*
X145314001Y-117013000D01*
X145406275Y-117013000D01*
X145406279Y-117012999D01*
X145544598Y-116998461D01*
X145721131Y-116941101D01*
X145721136Y-116941099D01*
X145881869Y-116848298D01*
X145997705Y-116744000D01*
X148301261Y-116744000D01*
X148305588Y-116764355D01*
X148305591Y-116764365D01*
X148381083Y-116933925D01*
X148381085Y-116933928D01*
X148490188Y-117084096D01*
X148628130Y-117208298D01*
X148788863Y-117301099D01*
X148788868Y-117301101D01*
X148965401Y-117358461D01*
X149103720Y-117372999D01*
X149103725Y-117373000D01*
X149195999Y-117373000D01*
X149196000Y-117372999D01*
X149196000Y-116744001D01*
X149195999Y-116744000D01*
X148301261Y-116744000D01*
X145997705Y-116744000D01*
X146019811Y-116724096D01*
X146128914Y-116573928D01*
X146128916Y-116573925D01*
X146204408Y-116404365D01*
X146204411Y-116404355D01*
X146208738Y-116384000D01*
X145314001Y-116384000D01*
X145314000Y-116384001D01*
X145314000Y-117012999D01*
X144806000Y-117012999D01*
X144806000Y-116384001D01*
X144805999Y-116384000D01*
X143911261Y-116384000D01*
X138161325Y-116384000D01*
X138168751Y-116361144D01*
X138174695Y-116346795D01*
X138185646Y-116325304D01*
X138189419Y-116301473D01*
X138193048Y-116286364D01*
X138200498Y-116263435D01*
X138200499Y-116263434D01*
X138200499Y-116235621D01*
X138200500Y-116235596D01*
X138200500Y-116130000D01*
X144505103Y-116130000D01*
X144524507Y-116227550D01*
X144579764Y-116310249D01*
X144662463Y-116365506D01*
X144735389Y-116380012D01*
X145384611Y-116380012D01*
X145457537Y-116365506D01*
X145540236Y-116310249D01*
X145589848Y-116235999D01*
X148301261Y-116235999D01*
X148301262Y-116236000D01*
X149195999Y-116236000D01*
X149196000Y-116235999D01*
X149196000Y-115607001D01*
X149195999Y-115607000D01*
X149103720Y-115607000D01*
X148965401Y-115621538D01*
X148788868Y-115678898D01*
X148788863Y-115678900D01*
X148628130Y-115771701D01*
X148490188Y-115895903D01*
X148381085Y-116046071D01*
X148381083Y-116046074D01*
X148305591Y-116215634D01*
X148305588Y-116215644D01*
X148301261Y-116235999D01*
X145589848Y-116235999D01*
X145595493Y-116227550D01*
X145614897Y-116130000D01*
X145595493Y-116032450D01*
X145540236Y-115949751D01*
X145457537Y-115894494D01*
X145384611Y-115879988D01*
X144735389Y-115879988D01*
X144662463Y-115894494D01*
X144579764Y-115949751D01*
X144524507Y-116032450D01*
X144505103Y-116130000D01*
X138200500Y-116130000D01*
X138200500Y-115875999D01*
X143911261Y-115875999D01*
X143911262Y-115876000D01*
X144805999Y-115876000D01*
X144806000Y-115875999D01*
X144806000Y-115505211D01*
X144547789Y-115247000D01*
X145310831Y-115247000D01*
X145314000Y-115261643D01*
X145314000Y-115875999D01*
X145314001Y-115876000D01*
X146208738Y-115876000D01*
X146208738Y-115875999D01*
X146204411Y-115855644D01*
X146204408Y-115855634D01*
X146128916Y-115686074D01*
X146128914Y-115686071D01*
X146019811Y-115535903D01*
X145881869Y-115411701D01*
X145721136Y-115318900D01*
X145721131Y-115318898D01*
X145544598Y-115261538D01*
X145406279Y-115247000D01*
X145310831Y-115247000D01*
X144547789Y-115247000D01*
X144459999Y-115159210D01*
X144085886Y-115533322D01*
X144079840Y-115562851D01*
X144073830Y-115572181D01*
X143991088Y-115686066D01*
X143991083Y-115686074D01*
X143915591Y-115855634D01*
X143915588Y-115855644D01*
X143911261Y-115875999D01*
X138200500Y-115875999D01*
X138200500Y-111586569D01*
X138200500Y-111586567D01*
X138193041Y-111563611D01*
X138189421Y-111548534D01*
X138185646Y-111524696D01*
X138174693Y-111503201D01*
X138168752Y-111488861D01*
X138161296Y-111465911D01*
X138157649Y-111460891D01*
X138147112Y-111446386D01*
X138138997Y-111433143D01*
X138137139Y-111429496D01*
X138128050Y-111411658D01*
X138116891Y-111400499D01*
X138105486Y-111389093D01*
X138105486Y-111389094D01*
X138105484Y-111389091D01*
X137716395Y-111000002D01*
X138494353Y-111000002D01*
X138514834Y-111142456D01*
X138539497Y-111196459D01*
X138574623Y-111273373D01*
X138659353Y-111371157D01*
X138668873Y-111382144D01*
X138768836Y-111446386D01*
X138789947Y-111459953D01*
X138888376Y-111488854D01*
X138928035Y-111500499D01*
X138928036Y-111500499D01*
X138928039Y-111500500D01*
X138928041Y-111500500D01*
X139071959Y-111500500D01*
X139071961Y-111500500D01*
X139210053Y-111459953D01*
X139278110Y-111416215D01*
X139331632Y-111400500D01*
X140263432Y-111400500D01*
X140263433Y-111400500D01*
X140286382Y-111393043D01*
X140301465Y-111389421D01*
X140325304Y-111385646D01*
X140346802Y-111374690D01*
X140361151Y-111368748D01*
X140384090Y-111361296D01*
X140403612Y-111347111D01*
X140416849Y-111339000D01*
X140438342Y-111328050D01*
X140455262Y-111311128D01*
X140455267Y-111311125D01*
X140460907Y-111305485D01*
X140460909Y-111305484D01*
X140625849Y-111140543D01*
X140680364Y-111112767D01*
X140740796Y-111122338D01*
X140784061Y-111165603D01*
X140793843Y-111196459D01*
X140814834Y-111342456D01*
X140871214Y-111465908D01*
X140874623Y-111473373D01*
X140968872Y-111582143D01*
X140968873Y-111582144D01*
X141054023Y-111636866D01*
X141092754Y-111684232D01*
X141099500Y-111720150D01*
X141099500Y-114346105D01*
X141080593Y-114404296D01*
X141073258Y-114412289D01*
X141073509Y-114412506D01*
X141068872Y-114417856D01*
X141068872Y-114417857D01*
X141049001Y-114440790D01*
X140974622Y-114526628D01*
X140914834Y-114657543D01*
X140894353Y-114799997D01*
X140894353Y-114800002D01*
X140914834Y-114942456D01*
X140970085Y-115063437D01*
X140974623Y-115073373D01*
X141043448Y-115152802D01*
X141068873Y-115182144D01*
X141187566Y-115258423D01*
X141189947Y-115259953D01*
X141296403Y-115291211D01*
X141328035Y-115300499D01*
X141328036Y-115300499D01*
X141328039Y-115300500D01*
X141328041Y-115300500D01*
X141471959Y-115300500D01*
X141471961Y-115300500D01*
X141610053Y-115259953D01*
X141731128Y-115182143D01*
X141825377Y-115073373D01*
X141885165Y-114942457D01*
X141896870Y-114861045D01*
X141905647Y-114800002D01*
X141905647Y-114800000D01*
X143646887Y-114800000D01*
X143667273Y-114980937D01*
X143667274Y-114980941D01*
X143727408Y-115152792D01*
X143727414Y-115152802D01*
X143735351Y-115165435D01*
X143735353Y-115165435D01*
X144055140Y-114845649D01*
X144260000Y-114845649D01*
X144299613Y-114927905D01*
X144370992Y-114984827D01*
X144437468Y-115000000D01*
X144482532Y-115000000D01*
X144549008Y-114984827D01*
X144620387Y-114927905D01*
X144660000Y-114845649D01*
X144660000Y-114754351D01*
X144620387Y-114672095D01*
X144549008Y-114615173D01*
X144482532Y-114600000D01*
X144437468Y-114600000D01*
X144370992Y-114615173D01*
X144299613Y-114672095D01*
X144260000Y-114754351D01*
X144260000Y-114845649D01*
X144055140Y-114845649D01*
X144100789Y-114800000D01*
X143735352Y-114434563D01*
X143727410Y-114447204D01*
X143667274Y-114619058D01*
X143667273Y-114619062D01*
X143646887Y-114800000D01*
X141905647Y-114800000D01*
X141905647Y-114799997D01*
X141885165Y-114657543D01*
X141865815Y-114615173D01*
X141825377Y-114526627D01*
X141731128Y-114417857D01*
X141731127Y-114417856D01*
X141726491Y-114412506D01*
X141728524Y-114410743D01*
X141703067Y-114368505D01*
X141700500Y-114346105D01*
X141700500Y-113200002D01*
X143954353Y-113200002D01*
X143974834Y-113342456D01*
X144021484Y-113444603D01*
X144034623Y-113473373D01*
X144128872Y-113582143D01*
X144128873Y-113582144D01*
X144249942Y-113659950D01*
X144249947Y-113659953D01*
X144365166Y-113693784D01*
X144372383Y-113695903D01*
X144414496Y-113720889D01*
X144512801Y-113819194D01*
X144540578Y-113873711D01*
X144531007Y-113934143D01*
X144487742Y-113977408D01*
X144453882Y-113987575D01*
X144279070Y-114007271D01*
X144279058Y-114007274D01*
X144107204Y-114067410D01*
X144094563Y-114075353D01*
X144459999Y-114440790D01*
X144460000Y-114440790D01*
X145184646Y-115165435D01*
X145203919Y-115163265D01*
X145204998Y-115163485D01*
X145204998Y-115117407D01*
X145205709Y-115115301D01*
X145252725Y-114980938D01*
X145252726Y-114980937D01*
X145273112Y-114800000D01*
X145262298Y-114704016D01*
X145274572Y-114644075D01*
X145319734Y-114602795D01*
X145380535Y-114595944D01*
X145391257Y-114598774D01*
X145396567Y-114600500D01*
X145396569Y-114600500D01*
X146263432Y-114600500D01*
X146263433Y-114600500D01*
X146286382Y-114593043D01*
X146301465Y-114589421D01*
X146325304Y-114585646D01*
X146346802Y-114574690D01*
X146361151Y-114568748D01*
X146384090Y-114561296D01*
X146403612Y-114547111D01*
X146416849Y-114539000D01*
X146438342Y-114528050D01*
X146455261Y-114511129D01*
X146455267Y-114511125D01*
X146460907Y-114505485D01*
X146460909Y-114505484D01*
X147105483Y-113860909D01*
X147128050Y-113838342D01*
X147139002Y-113816843D01*
X147147115Y-113803605D01*
X147161296Y-113784090D01*
X147168751Y-113761142D01*
X147174690Y-113746802D01*
X147185646Y-113725304D01*
X147189421Y-113701465D01*
X147193043Y-113686382D01*
X147200500Y-113663433D01*
X147200500Y-113536567D01*
X147200500Y-112684217D01*
X147200500Y-112652303D01*
X147193041Y-112629347D01*
X147189421Y-112614270D01*
X147185646Y-112590432D01*
X147174693Y-112568937D01*
X147168752Y-112554597D01*
X147161296Y-112531647D01*
X147161294Y-112531644D01*
X147147112Y-112512122D01*
X147138997Y-112498879D01*
X147134004Y-112489080D01*
X147128050Y-112477394D01*
X147128048Y-112477392D01*
X147105486Y-112454829D01*
X147105486Y-112454830D01*
X147105484Y-112454827D01*
X145145173Y-110494516D01*
X145145169Y-110494513D01*
X145142687Y-110492031D01*
X145142687Y-110492030D01*
X145122607Y-110471951D01*
X145122606Y-110471950D01*
X145101111Y-110460997D01*
X145087872Y-110452884D01*
X145068355Y-110438705D01*
X145068354Y-110438704D01*
X145068352Y-110438703D01*
X145045406Y-110431247D01*
X145031052Y-110425301D01*
X145009570Y-110414354D01*
X144985738Y-110410579D01*
X144970638Y-110406953D01*
X144947701Y-110399500D01*
X144947697Y-110399500D01*
X144915783Y-110399500D01*
X144791632Y-110399500D01*
X144738110Y-110383784D01*
X144670053Y-110340047D01*
X144670050Y-110340046D01*
X144531964Y-110299500D01*
X144531961Y-110299500D01*
X144388039Y-110299500D01*
X144388035Y-110299500D01*
X144249949Y-110340046D01*
X144249942Y-110340049D01*
X144128873Y-110417855D01*
X144034622Y-110526628D01*
X143974834Y-110657543D01*
X143954353Y-110799997D01*
X143954353Y-110800002D01*
X143974834Y-110942456D01*
X144034623Y-111073373D01*
X144088169Y-111135170D01*
X144111986Y-111191529D01*
X144098127Y-111251124D01*
X144088169Y-111264830D01*
X144034623Y-111326626D01*
X143974834Y-111457543D01*
X143954353Y-111599997D01*
X143954353Y-111600002D01*
X143974834Y-111742456D01*
X144034623Y-111873373D01*
X144088169Y-111935170D01*
X144111986Y-111991529D01*
X144098127Y-112051124D01*
X144088169Y-112064830D01*
X144034623Y-112126626D01*
X143974834Y-112257543D01*
X143954353Y-112399997D01*
X143954353Y-112400002D01*
X143974834Y-112542456D01*
X144034623Y-112673373D01*
X144088169Y-112735170D01*
X144111986Y-112791529D01*
X144098127Y-112851124D01*
X144088169Y-112864830D01*
X144034623Y-112926626D01*
X143974834Y-113057543D01*
X143954353Y-113199997D01*
X143954353Y-113200002D01*
X141700500Y-113200002D01*
X141700500Y-111539008D01*
X141719407Y-111480817D01*
X141724684Y-111474173D01*
X141724807Y-111474029D01*
X141725377Y-111473373D01*
X141785165Y-111342457D01*
X141800026Y-111239094D01*
X141805647Y-111200002D01*
X141805647Y-111199997D01*
X141785165Y-111057543D01*
X141759113Y-111000498D01*
X141725377Y-110926627D01*
X141631128Y-110817857D01*
X141631127Y-110817856D01*
X141631126Y-110817855D01*
X141510057Y-110740049D01*
X141510054Y-110740047D01*
X141510053Y-110740047D01*
X141510050Y-110740046D01*
X141371964Y-110699500D01*
X141371961Y-110699500D01*
X141228039Y-110699500D01*
X141228035Y-110699500D01*
X141089949Y-110740046D01*
X141089942Y-110740049D01*
X140968872Y-110817856D01*
X140964329Y-110821793D01*
X140907969Y-110845609D01*
X140848374Y-110831749D01*
X140808308Y-110785507D01*
X140800500Y-110746972D01*
X140800500Y-110736568D01*
X140800500Y-110736567D01*
X140761296Y-110615910D01*
X140755031Y-110607287D01*
X140686730Y-110513279D01*
X140686728Y-110513277D01*
X140686726Y-110513274D01*
X140686722Y-110513271D01*
X140686720Y-110513269D01*
X140584092Y-110438705D01*
X140584090Y-110438704D01*
X140463433Y-110399500D01*
X140336567Y-110399500D01*
X140216333Y-110438567D01*
X140215908Y-110438705D01*
X140139095Y-110494512D01*
X140139089Y-110494517D01*
X140063102Y-110570504D01*
X140008585Y-110598281D01*
X139993099Y-110599500D01*
X139331632Y-110599500D01*
X139278110Y-110583784D01*
X139210053Y-110540047D01*
X139210050Y-110540046D01*
X139071964Y-110499500D01*
X139071961Y-110499500D01*
X138928039Y-110499500D01*
X138928035Y-110499500D01*
X138789949Y-110540046D01*
X138789942Y-110540049D01*
X138668873Y-110617855D01*
X138574622Y-110726628D01*
X138514834Y-110857543D01*
X138494353Y-110999997D01*
X138494353Y-111000002D01*
X137716395Y-111000002D01*
X136641039Y-109924646D01*
X144094563Y-109924646D01*
X144107200Y-109932587D01*
X144107208Y-109932591D01*
X144279058Y-109992725D01*
X144279062Y-109992726D01*
X144460000Y-110013112D01*
X144640937Y-109992726D01*
X144640941Y-109992725D01*
X144812795Y-109932589D01*
X144825435Y-109924646D01*
X144459999Y-109559210D01*
X144094563Y-109924645D01*
X144094563Y-109924646D01*
X136641039Y-109924646D01*
X136536396Y-109820003D01*
X136508619Y-109765486D01*
X136518190Y-109705054D01*
X136536394Y-109679998D01*
X136705484Y-109510909D01*
X136705485Y-109510907D01*
X136711125Y-109505267D01*
X136711128Y-109505262D01*
X136728050Y-109488342D01*
X136739004Y-109466841D01*
X136747110Y-109453613D01*
X136761296Y-109434089D01*
X136768750Y-109411146D01*
X136774691Y-109396802D01*
X136785646Y-109375304D01*
X136789421Y-109351467D01*
X136793046Y-109336371D01*
X136795797Y-109327905D01*
X136800500Y-109313433D01*
X136800500Y-109186567D01*
X136800500Y-108400000D01*
X143229534Y-108400000D01*
X143249312Y-108550232D01*
X143249314Y-108550238D01*
X143303518Y-108681099D01*
X143307302Y-108690233D01*
X143399549Y-108810451D01*
X143519767Y-108902698D01*
X143553245Y-108916565D01*
X143604389Y-108937750D01*
X143650914Y-108977487D01*
X143665198Y-109036982D01*
X143664881Y-109040298D01*
X143646887Y-109199999D01*
X143667273Y-109380937D01*
X143667274Y-109380941D01*
X143727408Y-109552792D01*
X143727414Y-109552802D01*
X143735351Y-109565435D01*
X143735353Y-109565435D01*
X144055140Y-109245649D01*
X144260000Y-109245649D01*
X144299613Y-109327905D01*
X144370992Y-109384827D01*
X144437468Y-109400000D01*
X144482532Y-109400000D01*
X144549008Y-109384827D01*
X144620387Y-109327905D01*
X144660000Y-109245649D01*
X144660000Y-109199999D01*
X144819210Y-109199999D01*
X145184646Y-109565435D01*
X145192589Y-109552795D01*
X145252725Y-109380941D01*
X145252726Y-109380937D01*
X145273112Y-109200000D01*
X145252726Y-109019062D01*
X145252725Y-109019058D01*
X145205710Y-108884698D01*
X145204631Y-108836661D01*
X145203917Y-108836734D01*
X145184645Y-108834562D01*
X144819210Y-109199999D01*
X144660000Y-109199999D01*
X144660000Y-109154351D01*
X144620387Y-109072095D01*
X144549008Y-109015173D01*
X144482532Y-109000000D01*
X144437468Y-109000000D01*
X144370992Y-109015173D01*
X144299613Y-109072095D01*
X144260000Y-109154351D01*
X144260000Y-109245649D01*
X144055140Y-109245649D01*
X144460001Y-108840790D01*
X144547790Y-108753000D01*
X145309242Y-108753000D01*
X145406275Y-108753000D01*
X145406279Y-108752999D01*
X145544598Y-108738461D01*
X145721131Y-108681101D01*
X145721136Y-108681099D01*
X145881869Y-108588298D01*
X146019811Y-108464096D01*
X146128914Y-108313928D01*
X146128916Y-108313925D01*
X146204408Y-108144365D01*
X146204411Y-108144355D01*
X146208738Y-108124000D01*
X145314001Y-108124000D01*
X145314000Y-108124001D01*
X145314000Y-108738356D01*
X145309242Y-108753000D01*
X144547790Y-108753000D01*
X144805999Y-108494790D01*
X144806000Y-108494789D01*
X144806000Y-108120012D01*
X145384611Y-108120012D01*
X145457537Y-108105506D01*
X145540236Y-108050249D01*
X145595493Y-107967550D01*
X145614897Y-107870000D01*
X145595493Y-107772450D01*
X145589847Y-107764000D01*
X148301261Y-107764000D01*
X148305588Y-107784355D01*
X148305591Y-107784365D01*
X148381083Y-107953925D01*
X148381085Y-107953928D01*
X148490188Y-108104096D01*
X148628130Y-108228298D01*
X148788863Y-108321099D01*
X148788868Y-108321101D01*
X148965401Y-108378461D01*
X149103720Y-108392999D01*
X149103725Y-108393000D01*
X149195999Y-108393000D01*
X149196000Y-108392999D01*
X149196000Y-107764001D01*
X149195999Y-107764000D01*
X148301261Y-107764000D01*
X145589847Y-107764000D01*
X145540236Y-107689751D01*
X145457537Y-107634494D01*
X145384611Y-107619988D01*
X144806000Y-107619988D01*
X144806000Y-107615999D01*
X145314000Y-107615999D01*
X145314001Y-107616000D01*
X146208738Y-107616000D01*
X146208738Y-107615999D01*
X146204411Y-107595644D01*
X146204408Y-107595634D01*
X146128916Y-107426074D01*
X146128914Y-107426071D01*
X146019811Y-107275903D01*
X145997705Y-107255999D01*
X148301261Y-107255999D01*
X148301262Y-107256000D01*
X149195999Y-107256000D01*
X149196000Y-107255999D01*
X149196000Y-106627001D01*
X149195999Y-106627000D01*
X149103720Y-106627000D01*
X148965401Y-106641538D01*
X148788868Y-106698898D01*
X148788863Y-106698900D01*
X148628130Y-106791701D01*
X148490188Y-106915903D01*
X148381085Y-107066071D01*
X148381083Y-107066074D01*
X148305591Y-107235634D01*
X148305588Y-107235644D01*
X148301261Y-107255999D01*
X145997705Y-107255999D01*
X145881869Y-107151701D01*
X145721136Y-107058900D01*
X145721131Y-107058898D01*
X145544598Y-107001538D01*
X145406279Y-106987000D01*
X145314001Y-106987000D01*
X145314000Y-106987001D01*
X145314000Y-107615999D01*
X144806000Y-107615999D01*
X144806000Y-106987001D01*
X144805999Y-106987000D01*
X144713720Y-106987000D01*
X144575401Y-107001538D01*
X144398868Y-107058898D01*
X144398863Y-107058900D01*
X144238130Y-107151701D01*
X144100188Y-107275903D01*
X143991085Y-107426071D01*
X143991083Y-107426074D01*
X143915592Y-107595632D01*
X143915590Y-107595638D01*
X143883613Y-107746083D01*
X143853020Y-107799071D01*
X143797125Y-107823958D01*
X143786776Y-107824500D01*
X143772279Y-107824500D01*
X143659767Y-107839312D01*
X143659761Y-107839314D01*
X143519768Y-107897301D01*
X143399551Y-107989547D01*
X143399547Y-107989551D01*
X143307301Y-108109768D01*
X143249314Y-108249761D01*
X143249312Y-108249767D01*
X143229534Y-108399999D01*
X143229534Y-108400000D01*
X136800500Y-108400000D01*
X136800500Y-106339008D01*
X136819407Y-106280817D01*
X136824684Y-106274173D01*
X136824807Y-106274029D01*
X136825377Y-106273373D01*
X136885165Y-106142457D01*
X136895510Y-106070503D01*
X136905647Y-106000002D01*
X136905647Y-105999997D01*
X136885165Y-105857543D01*
X136865181Y-105813785D01*
X136825377Y-105726627D01*
X136731128Y-105617857D01*
X136731127Y-105617856D01*
X136731126Y-105617855D01*
X136610057Y-105540049D01*
X136610054Y-105540047D01*
X136610053Y-105540047D01*
X136610050Y-105540046D01*
X136471964Y-105499500D01*
X136471961Y-105499500D01*
X136328039Y-105499500D01*
X136328035Y-105499500D01*
X136189949Y-105540046D01*
X136189942Y-105540049D01*
X136068873Y-105617855D01*
X135974622Y-105726628D01*
X135914834Y-105857543D01*
X135894353Y-105999997D01*
X135894353Y-106000002D01*
X135914834Y-106142456D01*
X135974623Y-106273373D01*
X135975316Y-106274173D01*
X135975660Y-106274989D01*
X135978453Y-106279334D01*
X135977701Y-106279816D01*
X135999136Y-106330531D01*
X135999500Y-106339008D01*
X135999500Y-106796972D01*
X135980593Y-106855163D01*
X135931093Y-106891127D01*
X135869907Y-106891127D01*
X135835671Y-106871793D01*
X135831127Y-106867856D01*
X135710057Y-106790049D01*
X135710054Y-106790047D01*
X135710053Y-106790047D01*
X135710050Y-106790046D01*
X135571964Y-106749500D01*
X135571961Y-106749500D01*
X135428039Y-106749500D01*
X135428035Y-106749500D01*
X135289949Y-106790046D01*
X135289942Y-106790049D01*
X135168876Y-106867854D01*
X135168871Y-106867858D01*
X135165461Y-106871793D01*
X135148709Y-106891127D01*
X135127736Y-106915331D01*
X135075340Y-106946927D01*
X135052917Y-106949500D01*
X126505900Y-106949500D01*
X126447709Y-106930593D01*
X126411745Y-106881093D01*
X126411745Y-106819907D01*
X126435894Y-106780498D01*
X127177707Y-106038685D01*
X127232220Y-106010911D01*
X127292652Y-106020482D01*
X127326962Y-106049365D01*
X127337095Y-106062902D01*
X127337100Y-106062907D01*
X127454039Y-106150447D01*
X127590901Y-106201493D01*
X127590911Y-106201495D01*
X127651413Y-106208000D01*
X127945999Y-106208000D01*
X127946000Y-106207999D01*
X127946000Y-105045000D01*
X127964907Y-104986809D01*
X128014407Y-104950845D01*
X128045000Y-104946000D01*
X128355000Y-104946000D01*
X128413191Y-104964907D01*
X128449155Y-105014407D01*
X128454000Y-105045000D01*
X128454000Y-106207999D01*
X128454001Y-106208000D01*
X128748587Y-106208000D01*
X128809088Y-106201495D01*
X128809098Y-106201493D01*
X128945960Y-106150447D01*
X129062899Y-106062907D01*
X129062907Y-106062899D01*
X129150447Y-105945960D01*
X129201493Y-105809098D01*
X129201495Y-105809088D01*
X129208000Y-105748587D01*
X129208000Y-105603426D01*
X129226907Y-105545235D01*
X129276407Y-105509271D01*
X129337593Y-105509271D01*
X129387093Y-105545235D01*
X129388444Y-105547144D01*
X129471817Y-105667929D01*
X129599148Y-105780734D01*
X129749775Y-105859790D01*
X129914944Y-105900500D01*
X129914947Y-105900500D01*
X130085053Y-105900500D01*
X130085056Y-105900500D01*
X130250225Y-105859790D01*
X130400852Y-105780734D01*
X130528183Y-105667929D01*
X130624818Y-105527930D01*
X130685140Y-105368872D01*
X130705645Y-105200000D01*
X130685140Y-105031128D01*
X130624818Y-104872070D01*
X130528183Y-104732071D01*
X130463373Y-104674655D01*
X130400853Y-104619267D01*
X130400852Y-104619266D01*
X130250225Y-104540210D01*
X130250224Y-104540209D01*
X130250223Y-104540209D01*
X130085058Y-104499500D01*
X130079108Y-104498778D01*
X130079330Y-104496944D01*
X130029004Y-104480593D01*
X130017191Y-104470504D01*
X129891830Y-104345143D01*
X129882828Y-104334796D01*
X129877719Y-104328031D01*
X129845459Y-104298621D01*
X129842154Y-104295466D01*
X129829964Y-104283277D01*
X129829175Y-104282622D01*
X129819508Y-104274963D01*
X129800223Y-104257383D01*
X129800218Y-104257380D01*
X129792378Y-104254343D01*
X129772197Y-104243705D01*
X129765263Y-104238955D01*
X129765261Y-104238954D01*
X129739863Y-104232981D01*
X129726765Y-104228925D01*
X129695504Y-104216814D01*
X129648073Y-104178162D01*
X129632420Y-104119013D01*
X129654524Y-104061960D01*
X129705941Y-104028795D01*
X129731268Y-104025500D01*
X131559209Y-104025500D01*
X131559210Y-104025500D01*
X131674660Y-103999149D01*
X131759418Y-103958332D01*
X131781351Y-103947770D01*
X131827548Y-103910929D01*
X131873936Y-103873936D01*
X131947769Y-103781352D01*
X131947768Y-103781352D01*
X131947770Y-103781351D01*
X131969007Y-103737250D01*
X131999149Y-103674660D01*
X132025500Y-103559210D01*
X132025500Y-103500000D01*
X132025500Y-103491715D01*
X132025500Y-100252435D01*
X132025560Y-100250006D01*
X132286911Y-100250006D01*
X132307250Y-100638106D01*
X132307253Y-100638134D01*
X132368049Y-101021990D01*
X132368050Y-101021992D01*
X132468642Y-101397405D01*
X132468649Y-101397428D01*
X132607922Y-101760246D01*
X132784368Y-102106540D01*
X132784374Y-102106551D01*
X132996050Y-102432501D01*
X133202876Y-102687910D01*
X134699993Y-101190792D01*
X134701570Y-101193365D01*
X134865130Y-101384870D01*
X135056635Y-101548430D01*
X135059205Y-101550004D01*
X133562088Y-103047122D01*
X133817498Y-103253949D01*
X134143448Y-103465625D01*
X134143459Y-103465631D01*
X134489753Y-103642077D01*
X134852571Y-103781350D01*
X134852594Y-103781357D01*
X135228007Y-103881949D01*
X135228009Y-103881950D01*
X135611865Y-103942746D01*
X135611893Y-103942749D01*
X135999994Y-103963089D01*
X136000006Y-103963089D01*
X136388106Y-103942749D01*
X136388134Y-103942746D01*
X136771990Y-103881950D01*
X136771992Y-103881949D01*
X137147405Y-103781357D01*
X137147428Y-103781350D01*
X137510246Y-103642077D01*
X137856540Y-103465631D01*
X137856551Y-103465624D01*
X138182492Y-103253956D01*
X138182502Y-103253949D01*
X138437910Y-103047122D01*
X136940793Y-101550005D01*
X136943365Y-101548430D01*
X137134870Y-101384870D01*
X137298430Y-101193365D01*
X137300005Y-101190793D01*
X138797122Y-102687910D01*
X139003949Y-102432502D01*
X139003956Y-102432492D01*
X139215624Y-102106551D01*
X139215631Y-102106540D01*
X139392077Y-101760246D01*
X139531350Y-101397428D01*
X139531357Y-101397405D01*
X139631949Y-101021992D01*
X139631950Y-101021990D01*
X139692746Y-100638134D01*
X139692749Y-100638106D01*
X139713089Y-100250006D01*
X139713089Y-100249993D01*
X139692749Y-99861893D01*
X139692746Y-99861865D01*
X139631950Y-99478009D01*
X139631949Y-99478007D01*
X139531357Y-99102594D01*
X139531350Y-99102571D01*
X139392077Y-98739753D01*
X139215631Y-98393461D01*
X139003949Y-98067498D01*
X138797122Y-97812088D01*
X137300004Y-99309205D01*
X137298430Y-99306635D01*
X137134870Y-99115130D01*
X136943365Y-98951570D01*
X136940792Y-98949993D01*
X138437910Y-97452876D01*
X138182501Y-97246050D01*
X137856551Y-97034374D01*
X137856540Y-97034368D01*
X137510246Y-96857922D01*
X137147428Y-96718649D01*
X137147405Y-96718642D01*
X136771992Y-96618050D01*
X136771990Y-96618049D01*
X136388134Y-96557253D01*
X136388106Y-96557250D01*
X136000006Y-96536911D01*
X135999994Y-96536911D01*
X135611893Y-96557250D01*
X135611865Y-96557253D01*
X135228009Y-96618049D01*
X135228007Y-96618050D01*
X134852594Y-96718642D01*
X134852571Y-96718649D01*
X134489753Y-96857922D01*
X134143461Y-97034368D01*
X133817504Y-97246046D01*
X133562088Y-97452876D01*
X135059206Y-98949994D01*
X135056635Y-98951570D01*
X134865130Y-99115130D01*
X134701570Y-99306635D01*
X134699994Y-99309206D01*
X133202876Y-97812088D01*
X132996046Y-98067504D01*
X132784368Y-98393461D01*
X132607922Y-98739753D01*
X132468649Y-99102571D01*
X132468642Y-99102594D01*
X132368050Y-99478007D01*
X132368049Y-99478009D01*
X132307253Y-99861865D01*
X132307250Y-99861893D01*
X132286911Y-100249993D01*
X132286911Y-100250006D01*
X132025560Y-100250006D01*
X132025619Y-100247578D01*
X132037834Y-99998931D01*
X132044400Y-99865266D01*
X132045350Y-99855628D01*
X132101156Y-99479414D01*
X132103045Y-99469915D01*
X132195463Y-99100965D01*
X132198272Y-99091704D01*
X132326406Y-98733593D01*
X132330115Y-98724638D01*
X132492731Y-98380815D01*
X132497298Y-98372272D01*
X132692826Y-98046052D01*
X132698211Y-98037992D01*
X132924786Y-97732492D01*
X132930928Y-97725008D01*
X133186352Y-97443191D01*
X133193191Y-97436352D01*
X133475008Y-97180928D01*
X133482492Y-97174786D01*
X133787992Y-96948211D01*
X133796052Y-96942826D01*
X134122272Y-96747298D01*
X134130815Y-96742731D01*
X134474638Y-96580115D01*
X134483593Y-96576406D01*
X134841704Y-96448272D01*
X134850965Y-96445463D01*
X135219915Y-96353045D01*
X135229414Y-96351156D01*
X135605628Y-96295350D01*
X135615264Y-96294400D01*
X135995155Y-96275738D01*
X136004845Y-96275738D01*
X136384733Y-96294400D01*
G37*
G04 #@! TD.AperFunction*
G04 #@! TA.AperFunction,Conductor*
G36*
X134958691Y-107569407D02*
G01*
X134994655Y-107618907D01*
X134999500Y-107649500D01*
X134999500Y-110238785D01*
X134997280Y-110252463D01*
X134998494Y-110252633D01*
X134997226Y-110261716D01*
X134999394Y-110308591D01*
X134999500Y-110313163D01*
X134999500Y-110331794D01*
X134999522Y-110331916D01*
X135001101Y-110345527D01*
X135002414Y-110373937D01*
X135002415Y-110373944D01*
X135006384Y-110382932D01*
X135013132Y-110404722D01*
X135014939Y-110414383D01*
X135017089Y-110417855D01*
X135029912Y-110438567D01*
X135036301Y-110450688D01*
X135040373Y-110459909D01*
X135047794Y-110476715D01*
X135054745Y-110483666D01*
X135068907Y-110501546D01*
X135074081Y-110509902D01*
X135081667Y-110515631D01*
X135116712Y-110565785D01*
X135120002Y-110608723D01*
X135117378Y-110626976D01*
X135117378Y-110626977D01*
X135137859Y-110769431D01*
X135187547Y-110878231D01*
X135197648Y-110900348D01*
X135283996Y-111000000D01*
X135291898Y-111009119D01*
X135386636Y-111070003D01*
X135412972Y-111086928D01*
X135500973Y-111112767D01*
X135551060Y-111127474D01*
X135551061Y-111127474D01*
X135551064Y-111127475D01*
X135551066Y-111127475D01*
X135694984Y-111127475D01*
X135694986Y-111127475D01*
X135833078Y-111086928D01*
X135954153Y-111009118D01*
X136048402Y-110900348D01*
X136108190Y-110769432D01*
X136110821Y-110751127D01*
X136137816Y-110696220D01*
X136191929Y-110667665D01*
X136252492Y-110676371D01*
X136278818Y-110695211D01*
X137370504Y-111786897D01*
X137398281Y-111841414D01*
X137399500Y-111856901D01*
X137399500Y-112344739D01*
X137380593Y-112402930D01*
X137331093Y-112438894D01*
X137269907Y-112438894D01*
X137242312Y-112424834D01*
X137238343Y-112421951D01*
X137238342Y-112421950D01*
X137216847Y-112410997D01*
X137203608Y-112402884D01*
X137197581Y-112398505D01*
X137184090Y-112388704D01*
X137184088Y-112388703D01*
X137161142Y-112381247D01*
X137146788Y-112375301D01*
X137125306Y-112364354D01*
X137101474Y-112360579D01*
X137086374Y-112356953D01*
X137063437Y-112349500D01*
X137063433Y-112349500D01*
X137031519Y-112349500D01*
X133044658Y-112349500D01*
X132986467Y-112330593D01*
X132950503Y-112281093D01*
X132950503Y-112219907D01*
X132954605Y-112209373D01*
X132960294Y-112196916D01*
X132985165Y-112142457D01*
X133005647Y-112000000D01*
X132993709Y-111916971D01*
X132985165Y-111857543D01*
X132966144Y-111815893D01*
X132925377Y-111726627D01*
X132915733Y-111715497D01*
X132903551Y-111701438D01*
X132879733Y-111645079D01*
X132893592Y-111585484D01*
X132908367Y-111566603D01*
X133445476Y-111029496D01*
X133499992Y-111001719D01*
X133515479Y-111000500D01*
X133669747Y-111000500D01*
X133669748Y-111000500D01*
X133728231Y-110988867D01*
X133794552Y-110944552D01*
X133838867Y-110878231D01*
X133850500Y-110819748D01*
X133850500Y-110665478D01*
X133869407Y-110607287D01*
X133879490Y-110595480D01*
X133932174Y-110542797D01*
X133979656Y-110473481D01*
X134005379Y-110364119D01*
X133989857Y-110252849D01*
X133935189Y-110154702D01*
X133886253Y-110114065D01*
X133853565Y-110062344D01*
X133850500Y-110037902D01*
X133850500Y-109880253D01*
X133850498Y-109880241D01*
X133847711Y-109866231D01*
X133838867Y-109821769D01*
X133794552Y-109755448D01*
X133751961Y-109726989D01*
X133728233Y-109711134D01*
X133728231Y-109711133D01*
X133728228Y-109711132D01*
X133728227Y-109711132D01*
X133669758Y-109699501D01*
X133669748Y-109699500D01*
X132130252Y-109699500D01*
X132130251Y-109699500D01*
X132130241Y-109699501D01*
X132071772Y-109711132D01*
X132071766Y-109711134D01*
X132005451Y-109755445D01*
X132005445Y-109755451D01*
X131961134Y-109821766D01*
X131961132Y-109821772D01*
X131949501Y-109880241D01*
X131949500Y-109880253D01*
X131949500Y-110819746D01*
X131949501Y-110819758D01*
X131961132Y-110878227D01*
X131961134Y-110878233D01*
X131993471Y-110926628D01*
X132005448Y-110944552D01*
X132071769Y-110988867D01*
X132116231Y-110997711D01*
X132130241Y-111000498D01*
X132130246Y-111000498D01*
X132130252Y-111000500D01*
X132385521Y-111000500D01*
X132443712Y-111019407D01*
X132479676Y-111068907D01*
X132479676Y-111130093D01*
X132455524Y-111169504D01*
X132333591Y-111291436D01*
X132322361Y-111299550D01*
X132323090Y-111300515D01*
X132315771Y-111306041D01*
X132284141Y-111340737D01*
X132280989Y-111344038D01*
X132267830Y-111357198D01*
X132267818Y-111357212D01*
X132267749Y-111357314D01*
X132259255Y-111368035D01*
X132240083Y-111389066D01*
X132240083Y-111389067D01*
X132236529Y-111398240D01*
X132225896Y-111418412D01*
X132220346Y-111426515D01*
X132220341Y-111426524D01*
X132213830Y-111454206D01*
X132209777Y-111467296D01*
X132199501Y-111493823D01*
X132199500Y-111493829D01*
X132199500Y-111503651D01*
X132196870Y-111526318D01*
X132194620Y-111535881D01*
X132194689Y-111536373D01*
X132194565Y-111537068D01*
X132194197Y-111545043D01*
X132193158Y-111544995D01*
X132183997Y-111596617D01*
X132171457Y-111614872D01*
X132074623Y-111726626D01*
X132014834Y-111857543D01*
X131994353Y-111999997D01*
X131994353Y-112000002D01*
X132014834Y-112142456D01*
X132045395Y-112209373D01*
X132052370Y-112270159D01*
X132022284Y-112323437D01*
X131966628Y-112348855D01*
X131955342Y-112349500D01*
X130206900Y-112349500D01*
X130148709Y-112330593D01*
X130136896Y-112320504D01*
X128897751Y-111081359D01*
X128869974Y-111026842D01*
X128879545Y-110966410D01*
X128889405Y-110952839D01*
X128889135Y-110952659D01*
X128895952Y-110942457D01*
X128938867Y-110878231D01*
X128950500Y-110819748D01*
X128950500Y-109880252D01*
X128938867Y-109821769D01*
X128894552Y-109755448D01*
X128851961Y-109726989D01*
X128828233Y-109711134D01*
X128828231Y-109711133D01*
X128828228Y-109711132D01*
X128828227Y-109711132D01*
X128769758Y-109699501D01*
X128769748Y-109699500D01*
X128769747Y-109699500D01*
X128499500Y-109699500D01*
X128441309Y-109680593D01*
X128405345Y-109631093D01*
X128400500Y-109600500D01*
X128400500Y-108944983D01*
X128400499Y-108944953D01*
X128400499Y-108916567D01*
X128400498Y-108916565D01*
X128393047Y-108893633D01*
X128389419Y-108878523D01*
X128385646Y-108854697D01*
X128385646Y-108854696D01*
X128374690Y-108833195D01*
X128368750Y-108818852D01*
X128366020Y-108810451D01*
X128361296Y-108795910D01*
X128347117Y-108776395D01*
X128339000Y-108763149D01*
X128328050Y-108741658D01*
X128328049Y-108741657D01*
X128238346Y-108651953D01*
X128238340Y-108651948D01*
X128219494Y-108633101D01*
X128191717Y-108578583D01*
X128190499Y-108563099D01*
X128190499Y-108540103D01*
X128190498Y-108540092D01*
X128183972Y-108490513D01*
X128183972Y-108490511D01*
X128133225Y-108381686D01*
X128133224Y-108381685D01*
X128133224Y-108381684D01*
X128048316Y-108296776D01*
X128048314Y-108296775D01*
X128048313Y-108296774D01*
X127939489Y-108246029D01*
X127939488Y-108246028D01*
X127922958Y-108243852D01*
X127889901Y-108239500D01*
X127889899Y-108239500D01*
X127530104Y-108239500D01*
X127530100Y-108239501D01*
X127512707Y-108241790D01*
X127452547Y-108230636D01*
X127414578Y-108194032D01*
X127406091Y-108179682D01*
X127290318Y-108063909D01*
X127149396Y-107980569D01*
X127004000Y-107938326D01*
X127004000Y-109561672D01*
X127080709Y-109539386D01*
X127125594Y-109540796D01*
X127127159Y-109537404D01*
X127149461Y-109519392D01*
X127290318Y-109436090D01*
X127406090Y-109320318D01*
X127414574Y-109305972D01*
X127460468Y-109265507D01*
X127512778Y-109258219D01*
X127513496Y-109258314D01*
X127568699Y-109284695D01*
X127597855Y-109338487D01*
X127599500Y-109356457D01*
X127599500Y-109600500D01*
X127580593Y-109658691D01*
X127531093Y-109694655D01*
X127500500Y-109699500D01*
X127230246Y-109699500D01*
X127219169Y-109701704D01*
X127183973Y-109697538D01*
X127163333Y-109716770D01*
X127105449Y-109755447D01*
X127105445Y-109755451D01*
X127061134Y-109821766D01*
X127061132Y-109821772D01*
X127049501Y-109880241D01*
X127049500Y-109880253D01*
X127049500Y-110819746D01*
X127049501Y-110819758D01*
X127061132Y-110878227D01*
X127061134Y-110878233D01*
X127093471Y-110926628D01*
X127105448Y-110944552D01*
X127171769Y-110988867D01*
X127216231Y-110997711D01*
X127230241Y-111000498D01*
X127230246Y-111000498D01*
X127230252Y-111000500D01*
X127643100Y-111000500D01*
X127701291Y-111019407D01*
X127713097Y-111029490D01*
X129671950Y-112988342D01*
X129671949Y-112988342D01*
X129739053Y-113055445D01*
X129761658Y-113078050D01*
X129783152Y-113089001D01*
X129796398Y-113097119D01*
X129815905Y-113111293D01*
X129815906Y-113111293D01*
X129815910Y-113111296D01*
X129838849Y-113118748D01*
X129853201Y-113124694D01*
X129874691Y-113135644D01*
X129874693Y-113135644D01*
X129874696Y-113135646D01*
X129898517Y-113139418D01*
X129913613Y-113143042D01*
X129936567Y-113150500D01*
X129968481Y-113150500D01*
X131543000Y-113150500D01*
X131601191Y-113169407D01*
X131637155Y-113218907D01*
X131642000Y-113249500D01*
X131642000Y-113395999D01*
X131642001Y-113396000D01*
X134157999Y-113396000D01*
X134158000Y-113395999D01*
X134158000Y-113249500D01*
X134176907Y-113191309D01*
X134226407Y-113155345D01*
X134257000Y-113150500D01*
X136746500Y-113150500D01*
X136804691Y-113169407D01*
X136840655Y-113218907D01*
X136845500Y-113249500D01*
X136845500Y-113951053D01*
X136826593Y-114009244D01*
X136795111Y-114034987D01*
X136795903Y-114036219D01*
X136668873Y-114117855D01*
X136574622Y-114226628D01*
X136514834Y-114357543D01*
X136494353Y-114499997D01*
X136494353Y-114500002D01*
X136514834Y-114642456D01*
X136560504Y-114742457D01*
X136574623Y-114773373D01*
X136667448Y-114880500D01*
X136668873Y-114882144D01*
X136789942Y-114959950D01*
X136789947Y-114959953D01*
X136874661Y-114984827D01*
X136928035Y-115000499D01*
X136928036Y-115000499D01*
X136928039Y-115000500D01*
X136928041Y-115000500D01*
X137071959Y-115000500D01*
X137071961Y-115000500D01*
X137210053Y-114959953D01*
X137246976Y-114936223D01*
X137306151Y-114920668D01*
X137363167Y-114942866D01*
X137396247Y-114994338D01*
X137399500Y-115019507D01*
X137399500Y-115993100D01*
X137380593Y-116051291D01*
X137370507Y-116063100D01*
X137354498Y-116079110D01*
X137312386Y-116104096D01*
X137189947Y-116140047D01*
X137189946Y-116140047D01*
X137160868Y-116158734D01*
X137121889Y-116183784D01*
X137068368Y-116199500D01*
X132407366Y-116199500D01*
X132349175Y-116180593D01*
X132313211Y-116131093D01*
X132308366Y-116100500D01*
X132308366Y-115919008D01*
X132327273Y-115860817D01*
X132332550Y-115854173D01*
X132332673Y-115854029D01*
X132333243Y-115853373D01*
X132393031Y-115722457D01*
X132413513Y-115580000D01*
X132411047Y-115562851D01*
X132393031Y-115437543D01*
X132333243Y-115306628D01*
X132333243Y-115306627D01*
X132279308Y-115244382D01*
X132255492Y-115188024D01*
X132269351Y-115128429D01*
X132315592Y-115088362D01*
X132326238Y-115084563D01*
X132343481Y-115079500D01*
X132410053Y-115059953D01*
X132531128Y-114982143D01*
X132625377Y-114873373D01*
X132685165Y-114742457D01*
X132699543Y-114642456D01*
X132704497Y-114607999D01*
X133154000Y-114607999D01*
X133154001Y-114608000D01*
X133698587Y-114608000D01*
X133759088Y-114601495D01*
X133759098Y-114601493D01*
X133895960Y-114550447D01*
X134012899Y-114462907D01*
X134012907Y-114462899D01*
X134100447Y-114345960D01*
X134151493Y-114209098D01*
X134151495Y-114209088D01*
X134158000Y-114148587D01*
X134158000Y-113904001D01*
X134157999Y-113904000D01*
X133154001Y-113904000D01*
X133154000Y-113904001D01*
X133154000Y-114607999D01*
X132704497Y-114607999D01*
X132705647Y-114600002D01*
X132705647Y-114599997D01*
X132685166Y-114457547D01*
X132685165Y-114457546D01*
X132685165Y-114457543D01*
X132654945Y-114391372D01*
X132646000Y-114350248D01*
X132646000Y-113904001D01*
X132645999Y-113904000D01*
X131642001Y-113904000D01*
X131642000Y-113904001D01*
X131642000Y-114145869D01*
X131623093Y-114204060D01*
X131573593Y-114240024D01*
X131512407Y-114240024D01*
X131462907Y-114204060D01*
X131452947Y-114186995D01*
X131425378Y-114126629D01*
X131425377Y-114126628D01*
X131425377Y-114126627D01*
X131331128Y-114017857D01*
X131331127Y-114017856D01*
X131331126Y-114017855D01*
X131210057Y-113940049D01*
X131210054Y-113940047D01*
X131210053Y-113940047D01*
X131189946Y-113934143D01*
X131071964Y-113899500D01*
X131071961Y-113899500D01*
X130928039Y-113899500D01*
X130928035Y-113899500D01*
X130789949Y-113940046D01*
X130789942Y-113940049D01*
X130668872Y-114017856D01*
X130668870Y-114017858D01*
X130610405Y-114085331D01*
X130558009Y-114116927D01*
X130535586Y-114119500D01*
X129049500Y-114119500D01*
X128991309Y-114100593D01*
X128955345Y-114051093D01*
X128950500Y-114020500D01*
X128950500Y-113180253D01*
X128950498Y-113180241D01*
X128942620Y-113140638D01*
X128938867Y-113121769D01*
X128894552Y-113055448D01*
X128894548Y-113055445D01*
X128828233Y-113011134D01*
X128828231Y-113011133D01*
X128828228Y-113011132D01*
X128828227Y-113011132D01*
X128769758Y-112999501D01*
X128769748Y-112999500D01*
X127230252Y-112999500D01*
X127230251Y-112999500D01*
X127230241Y-112999501D01*
X127171772Y-113011132D01*
X127171766Y-113011134D01*
X127105451Y-113055445D01*
X127105445Y-113055451D01*
X127061134Y-113121766D01*
X127061132Y-113121772D01*
X127049501Y-113180241D01*
X127049500Y-113180253D01*
X127049500Y-114020500D01*
X127030593Y-114078691D01*
X126981093Y-114114655D01*
X126950500Y-114119500D01*
X125479500Y-114119500D01*
X125421309Y-114100593D01*
X125385345Y-114051093D01*
X125380500Y-114020500D01*
X125380500Y-112361506D01*
X125381450Y-112347827D01*
X125382622Y-112339423D01*
X125380606Y-112295815D01*
X125380500Y-112291243D01*
X125380500Y-112274003D01*
X125380405Y-112272983D01*
X125378984Y-112260741D01*
X125377779Y-112234667D01*
X125374382Y-112226974D01*
X125367633Y-112205177D01*
X125366089Y-112196916D01*
X125352350Y-112174728D01*
X125345964Y-112162613D01*
X125335421Y-112138734D01*
X125335419Y-112138732D01*
X125335419Y-112138731D01*
X125329473Y-112132785D01*
X125315309Y-112114903D01*
X125310884Y-112107756D01*
X125310881Y-112107753D01*
X125290059Y-112092029D01*
X125279717Y-112083030D01*
X125113658Y-111916971D01*
X125085881Y-111862454D01*
X125085669Y-111861050D01*
X125085165Y-111857543D01*
X125025377Y-111726627D01*
X124931128Y-111617857D01*
X124931127Y-111617856D01*
X124931126Y-111617855D01*
X124902331Y-111599350D01*
X124863599Y-111551984D01*
X124860106Y-111490898D01*
X124893186Y-111439426D01*
X124902311Y-111432795D01*
X124981128Y-111382143D01*
X125075377Y-111273373D01*
X125135165Y-111142457D01*
X125143149Y-111086925D01*
X125155647Y-111000002D01*
X125155647Y-110999997D01*
X125135165Y-110857543D01*
X125113298Y-110809662D01*
X125075377Y-110726627D01*
X124981128Y-110617857D01*
X124981127Y-110617856D01*
X124981126Y-110617855D01*
X124860057Y-110540049D01*
X124860054Y-110540047D01*
X124860053Y-110540047D01*
X124860050Y-110540046D01*
X124721964Y-110499500D01*
X124721961Y-110499500D01*
X124578039Y-110499500D01*
X124578035Y-110499500D01*
X124439949Y-110540046D01*
X124439946Y-110540047D01*
X124414439Y-110556440D01*
X124371889Y-110583784D01*
X124318368Y-110599500D01*
X124106900Y-110599500D01*
X124048709Y-110580593D01*
X124036896Y-110570503D01*
X123579496Y-110113102D01*
X123551719Y-110058586D01*
X123550500Y-110043099D01*
X123550500Y-107956901D01*
X123569407Y-107898710D01*
X123579496Y-107886898D01*
X123784026Y-107682367D01*
X123838543Y-107654589D01*
X123898975Y-107664160D01*
X123942240Y-107707425D01*
X123951811Y-107767857D01*
X123944084Y-107793496D01*
X123914833Y-107857545D01*
X123894353Y-107999997D01*
X123894353Y-108000002D01*
X123914834Y-108142456D01*
X123959154Y-108239501D01*
X123974623Y-108273373D01*
X124068474Y-108381684D01*
X124073509Y-108387494D01*
X124071471Y-108389259D01*
X124096925Y-108431458D01*
X124099500Y-108453893D01*
X124099500Y-108934835D01*
X124097280Y-108948513D01*
X124098494Y-108948683D01*
X124097226Y-108957766D01*
X124099394Y-109004641D01*
X124099500Y-109009213D01*
X124099500Y-109027844D01*
X124099522Y-109027966D01*
X124101101Y-109041577D01*
X124102414Y-109069987D01*
X124102415Y-109069994D01*
X124106384Y-109078982D01*
X124113132Y-109100772D01*
X124114939Y-109110433D01*
X124129911Y-109134614D01*
X124136302Y-109146740D01*
X124147792Y-109172762D01*
X124147793Y-109172763D01*
X124147794Y-109172765D01*
X124154745Y-109179717D01*
X124168906Y-109197595D01*
X124174079Y-109205950D01*
X124174080Y-109205951D01*
X124174081Y-109205952D01*
X124196785Y-109223097D01*
X124207121Y-109232092D01*
X124563046Y-109588018D01*
X124571147Y-109599258D01*
X124572126Y-109598519D01*
X124577654Y-109605840D01*
X124612324Y-109637446D01*
X124615629Y-109640602D01*
X124622595Y-109647567D01*
X124628813Y-109653785D01*
X124628910Y-109653851D01*
X124639659Y-109662366D01*
X124655413Y-109676727D01*
X124660677Y-109681526D01*
X124669838Y-109685074D01*
X124690026Y-109695715D01*
X124698130Y-109701267D01*
X124725825Y-109707781D01*
X124738906Y-109711832D01*
X124765437Y-109722110D01*
X124775262Y-109722110D01*
X124797926Y-109724739D01*
X124807491Y-109726989D01*
X124835666Y-109723059D01*
X124849342Y-109722110D01*
X125131962Y-109722110D01*
X125190153Y-109741017D01*
X125206778Y-109756277D01*
X125247917Y-109803753D01*
X125336046Y-109860390D01*
X125366953Y-109880253D01*
X125368992Y-109881563D01*
X125475448Y-109912821D01*
X125507080Y-109922109D01*
X125507081Y-109922109D01*
X125507084Y-109922110D01*
X125507086Y-109922110D01*
X125651004Y-109922110D01*
X125651006Y-109922110D01*
X125789098Y-109881563D01*
X125910173Y-109803753D01*
X126004422Y-109694983D01*
X126064210Y-109564067D01*
X126071515Y-109513257D01*
X126098510Y-109458352D01*
X126152624Y-109429798D01*
X126213187Y-109438505D01*
X126219902Y-109442135D01*
X126350600Y-109519429D01*
X126496000Y-109561672D01*
X126496000Y-109004001D01*
X126495999Y-109004000D01*
X125948609Y-109004000D01*
X125926011Y-109016654D01*
X125865250Y-109009459D01*
X125853179Y-109002839D01*
X125789102Y-108961659D01*
X125789099Y-108961657D01*
X125789098Y-108961657D01*
X125789095Y-108961656D01*
X125651009Y-108921110D01*
X125651006Y-108921110D01*
X125507084Y-108921110D01*
X125507080Y-108921110D01*
X125368994Y-108961656D01*
X125368987Y-108961659D01*
X125247921Y-109039464D01*
X125247918Y-109039466D01*
X125247917Y-109039467D01*
X125209237Y-109084107D01*
X125206781Y-109086941D01*
X125154385Y-109118537D01*
X125131962Y-109121110D01*
X124987089Y-109121110D01*
X124928898Y-109102203D01*
X124917085Y-109092114D01*
X124729496Y-108904525D01*
X124701719Y-108850008D01*
X124700500Y-108834521D01*
X124700500Y-108496000D01*
X125963460Y-108496000D01*
X126495999Y-108496000D01*
X126496000Y-108495999D01*
X126496000Y-107938326D01*
X126350603Y-107980569D01*
X126209681Y-108063909D01*
X126093909Y-108179681D01*
X126010568Y-108320604D01*
X125964892Y-108477822D01*
X125964890Y-108477829D01*
X125963460Y-108496000D01*
X124700500Y-108496000D01*
X124700500Y-108453893D01*
X124719407Y-108395702D01*
X124726741Y-108387711D01*
X124726491Y-108387494D01*
X124731524Y-108381686D01*
X124825377Y-108273373D01*
X124885165Y-108142457D01*
X124905647Y-108000000D01*
X124904144Y-107989549D01*
X124885165Y-107857543D01*
X124840624Y-107760012D01*
X124825377Y-107726627D01*
X124825376Y-107726626D01*
X124825376Y-107726625D01*
X124821549Y-107720670D01*
X124823137Y-107719648D01*
X124802945Y-107671865D01*
X124816804Y-107612270D01*
X124831578Y-107593391D01*
X124845477Y-107579494D01*
X124899995Y-107551718D01*
X124915478Y-107550500D01*
X134900500Y-107550500D01*
X134958691Y-107569407D01*
G37*
G04 #@! TD.AperFunction*
M02*
