G04 #@! TF.GenerationSoftware,KiCad,Pcbnew,7.0.10*
G04 #@! TF.CreationDate,2024-01-15T15:50:16+01:00*
G04 #@! TF.ProjectId,mico,6d69636f-2e6b-4696-9361-645f70636258,rev?*
G04 #@! TF.SameCoordinates,Original*
G04 #@! TF.FileFunction,Soldermask,Bot*
G04 #@! TF.FilePolarity,Negative*
%FSLAX46Y46*%
G04 Gerber Fmt 4.6, Leading zero omitted, Abs format (unit mm)*
G04 Created by KiCad (PCBNEW 7.0.10) date 2024-01-15 15:50:16*
%MOMM*%
%LPD*%
G01*
G04 APERTURE LIST*
G04 Aperture macros list*
%AMRoundRect*
0 Rectangle with rounded corners*
0 $1 Rounding radius*
0 $2 $3 $4 $5 $6 $7 $8 $9 X,Y pos of 4 corners*
0 Add a 4 corners polygon primitive as box body*
4,1,4,$2,$3,$4,$5,$6,$7,$8,$9,$2,$3,0*
0 Add four circle primitives for the rounded corners*
1,1,$1+$1,$2,$3*
1,1,$1+$1,$4,$5*
1,1,$1+$1,$6,$7*
1,1,$1+$1,$8,$9*
0 Add four rect primitives between the rounded corners*
20,1,$1+$1,$2,$3,$4,$5,0*
20,1,$1+$1,$4,$5,$6,$7,0*
20,1,$1+$1,$6,$7,$8,$9,0*
20,1,$1+$1,$8,$9,$2,$3,0*%
G04 Aperture macros list end*
%ADD10C,0.300000*%
%ADD11C,6.400000*%
%ADD12C,0.650000*%
%ADD13C,0.600000*%
%ADD14O,1.350000X0.750000*%
%ADD15R,1.200000X0.300000*%
%ADD16RoundRect,0.135000X0.135000X0.185000X-0.135000X0.185000X-0.135000X-0.185000X0.135000X-0.185000X0*%
%ADD17RoundRect,0.135000X-0.135000X-0.185000X0.135000X-0.185000X0.135000X0.185000X-0.135000X0.185000X0*%
%ADD18R,3.200000X3.200000*%
%ADD19RoundRect,0.006000X0.094000X-0.414000X0.094000X0.414000X-0.094000X0.414000X-0.094000X-0.414000X0*%
%ADD20RoundRect,0.020000X0.400000X-0.080000X0.400000X0.080000X-0.400000X0.080000X-0.400000X-0.080000X0*%
%ADD21C,0.500000*%
%ADD22R,0.522000X0.725000*%
%ADD23R,1.600000X0.200000*%
%ADD24R,0.300000X0.500000*%
%ADD25R,0.800000X0.900000*%
%ADD26RoundRect,0.140000X-0.140000X-0.170000X0.140000X-0.170000X0.140000X0.170000X-0.140000X0.170000X0*%
%ADD27RoundRect,0.140000X-0.170000X0.140000X-0.170000X-0.140000X0.170000X-0.140000X0.170000X0.140000X0*%
%ADD28RoundRect,0.135000X0.185000X-0.135000X0.185000X0.135000X-0.185000X0.135000X-0.185000X-0.135000X0*%
%ADD29RoundRect,0.140000X0.140000X0.170000X-0.140000X0.170000X-0.140000X-0.170000X0.140000X-0.170000X0*%
%ADD30RoundRect,0.140000X0.170000X-0.140000X0.170000X0.140000X-0.170000X0.140000X-0.170000X-0.140000X0*%
%ADD31R,1.600000X1.300000*%
%ADD32RoundRect,0.147500X0.147500X0.172500X-0.147500X0.172500X-0.147500X-0.172500X0.147500X-0.172500X0*%
%ADD33RoundRect,0.135000X-0.185000X0.135000X-0.185000X-0.135000X0.185000X-0.135000X0.185000X0.135000X0*%
%ADD34C,1.000000*%
G04 APERTURE END LIST*
D10*
X122150000Y-112000000D02*
G75*
G03*
X120850000Y-112000000I-650000J0D01*
G01*
X120850000Y-112000000D02*
G75*
G03*
X122150000Y-112000000I650000J0D01*
G01*
D11*
X136000000Y-123750000D03*
X136000000Y-100250000D03*
D12*
X143810000Y-108400000D03*
D13*
X144460000Y-109200000D03*
X144460000Y-110800000D03*
X144460000Y-111600000D03*
X144460000Y-112400000D03*
X144460000Y-113200000D03*
X145170000Y-112800000D03*
X144460000Y-114800000D03*
D14*
X145060000Y-107870000D03*
X149450000Y-107510000D03*
X149450000Y-116490000D03*
X145060000Y-116130000D03*
D15*
X143150000Y-109250000D03*
X143150000Y-110750000D03*
X143150000Y-111250000D03*
X143150000Y-111750000D03*
X143150000Y-112250000D03*
X143150000Y-113250000D03*
X143150000Y-114750000D03*
D16*
X144610000Y-117900000D03*
X143590000Y-117900000D03*
D17*
X144610000Y-106100000D03*
X143590000Y-106100000D03*
D18*
X130400000Y-110000000D03*
D19*
X133000000Y-106565000D03*
X132600000Y-106565000D03*
X132200000Y-106565000D03*
X131800000Y-106565000D03*
X131400000Y-106565000D03*
X131000000Y-106565000D03*
X130600000Y-106565000D03*
X130200000Y-106565000D03*
X129800000Y-106565000D03*
X129400000Y-106565000D03*
X129000000Y-106565000D03*
X128600000Y-106565000D03*
X128200000Y-106565000D03*
X127800000Y-106565000D03*
X127800000Y-113435000D03*
X128200000Y-113435000D03*
X128600000Y-113435000D03*
X129000000Y-113435000D03*
X129400000Y-113435000D03*
X129800000Y-113435000D03*
X130200000Y-113435000D03*
X130600000Y-113435000D03*
X131000000Y-113435000D03*
X131400000Y-113435000D03*
X131800000Y-113435000D03*
X132200000Y-113435000D03*
X132600000Y-113435000D03*
X133000000Y-113435000D03*
D20*
X133835000Y-112600000D03*
X133835000Y-112200000D03*
X133835000Y-111800000D03*
X133835000Y-111400000D03*
X133835000Y-111000000D03*
X133835000Y-110600000D03*
X133835000Y-110200000D03*
X133835000Y-109800000D03*
X133835000Y-109400000D03*
X133835000Y-109000000D03*
X133835000Y-108600000D03*
X133835000Y-108200000D03*
X133835000Y-107800000D03*
X133835000Y-107400000D03*
X126965000Y-107400000D03*
X126965000Y-107800000D03*
X126965000Y-108200000D03*
X126965000Y-108600000D03*
X126965000Y-109000000D03*
X126965000Y-109400000D03*
X126965000Y-109800000D03*
X126965000Y-110200000D03*
X126965000Y-110600000D03*
X126965000Y-111000000D03*
X126965000Y-111400000D03*
X126965000Y-111800000D03*
X126965000Y-112200000D03*
X126965000Y-112600000D03*
D21*
X121500000Y-112000000D03*
D22*
X122752000Y-111162500D03*
X123574000Y-111162500D03*
X122752000Y-112837500D03*
X123574000Y-112837500D03*
D23*
X135400000Y-116200000D03*
D24*
X136150000Y-114980000D03*
X135650000Y-114980000D03*
X135150000Y-114980000D03*
X134650000Y-114980000D03*
X134650000Y-117420000D03*
X135150000Y-117420000D03*
X135650000Y-117420000D03*
X136150000Y-117420000D03*
D25*
X138800000Y-113400000D03*
X137850000Y-115400000D03*
X139750000Y-115400000D03*
D26*
X139080000Y-118000000D03*
X138120000Y-118000000D03*
D27*
X129400000Y-117520000D03*
X129400000Y-118480000D03*
D16*
X131510000Y-105250000D03*
X130490000Y-105250000D03*
D28*
X122400000Y-108890000D03*
X122400000Y-109910000D03*
D29*
X124880000Y-109800000D03*
X123920000Y-109800000D03*
D27*
X129400000Y-116280000D03*
X129400000Y-115320000D03*
D16*
X137310000Y-119200000D03*
X136290000Y-119200000D03*
D26*
X138120000Y-106500000D03*
X139080000Y-106500000D03*
D27*
X132800000Y-115320000D03*
X132800000Y-116280000D03*
D29*
X124880000Y-108800000D03*
X123920000Y-108800000D03*
D17*
X138090000Y-108900000D03*
X139110000Y-108900000D03*
D16*
X125310000Y-114200000D03*
X124290000Y-114200000D03*
D29*
X127720000Y-105250000D03*
X128680000Y-105250000D03*
X139080000Y-112000000D03*
X138120000Y-112000000D03*
D30*
X124800000Y-107680000D03*
X124800000Y-106720000D03*
D26*
X135920000Y-105250000D03*
X136880000Y-105250000D03*
X138120000Y-105250000D03*
X139080000Y-105250000D03*
D31*
X124350000Y-118000000D03*
X127650000Y-118000000D03*
X127650000Y-116000000D03*
X124350000Y-116000000D03*
D27*
X122400000Y-107680000D03*
X122400000Y-106720000D03*
X123600000Y-107680000D03*
X123600000Y-106720000D03*
D26*
X137280000Y-111000000D03*
X136320000Y-111000000D03*
D27*
X131000000Y-116280000D03*
X131000000Y-115320000D03*
D26*
X137280000Y-109900000D03*
X136320000Y-109900000D03*
D16*
X133890000Y-119200000D03*
X134910000Y-119200000D03*
D32*
X133115000Y-105250000D03*
X134085000Y-105250000D03*
D17*
X139110000Y-107700000D03*
X138090000Y-107700000D03*
D33*
X121200000Y-108890000D03*
X121200000Y-109910000D03*
D26*
X139080000Y-116800000D03*
X138120000Y-116800000D03*
D30*
X122400000Y-115720000D03*
X122400000Y-116680000D03*
D34*
X141000000Y-118000000D03*
X141000000Y-106000000D03*
X131200000Y-119000000D03*
M02*
