G04 #@! TF.GenerationSoftware,KiCad,Pcbnew,7.0.10*
G04 #@! TF.CreationDate,2024-01-15T15:50:16+01:00*
G04 #@! TF.ProjectId,mico,6d69636f-2e6b-4696-9361-645f70636258,rev?*
G04 #@! TF.SameCoordinates,Original*
G04 #@! TF.FileFunction,Copper,L2,Bot*
G04 #@! TF.FilePolarity,Positive*
%FSLAX46Y46*%
G04 Gerber Fmt 4.6, Leading zero omitted, Abs format (unit mm)*
G04 Created by KiCad (PCBNEW 7.0.10) date 2024-01-15 15:50:16*
%MOMM*%
%LPD*%
G01*
G04 APERTURE LIST*
G04 Aperture macros list*
%AMRoundRect*
0 Rectangle with rounded corners*
0 $1 Rounding radius*
0 $2 $3 $4 $5 $6 $7 $8 $9 X,Y pos of 4 corners*
0 Add a 4 corners polygon primitive as box body*
4,1,4,$2,$3,$4,$5,$6,$7,$8,$9,$2,$3,0*
0 Add four circle primitives for the rounded corners*
1,1,$1+$1,$2,$3*
1,1,$1+$1,$4,$5*
1,1,$1+$1,$6,$7*
1,1,$1+$1,$8,$9*
0 Add four rect primitives between the rounded corners*
20,1,$1+$1,$2,$3,$4,$5,0*
20,1,$1+$1,$4,$5,$6,$7,0*
20,1,$1+$1,$6,$7,$8,$9,0*
20,1,$1+$1,$8,$9,$2,$3,0*%
%AMFreePoly0*
4,1,501,-0.656244,0.822997,-0.656238,0.823000,-0.614238,0.822000,-0.614226,0.821995,-0.614215,0.821999,-0.571215,0.818999,-0.571197,0.818990,-0.571179,0.818995,-0.529180,0.812995,-0.529168,0.812988,-0.529154,0.812991,-0.488154,0.804991,-0.488144,0.804984,-0.488134,0.804986,-0.446134,0.794986,-0.446122,0.794977,-0.446106,0.794979,-0.406107,0.782979,-0.406097,0.782971,-0.406085,0.782972,
-0.366085,0.768972,-0.366074,0.768962,-0.366060,0.768963,-0.327061,0.752963,-0.327052,0.752954,-0.327040,0.752954,-0.288041,0.734954,-0.288026,0.734937,-0.288003,0.734935,-0.251003,0.713935,-0.250997,0.713928,-0.250989,0.713927,-0.214989,0.691927,-0.214980,0.691914,-0.214967,0.691912,-0.179967,0.667912,-0.179959,0.667900,-0.179946,0.667897,-0.145946,0.641897,-0.145939,0.641885,
-0.145928,0.641882,-0.113927,0.614882,-0.113920,0.614869,-0.113908,0.614865,-0.082908,0.585865,-0.082900,0.585849,-0.082885,0.585842,-0.053885,0.554842,-0.053879,0.554828,-0.053868,0.554822,-0.026868,0.522822,-0.026864,0.522810,-0.026853,0.522804,-0.000853,0.488804,-0.000849,0.488790,-0.000838,0.488783,0.023162,0.453783,0.023164,0.453769,0.023177,0.453761,0.045177,0.417761,
0.045178,0.417752,0.045185,0.417747,0.066185,0.380747,0.066187,0.380725,0.066204,0.380710,0.084204,0.341710,0.084204,0.341698,0.084213,0.341690,0.100212,0.302690,0.100212,0.302676,0.100222,0.302665,0.114222,0.262665,0.114221,0.262653,0.114229,0.262644,0.126229,0.222644,0.126227,0.222627,0.126236,0.222616,0.136236,0.180616,0.136234,0.180605,0.136241,0.180596,
0.144241,0.139596,0.144238,0.139582,0.144245,0.139571,0.150245,0.097571,0.150240,0.097552,0.150249,0.097535,0.153249,0.054534,0.153245,0.054522,0.153250,0.054512,0.154250,0.012512,0.154247,0.012505,0.154250,0.012500,0.154250,0.002500,0.154247,0.002493,0.154250,0.002487,0.153250,-0.036513,0.153245,-0.036524,0.153249,-0.036536,0.150249,-0.078536,0.150240,-0.078553,
0.150245,-0.078571,0.144245,-0.120571,0.144238,-0.120582,0.144241,-0.120596,0.136241,-0.161596,0.136237,-0.161601,0.136238,-0.161607,0.127238,-0.202607,0.127226,-0.202623,0.127229,-0.202644,0.115229,-0.242644,0.115221,-0.242653,0.115222,-0.242665,0.101222,-0.282665,0.101212,-0.282676,0.101212,-0.282690,0.085213,-0.321690,0.085202,-0.321700,0.085202,-0.321714,0.067202,-0.359714,
0.067187,-0.359727,0.067185,-0.359747,0.046182,-0.396752,0.025182,-0.432752,0.025163,-0.432766,0.025158,-0.432789,0.001158,-0.466788,0.001149,-0.466793,0.001147,-0.466804,-0.024853,-0.500804,-0.024867,-0.500812,-0.024873,-0.500828,-0.051873,-0.531828,-0.051881,-0.531832,-0.051885,-0.531842,-0.080885,-0.562842,-0.080900,-0.562849,-0.080908,-0.562865,-0.111908,-0.591865,-0.111916,-0.591868,
-0.111921,-0.591877,-0.142922,-0.618877,-0.142937,-0.618882,-0.142946,-0.618897,-0.176946,-0.644897,-0.176956,-0.644899,-0.176962,-0.644909,-0.210962,-0.668908,-0.210983,-0.668912,-0.210998,-0.668932,-0.247003,-0.689935,-0.284003,-0.710935,-0.284022,-0.710937,-0.284036,-0.710952,-0.322036,-0.728952,-0.322050,-0.728952,-0.322061,-0.728963,-0.361060,-0.744963,-0.361074,-0.744962,-0.361085,-0.744972,
-0.401085,-0.758972,-0.401097,-0.758971,-0.401107,-0.758979,-0.441106,-0.770979,-0.441127,-0.770976,-0.441143,-0.770988,-0.482143,-0.779988,-0.482148,-0.779987,-0.482154,-0.779991,-0.523154,-0.787991,-0.523168,-0.787988,-0.523180,-0.787995,-0.565179,-0.793995,-0.565196,-0.793990,-0.565214,-0.793999,-0.607214,-0.796999,-0.607226,-0.796994,-0.607239,-0.797000,-0.651239,-0.798000,-0.651244,-0.797997,
-0.651250,-0.798000,-0.651414,-0.797932,-0.651596,-0.797862,-0.651598,-0.797856,-0.651604,-0.797854,-0.651674,-0.797683,-0.651750,-0.797511,-0.651747,-0.797505,-0.651750,-0.797500,-0.651750,-0.497500,-0.651604,-0.497146,-0.651250,-0.497000,-0.636272,-0.497000,-0.607307,-0.494003,-0.581321,-0.491004,-0.556362,-0.486012,-0.531384,-0.480018,-0.483434,-0.464034,-0.459449,-0.454041,-0.413478,-0.432055,
-0.391523,-0.419080,-0.349549,-0.389099,-0.330583,-0.373127,-0.311583,-0.356127,-0.292608,-0.338150,-0.275622,-0.319166,-0.259638,-0.300184,-0.243653,-0.279204,-0.229666,-0.258223,-0.203694,-0.214271,-0.192708,-0.191300,-0.182712,-0.167308,-0.173724,-0.143342,-0.166729,-0.119359,-0.159736,-0.094385,-0.154744,-0.069421,-0.150743,-0.044420,-0.147748,-0.019459,-0.146750,0.002501,-0.146750,0.025476,
-0.148749,0.052463,-0.151747,0.079445,-0.155741,0.105404,-0.161733,0.132372,-0.168728,0.158354,-0.177714,0.183314,-0.187708,0.208299,-0.198703,0.233288,-0.211690,0.257263,-0.224672,0.280232,-0.239663,0.302218,-0.255645,0.324193,-0.272630,0.345173,-0.291604,0.365146,-0.310604,0.384146,-0.330566,0.402112,-0.351553,0.418102,-0.373524,0.434081,-0.419496,0.462064,-0.443459,0.474045,
-0.468432,0.485033,-0.493397,0.494022,-0.519387,0.502019,-0.545358,0.509011,-0.572341,0.514008,-0.598310,0.518003,-0.625282,0.521000,-0.656266,0.522000,-0.666233,0.522000,-0.696217,0.521000,-0.723189,0.518003,-0.749161,0.514008,-0.775139,0.509012,-0.825086,0.495026,-0.850058,0.485038,-0.874046,0.475043,-0.898019,0.463056,-0.920981,0.450078,-0.942972,0.436084,-0.964947,0.420102,
-0.985926,0.404117,-1.023893,0.368148,-1.041869,0.348176,-1.058859,0.328187,-1.074841,0.307210,-1.088823,0.285240,-1.102814,0.262253,-1.114795,0.238292,-1.125788,0.214308,-1.135782,0.190320,-1.143767,0.165370,-1.150766,0.139371,-1.156758,0.113406,-1.160753,0.087443,-1.163751,0.061462,-1.165750,0.035475,-1.165750,0.012517,-1.164751,-0.016463,-1.162751,-0.043455,-1.159756,-0.069421,
-1.154759,-0.095405,-1.148766,-0.121370,-1.140774,-0.146344,-1.131779,-0.171331,-1.121795,-0.196292,-1.110801,-0.220278,-1.097823,-0.243240,-1.083831,-0.266226,-1.068845,-0.288205,-1.052859,-0.309187,-1.035886,-0.329156,-0.997906,-0.367136,-0.977937,-0.384109,-0.956955,-0.400095,-0.934976,-0.415081,-0.911992,-0.429071,-0.889028,-0.442051,-0.865054,-0.453039,-0.840064,-0.463036,-0.815086,-0.472027,
-0.790114,-0.480018,-0.764152,-0.486009,-0.738178,-0.491004,-0.712202,-0.494001,-0.685223,-0.496000,-0.661229,-0.497000,-0.661056,-0.497079,-0.660896,-0.497146,-0.660891,-0.497155,-0.660881,-0.497161,-0.660814,-0.497342,-0.660750,-0.497500,-0.660750,-0.797500,-0.660752,-0.797505,-0.660750,-0.797511,-0.660896,-0.797854,-0.660901,-0.797856,-0.660904,-0.797862,-0.661078,-0.797929,-0.661250,-0.798000,
-0.661255,-0.797997,-0.661262,-0.798000,-0.705261,-0.797000,-0.705273,-0.796994,-0.705286,-0.796999,-0.747286,-0.793999,-0.747303,-0.793990,-0.747321,-0.793995,-0.789321,-0.787995,-0.789332,-0.787988,-0.789346,-0.787991,-0.830346,-0.779991,-0.830351,-0.779987,-0.830357,-0.779988,-0.871357,-0.770988,-0.871373,-0.770976,-0.871394,-0.770979,-0.911394,-0.758979,-0.911403,-0.758971,-0.911415,-0.758972,
-0.951415,-0.744972,-0.951426,-0.744962,-0.951440,-0.744962,-0.990440,-0.728963,-0.990450,-0.728952,-0.990464,-0.728952,-1.028464,-0.710952,-1.028477,-0.710937,-1.028497,-0.710935,-1.065502,-0.689932,-1.101502,-0.668932,-1.101516,-0.668913,-1.101539,-0.668908,-1.135538,-0.644908,-1.135543,-0.644899,-1.135554,-0.644897,-1.169554,-0.618897,-1.169562,-0.618882,-1.169578,-0.618877,-1.200578,-0.591877,
-1.200582,-0.591868,-1.200592,-0.591865,-1.231592,-0.562865,-1.231599,-0.562849,-1.231615,-0.562842,-1.260615,-0.531842,-1.260618,-0.531833,-1.260627,-0.531829,-1.287627,-0.500828,-1.287632,-0.500812,-1.287647,-0.500804,-1.313647,-0.466804,-1.313649,-0.466793,-1.313659,-0.466788,-1.337658,-0.432788,-1.337662,-0.432766,-1.337682,-0.432752,-1.358685,-0.396747,-1.379685,-0.359747,-1.379687,-0.359727,
-1.379702,-0.359714,-1.397702,-0.321714,-1.397702,-0.321699,-1.397713,-0.321689,-1.413713,-0.282690,-1.413712,-0.282675,-1.413722,-0.282665,-1.427722,-0.242665,-1.427721,-0.242652,-1.427729,-0.242643,-1.439729,-0.202644,-1.439726,-0.202622,-1.439738,-0.202607,-1.448738,-0.161607,-1.448737,-0.161601,-1.448741,-0.161596,-1.456741,-0.120596,-1.456738,-0.120581,-1.456745,-0.120570,-1.462745,-0.078571,
-1.462740,-0.078553,-1.462749,-0.078536,-1.465749,-0.036536,-1.465745,-0.036524,-1.465750,-0.036513,-1.466750,0.002487,-1.466747,0.002493,-1.466750,0.002500,-1.466750,0.072500,-1.466740,0.072522,-1.466748,0.072547,-1.463747,0.104552,-1.459747,0.142552,-1.459737,0.142569,-1.459742,0.142591,-1.452742,0.180590,-1.452734,0.180601,-1.452737,0.180615,-1.443737,0.218615,-1.443731,0.218621,
-1.443733,0.218630,-1.433733,0.255631,-1.433725,0.255641,-1.433726,0.255654,-1.421726,0.292654,-1.421715,0.292666,-1.421716,0.292681,-1.407716,0.328681,-1.407710,0.328687,-1.407710,0.328697,-1.392710,0.363697,-1.392696,0.363710,-1.392695,0.363729,-1.374695,0.398728,-1.374689,0.398732,-1.374689,0.398739,-1.356689,0.431740,-1.356674,0.431751,-1.356672,0.431768,-1.335672,0.464768,
-1.335664,0.464773,-1.335662,0.464783,-1.313662,0.496783,-1.313645,0.496793,-1.313640,0.496812,-1.289640,0.526813,-1.289635,0.526815,-1.289634,0.526820,-1.264634,0.556820,-1.264620,0.556826,-1.264616,0.556840,-1.238616,0.584840,-1.238603,0.584845,-1.238597,0.584860,-1.210597,0.611860,-1.210588,0.611863,-1.210584,0.611872,-1.181584,0.637872,-1.181569,0.637877,-1.181562,0.637890,
-1.151562,0.661891,-1.151546,0.661895,-1.151539,0.661908,-1.120540,0.683908,-1.120525,0.683911,-1.120518,0.683922,-1.087519,0.704922,-1.087512,0.704923,-1.087509,0.704928,-1.054509,0.724928,-1.054493,0.724930,-1.054484,0.724942,-1.020484,0.742942,-1.020468,0.742943,-1.020458,0.742955,-0.985458,0.758955,-0.985441,0.758955,-0.985431,0.758966,-0.949432,0.772966,-0.949422,0.772965,
-0.949416,0.772972,-0.912416,0.785972,-0.912401,0.785971,-0.912392,0.785979,-0.875392,0.796979,-0.875379,0.796977,-0.875368,0.796986,-0.838368,0.805986,-0.838353,0.805983,-0.838341,0.805992,-0.800341,0.812992,-0.800332,0.812990,-0.800326,0.812994,-0.761326,0.818994,-0.761309,0.818989,-0.761294,0.818998,-0.716295,0.822998,-0.716272,0.822990,-0.716250,0.823000,-0.656250,0.823000,
-0.656244,0.822997,-0.656244,0.822997,$1*%
G04 Aperture macros list end*
G04 #@! TA.AperFunction,ComponentPad*
%ADD10C,6.400000*%
G04 #@! TD*
G04 #@! TA.AperFunction,ComponentPad*
%ADD11C,0.650000*%
G04 #@! TD*
G04 #@! TA.AperFunction,ComponentPad*
%ADD12C,0.600000*%
G04 #@! TD*
G04 #@! TA.AperFunction,ComponentPad*
%ADD13O,1.350000X0.750000*%
G04 #@! TD*
G04 #@! TA.AperFunction,SMDPad,CuDef*
%ADD14R,1.200000X0.300000*%
G04 #@! TD*
G04 #@! TA.AperFunction,SMDPad,CuDef*
%ADD15RoundRect,0.135000X0.135000X0.185000X-0.135000X0.185000X-0.135000X-0.185000X0.135000X-0.185000X0*%
G04 #@! TD*
G04 #@! TA.AperFunction,SMDPad,CuDef*
%ADD16RoundRect,0.135000X-0.135000X-0.185000X0.135000X-0.185000X0.135000X0.185000X-0.135000X0.185000X0*%
G04 #@! TD*
G04 #@! TA.AperFunction,SMDPad,CuDef*
%ADD17R,3.200000X3.200000*%
G04 #@! TD*
G04 #@! TA.AperFunction,SMDPad,CuDef*
%ADD18RoundRect,0.006000X0.094000X-0.414000X0.094000X0.414000X-0.094000X0.414000X-0.094000X-0.414000X0*%
G04 #@! TD*
G04 #@! TA.AperFunction,SMDPad,CuDef*
%ADD19RoundRect,0.020000X0.400000X-0.080000X0.400000X0.080000X-0.400000X0.080000X-0.400000X-0.080000X0*%
G04 #@! TD*
G04 #@! TA.AperFunction,SMDPad,CuDef*
%ADD20FreePoly0,90.000000*%
G04 #@! TD*
G04 #@! TA.AperFunction,SMDPad,CuDef*
%ADD21R,0.522000X0.725000*%
G04 #@! TD*
G04 #@! TA.AperFunction,SMDPad,CuDef*
%ADD22R,1.600000X0.200000*%
G04 #@! TD*
G04 #@! TA.AperFunction,SMDPad,CuDef*
%ADD23R,0.300000X0.500000*%
G04 #@! TD*
G04 #@! TA.AperFunction,SMDPad,CuDef*
%ADD24R,0.800000X0.900000*%
G04 #@! TD*
G04 #@! TA.AperFunction,SMDPad,CuDef*
%ADD25RoundRect,0.140000X-0.140000X-0.170000X0.140000X-0.170000X0.140000X0.170000X-0.140000X0.170000X0*%
G04 #@! TD*
G04 #@! TA.AperFunction,SMDPad,CuDef*
%ADD26RoundRect,0.140000X-0.170000X0.140000X-0.170000X-0.140000X0.170000X-0.140000X0.170000X0.140000X0*%
G04 #@! TD*
G04 #@! TA.AperFunction,SMDPad,CuDef*
%ADD27RoundRect,0.135000X0.185000X-0.135000X0.185000X0.135000X-0.185000X0.135000X-0.185000X-0.135000X0*%
G04 #@! TD*
G04 #@! TA.AperFunction,SMDPad,CuDef*
%ADD28RoundRect,0.140000X0.140000X0.170000X-0.140000X0.170000X-0.140000X-0.170000X0.140000X-0.170000X0*%
G04 #@! TD*
G04 #@! TA.AperFunction,SMDPad,CuDef*
%ADD29RoundRect,0.140000X0.170000X-0.140000X0.170000X0.140000X-0.170000X0.140000X-0.170000X-0.140000X0*%
G04 #@! TD*
G04 #@! TA.AperFunction,SMDPad,CuDef*
%ADD30R,1.600000X1.300000*%
G04 #@! TD*
G04 #@! TA.AperFunction,SMDPad,CuDef*
%ADD31RoundRect,0.147500X0.147500X0.172500X-0.147500X0.172500X-0.147500X-0.172500X0.147500X-0.172500X0*%
G04 #@! TD*
G04 #@! TA.AperFunction,SMDPad,CuDef*
%ADD32RoundRect,0.135000X-0.185000X0.135000X-0.185000X-0.135000X0.185000X-0.135000X0.185000X0.135000X0*%
G04 #@! TD*
G04 #@! TA.AperFunction,SMDPad,CuDef*
%ADD33C,0.500000*%
G04 #@! TD*
G04 #@! TA.AperFunction,ViaPad*
%ADD34C,0.600000*%
G04 #@! TD*
G04 #@! TA.AperFunction,Conductor*
%ADD35C,0.400000*%
G04 #@! TD*
G04 #@! TA.AperFunction,Conductor*
%ADD36C,0.200000*%
G04 #@! TD*
G04 #@! TA.AperFunction,Conductor*
%ADD37C,0.160000*%
G04 #@! TD*
G04 APERTURE END LIST*
D10*
X136000000Y-123750000D03*
X136000000Y-100250000D03*
D11*
X143810000Y-108400000D03*
D12*
X144460000Y-109200000D03*
X144460000Y-110800000D03*
X144460000Y-111600000D03*
X144460000Y-112400000D03*
X144460000Y-113200000D03*
X145170000Y-112800000D03*
X144460000Y-114800000D03*
D13*
X145060000Y-107870000D03*
X149450000Y-107510000D03*
X149450000Y-116490000D03*
X145060000Y-116130000D03*
D14*
X143150000Y-109250000D03*
X143150000Y-110750000D03*
X143150000Y-111250000D03*
X143150000Y-111750000D03*
X143150000Y-112250000D03*
X143150000Y-113250000D03*
X143150000Y-114750000D03*
D15*
X144610000Y-117900000D03*
X143590000Y-117900000D03*
D16*
X144610000Y-106100000D03*
X143590000Y-106100000D03*
D17*
X130400000Y-110000000D03*
D18*
X133000000Y-106565000D03*
X132600000Y-106565000D03*
X132200000Y-106565000D03*
X131800000Y-106565000D03*
X131400000Y-106565000D03*
X131000000Y-106565000D03*
X130600000Y-106565000D03*
X130200000Y-106565000D03*
X129800000Y-106565000D03*
X129400000Y-106565000D03*
X129000000Y-106565000D03*
X128600000Y-106565000D03*
X128200000Y-106565000D03*
X127800000Y-106565000D03*
X127800000Y-113435000D03*
X128200000Y-113435000D03*
X128600000Y-113435000D03*
X129000000Y-113435000D03*
X129400000Y-113435000D03*
X129800000Y-113435000D03*
X130200000Y-113435000D03*
X130600000Y-113435000D03*
X131000000Y-113435000D03*
X131400000Y-113435000D03*
X131800000Y-113435000D03*
X132200000Y-113435000D03*
X132600000Y-113435000D03*
X133000000Y-113435000D03*
D19*
X133835000Y-112600000D03*
X133835000Y-112200000D03*
X133835000Y-111800000D03*
X133835000Y-111400000D03*
X133835000Y-111000000D03*
X133835000Y-110600000D03*
X133835000Y-110200000D03*
X133835000Y-109800000D03*
X133835000Y-109400000D03*
X133835000Y-109000000D03*
X133835000Y-108600000D03*
X133835000Y-108200000D03*
X133835000Y-107800000D03*
X133835000Y-107400000D03*
X126965000Y-107400000D03*
X126965000Y-107800000D03*
X126965000Y-108200000D03*
X126965000Y-108600000D03*
X126965000Y-109000000D03*
X126965000Y-109400000D03*
X126965000Y-109800000D03*
X126965000Y-110200000D03*
X126965000Y-110600000D03*
X126965000Y-111000000D03*
X126965000Y-111400000D03*
X126965000Y-111800000D03*
X126965000Y-112200000D03*
X126965000Y-112600000D03*
D20*
X121512500Y-111343750D03*
D21*
X122752000Y-111162500D03*
X123574000Y-111162500D03*
X122752000Y-112837500D03*
X123574000Y-112837500D03*
D22*
X135400000Y-116200000D03*
D23*
X136150000Y-114980000D03*
X135650000Y-114980000D03*
X135150000Y-114980000D03*
X134650000Y-114980000D03*
X134650000Y-117420000D03*
X135150000Y-117420000D03*
X135650000Y-117420000D03*
X136150000Y-117420000D03*
D24*
X138800000Y-113400000D03*
X137850000Y-115400000D03*
X139750000Y-115400000D03*
D25*
X139080000Y-118000000D03*
X138120000Y-118000000D03*
D26*
X129400000Y-117520000D03*
X129400000Y-118480000D03*
D15*
X131510000Y-105250000D03*
X130490000Y-105250000D03*
D27*
X122400000Y-108890000D03*
X122400000Y-109910000D03*
D28*
X124880000Y-109800000D03*
X123920000Y-109800000D03*
D26*
X129400000Y-116280000D03*
X129400000Y-115320000D03*
D15*
X137310000Y-119200000D03*
X136290000Y-119200000D03*
D25*
X138120000Y-106500000D03*
X139080000Y-106500000D03*
D26*
X132800000Y-115320000D03*
X132800000Y-116280000D03*
D28*
X124880000Y-108800000D03*
X123920000Y-108800000D03*
D16*
X138090000Y-108900000D03*
X139110000Y-108900000D03*
D15*
X125310000Y-114200000D03*
X124290000Y-114200000D03*
D28*
X127720000Y-105250000D03*
X128680000Y-105250000D03*
X139080000Y-112000000D03*
X138120000Y-112000000D03*
D29*
X124800000Y-107680000D03*
X124800000Y-106720000D03*
D25*
X135920000Y-105250000D03*
X136880000Y-105250000D03*
X138120000Y-105250000D03*
X139080000Y-105250000D03*
D30*
X124350000Y-118000000D03*
X127650000Y-118000000D03*
X127650000Y-116000000D03*
X124350000Y-116000000D03*
D26*
X122400000Y-107680000D03*
X122400000Y-106720000D03*
X123600000Y-107680000D03*
X123600000Y-106720000D03*
D25*
X137280000Y-111000000D03*
X136320000Y-111000000D03*
D26*
X131000000Y-116280000D03*
X131000000Y-115320000D03*
D25*
X137280000Y-109900000D03*
X136320000Y-109900000D03*
D15*
X133890000Y-119200000D03*
X134910000Y-119200000D03*
D31*
X133115000Y-105250000D03*
X134085000Y-105250000D03*
D16*
X139110000Y-107700000D03*
X138090000Y-107700000D03*
D32*
X121200000Y-108890000D03*
X121200000Y-109910000D03*
D25*
X139080000Y-116800000D03*
X138120000Y-116800000D03*
D29*
X122400000Y-115720000D03*
X122400000Y-116680000D03*
D33*
X141000000Y-118000000D03*
X141000000Y-106000000D03*
X131200000Y-119000000D03*
D34*
X126750000Y-113750000D03*
X137000000Y-114500000D03*
X132500000Y-112000000D03*
X141300000Y-111200000D03*
X141400000Y-114800000D03*
X139000000Y-111000000D03*
X131400000Y-111000000D03*
X131400000Y-109000000D03*
X129400000Y-109000000D03*
X130400000Y-110000000D03*
X125650000Y-119000000D03*
X130150000Y-117500000D03*
X123400000Y-106000000D03*
X134900000Y-105250000D03*
X122150000Y-108500000D03*
X123920000Y-109480000D03*
X127000000Y-106650000D03*
X138025000Y-110125000D03*
X121650000Y-110750000D03*
X121500000Y-115800000D03*
X129400000Y-111000000D03*
X137000000Y-104600000D03*
X134250000Y-117600000D03*
X139800000Y-107000000D03*
X135900000Y-109750000D03*
X124650000Y-111000000D03*
X131907866Y-115580000D03*
X137400000Y-116600000D03*
X136400000Y-106000000D03*
X124400000Y-108000000D03*
X125579045Y-109421610D03*
X135623025Y-110626975D03*
X135500000Y-107250000D03*
X124390000Y-105200000D03*
X125660000Y-105200000D03*
X120650000Y-110500000D03*
X121900000Y-114600000D03*
X133000000Y-119200000D03*
X129150000Y-104500000D03*
X132200000Y-114600000D03*
X124400000Y-113000000D03*
X131000000Y-114400000D03*
X124600000Y-112000000D03*
D35*
X127000000Y-106650000D02*
X127000000Y-105600000D01*
X127000000Y-105600000D02*
X127350000Y-105250000D01*
X127350000Y-105250000D02*
X127720000Y-105250000D01*
D36*
X135500000Y-107250000D02*
X136950000Y-107250000D01*
X136950000Y-107250000D02*
X137700000Y-106500000D01*
X135500000Y-107700000D02*
X135000000Y-108200000D01*
X135500000Y-107250000D02*
X135500000Y-107700000D01*
X135000000Y-108200000D02*
X133835000Y-108200000D01*
X137700000Y-106500000D02*
X138120000Y-106500000D01*
D37*
X124390000Y-105200000D02*
X125469989Y-106279989D01*
X126387000Y-108887000D02*
X126500000Y-109000000D01*
X125469989Y-106279989D02*
X125469989Y-108342575D01*
X126014414Y-108887000D02*
X126387000Y-108887000D01*
X125469989Y-108342575D02*
X126014414Y-108887000D01*
X126500000Y-109000000D02*
X126965000Y-109000000D01*
X125600655Y-109400000D02*
X126965000Y-109400000D01*
X125579045Y-109421610D02*
X125600655Y-109400000D01*
X124880000Y-110000000D02*
X125130000Y-110250000D01*
X125130000Y-110250000D02*
X125500000Y-110250000D01*
X125500000Y-110250000D02*
X125770000Y-109980000D01*
X125770000Y-109980000D02*
X125840244Y-109980000D01*
X125840244Y-109980000D02*
X126020244Y-109800000D01*
X126020244Y-109800000D02*
X126965000Y-109800000D01*
X125080000Y-110000000D02*
X125080000Y-110080000D01*
D36*
X141800000Y-112654000D02*
X143868448Y-112654000D01*
X143868448Y-112654000D02*
X144122448Y-112400000D01*
X144122448Y-112400000D02*
X144460000Y-112400000D01*
D37*
X126965000Y-108200000D02*
X126400000Y-108200000D01*
X126400000Y-108200000D02*
X126200000Y-108000000D01*
X126200000Y-108000000D02*
X126200000Y-105700000D01*
X126200000Y-105700000D02*
X127500000Y-104400000D01*
X127500000Y-104400000D02*
X128000000Y-104400000D01*
D35*
X131647866Y-115320000D02*
X131000000Y-115320000D01*
X131907866Y-115580000D02*
X131647866Y-115320000D01*
X132167866Y-115320000D02*
X132800000Y-115320000D01*
X131907866Y-115580000D02*
X132167866Y-115320000D01*
D37*
X133835000Y-112200000D02*
X134339280Y-112200000D01*
X133638987Y-117170689D02*
X133638987Y-117838987D01*
X134339280Y-112200000D02*
X134560011Y-112420731D01*
X134560011Y-112420731D02*
X134560011Y-113395911D01*
X133638987Y-117838987D02*
X134000000Y-118200000D01*
X134560011Y-113395911D02*
X133750000Y-114205922D01*
X133750000Y-114205922D02*
X133750000Y-117059676D01*
X133750000Y-117059676D02*
X133638987Y-117170689D01*
X134250000Y-117600000D02*
X134430000Y-117420000D01*
X134430000Y-117420000D02*
X134650000Y-117420000D01*
D36*
X135196050Y-110200000D02*
X133835000Y-110200000D01*
X135623025Y-110626975D02*
X135196050Y-110200000D01*
X135623025Y-110626975D02*
X135623025Y-110823025D01*
X135623025Y-110823025D02*
X136000000Y-111200000D01*
X136000000Y-111200000D02*
X136320000Y-111200000D01*
D35*
X137700000Y-114500000D02*
X138800000Y-113400000D01*
X137000000Y-114500000D02*
X137700000Y-114500000D01*
D36*
X132500000Y-112000000D02*
X131159136Y-112000000D01*
X131159136Y-112000000D02*
X130200000Y-112959136D01*
X130200000Y-112959136D02*
X130200000Y-113435000D01*
X143590000Y-117900000D02*
X143590000Y-116990000D01*
X143590000Y-116990000D02*
X141400000Y-114800000D01*
X141300000Y-111200000D02*
X143100000Y-111200000D01*
X143100000Y-111200000D02*
X143150000Y-111250000D01*
D35*
X144460000Y-110800000D02*
X144406000Y-110746000D01*
X144406000Y-110746000D02*
X143150000Y-110746000D01*
X143150000Y-113250000D02*
X144410000Y-113250000D01*
X144410000Y-113250000D02*
X144460000Y-113200000D01*
X138800000Y-113400000D02*
X143000000Y-113400000D01*
X143000000Y-113400000D02*
X143150000Y-113250000D01*
D36*
X143590000Y-106100000D02*
X144390000Y-106900000D01*
X144390000Y-106900000D02*
X145600000Y-106900000D01*
X145600000Y-106900000D02*
X146400000Y-107700000D01*
X146400000Y-107700000D02*
X146400000Y-111570000D01*
X146400000Y-111570000D02*
X145170000Y-112800000D01*
X140745838Y-112654000D02*
X141800000Y-112654000D01*
X141800000Y-112654000D02*
X141800000Y-112300000D01*
X141800000Y-112300000D02*
X142350000Y-111750000D01*
X142350000Y-111750000D02*
X143150000Y-111750000D01*
X139110000Y-107700000D02*
X139485000Y-108075000D01*
X145400000Y-111100000D02*
X144900000Y-111600000D01*
X139485000Y-108075000D02*
X139842717Y-108075000D01*
X140425000Y-108657283D02*
X140425000Y-110025000D01*
X139842717Y-108075000D02*
X140425000Y-108657283D01*
X140425000Y-110025000D02*
X140500000Y-110100000D01*
X140500000Y-110100000D02*
X145000000Y-110100000D01*
X145000000Y-110100000D02*
X145400000Y-110500000D01*
X145400000Y-110500000D02*
X145400000Y-111100000D01*
X144900000Y-111600000D02*
X144460000Y-111600000D01*
X139110000Y-108900000D02*
X139485000Y-108525000D01*
X139485000Y-108525000D02*
X139656317Y-108525000D01*
X139656317Y-108525000D02*
X139975000Y-108843683D01*
X139975000Y-108843683D02*
X139975000Y-111883162D01*
X139975000Y-111883162D02*
X140745838Y-112654000D01*
X143150000Y-112250000D02*
X143810000Y-112250000D01*
X143810000Y-112250000D02*
X144460000Y-111600000D01*
D35*
X139080000Y-111080000D02*
X139000000Y-111000000D01*
X139080000Y-112000000D02*
X139080000Y-111080000D01*
X138800000Y-113400000D02*
X138800000Y-113000000D01*
X139080000Y-112720000D02*
X139080000Y-112000000D01*
X138800000Y-113000000D02*
X139080000Y-112720000D01*
X124350000Y-118000000D02*
X123150000Y-118000000D01*
X122400000Y-117250000D02*
X122400000Y-116680000D01*
X123150000Y-118000000D02*
X122400000Y-117250000D01*
X124350000Y-118000000D02*
X125150000Y-118000000D01*
X125650000Y-118500000D02*
X125650000Y-119000000D01*
X125150000Y-118000000D02*
X125650000Y-118500000D01*
X130130000Y-117520000D02*
X130150000Y-117500000D01*
X129400000Y-117520000D02*
X130130000Y-117520000D01*
X123920000Y-108800000D02*
X123920000Y-109480000D01*
X122400000Y-106720000D02*
X124800000Y-106720000D01*
X123600000Y-106200000D02*
X123400000Y-106000000D01*
X123600000Y-106720000D02*
X123600000Y-106200000D01*
D36*
X122400000Y-108750000D02*
X122150000Y-108500000D01*
X122400000Y-108890000D02*
X122400000Y-108750000D01*
X129400000Y-111000000D02*
X130400000Y-110000000D01*
X126965000Y-111000000D02*
X129400000Y-111000000D01*
D35*
X138025000Y-110125000D02*
X137900000Y-110000000D01*
X122400000Y-116680000D02*
X121980000Y-116680000D01*
X121500000Y-116200000D02*
X121500000Y-115800000D01*
X121980000Y-116680000D02*
X121500000Y-116200000D01*
X136880000Y-104720000D02*
X137000000Y-104600000D01*
X136880000Y-105250000D02*
X136880000Y-104720000D01*
X123920000Y-109480000D02*
X123920000Y-109800000D01*
X129400000Y-116280000D02*
X131000000Y-116280000D01*
X132800000Y-116280000D02*
X131000000Y-116280000D01*
X127650000Y-116000000D02*
X128400000Y-116000000D01*
X128680000Y-116280000D02*
X129400000Y-116280000D01*
X128400000Y-116000000D02*
X128680000Y-116280000D01*
X139080000Y-105250000D02*
X139080000Y-106500000D01*
X139800000Y-107000000D02*
X139800000Y-106600000D01*
X139700000Y-106500000D02*
X139800000Y-106600000D01*
X139080000Y-106500000D02*
X139700000Y-106500000D01*
X137800000Y-109900000D02*
X138025000Y-110125000D01*
X137280000Y-109900000D02*
X137800000Y-109900000D01*
X137280000Y-109900000D02*
X137280000Y-111000000D01*
D36*
X121512500Y-110887500D02*
X121650000Y-110750000D01*
X121512500Y-111343750D02*
X121512500Y-110887500D01*
X134085000Y-105250000D02*
X134900000Y-105250000D01*
D37*
X133835000Y-107400000D02*
X134400000Y-107400000D01*
X134400000Y-107400000D02*
X134600000Y-107200000D01*
X134600000Y-107200000D02*
X134600000Y-106800000D01*
X134600000Y-106800000D02*
X134800000Y-106600000D01*
X133835000Y-107800000D02*
X134400000Y-107800000D01*
X134600000Y-107600000D02*
X134600000Y-107200000D01*
X134400000Y-107800000D02*
X134600000Y-107600000D01*
X124880000Y-110000000D02*
X124880000Y-108800000D01*
X133000000Y-115120000D02*
X132800000Y-115320000D01*
X133000000Y-113435000D02*
X133000000Y-115120000D01*
X129400000Y-115320000D02*
X129400000Y-113435000D01*
D36*
X122400000Y-107680000D02*
X123600000Y-107680000D01*
X123600000Y-107680000D02*
X123600000Y-107800000D01*
X123600000Y-107800000D02*
X123200000Y-108200000D01*
X123200000Y-108200000D02*
X123200000Y-110400000D01*
X123561400Y-110761400D02*
X123561400Y-111162253D01*
X123200000Y-110400000D02*
X123561400Y-110761400D01*
X121200000Y-108890000D02*
X121200000Y-108200000D01*
X121720000Y-107680000D02*
X122400000Y-107680000D01*
X121200000Y-108200000D02*
X121720000Y-107680000D01*
X136900000Y-116500000D02*
X136900000Y-115250000D01*
X136900000Y-115250000D02*
X136630000Y-114980000D01*
X136630000Y-114980000D02*
X136350000Y-114980000D01*
X133835000Y-109400000D02*
X134550000Y-109400000D01*
X134550000Y-109400000D02*
X134950000Y-109800000D01*
X134235000Y-109800000D02*
X134950000Y-109800000D01*
X135850000Y-109800000D02*
X135900000Y-109750000D01*
X135200000Y-109800000D02*
X135850000Y-109800000D01*
X134950000Y-109800000D02*
X135200000Y-109800000D01*
X136150000Y-110000000D02*
X135900000Y-109750000D01*
X136320000Y-110000000D02*
X136150000Y-110000000D01*
X129400000Y-106565000D02*
X129400000Y-105750000D01*
X128900000Y-105250000D02*
X128680000Y-105250000D01*
X129400000Y-105750000D02*
X128900000Y-105250000D01*
X135920000Y-104770000D02*
X135650000Y-104500000D01*
D35*
X124880000Y-110770000D02*
X124650000Y-111000000D01*
X124880000Y-110000000D02*
X124880000Y-110770000D01*
X124487747Y-111162253D02*
X124650000Y-111000000D01*
X123561400Y-111162253D02*
X124487747Y-111162253D01*
D36*
X128680000Y-105250000D02*
X129650000Y-105250000D01*
X129650000Y-105250000D02*
X129900000Y-105000000D01*
X129900000Y-104750000D02*
X130150000Y-104500000D01*
X129900000Y-105000000D02*
X129900000Y-104750000D01*
X130150000Y-104500000D02*
X135650000Y-104500000D01*
X135920000Y-105250000D02*
X135920000Y-104770000D01*
X136150000Y-114980000D02*
X136630000Y-114980000D01*
X136900000Y-117100000D02*
X136900000Y-116500000D01*
D35*
X129400000Y-115320000D02*
X131000000Y-115320000D01*
D37*
X134800000Y-106600000D02*
X135600000Y-106600000D01*
D36*
X138120000Y-118000000D02*
X137200000Y-118000000D01*
X136900000Y-117700000D02*
X136900000Y-117100000D01*
X137200000Y-118000000D02*
X136900000Y-117700000D01*
D35*
X138120000Y-116800000D02*
X138120000Y-118000000D01*
X137310000Y-119200000D02*
X137600000Y-119200000D01*
X138120000Y-118680000D02*
X138120000Y-118000000D01*
X137600000Y-119200000D02*
X138120000Y-118680000D01*
X138120000Y-116800000D02*
X138120000Y-116520000D01*
X137850000Y-116250000D02*
X137850000Y-115400000D01*
X138120000Y-116520000D02*
X137850000Y-116250000D01*
X137400000Y-116600000D02*
X137600000Y-116800000D01*
X137600000Y-116800000D02*
X138120000Y-116800000D01*
D36*
X133400000Y-106000000D02*
X133000000Y-106400000D01*
X135400000Y-106000000D02*
X133400000Y-106000000D01*
X133000000Y-106400000D02*
X133000000Y-106565000D01*
X136400000Y-106400000D02*
X136200000Y-106600000D01*
X136400000Y-106000000D02*
X136400000Y-106400000D01*
X136200000Y-106600000D02*
X135600000Y-106600000D01*
X136800000Y-106600000D02*
X136200000Y-106600000D01*
X135920000Y-105520000D02*
X136400000Y-106000000D01*
X135920000Y-105250000D02*
X135920000Y-105520000D01*
X135920000Y-105480000D02*
X135500000Y-105900000D01*
X135500000Y-105900000D02*
X135400000Y-106000000D01*
X135920000Y-105250000D02*
X135920000Y-105480000D01*
X135670000Y-105730000D02*
X135500000Y-105900000D01*
X138120000Y-105250000D02*
X137750000Y-105250000D01*
X137500000Y-105500000D02*
X137500000Y-105900000D01*
X137750000Y-105250000D02*
X137500000Y-105500000D01*
X137500000Y-105900000D02*
X136800000Y-106600000D01*
D35*
X136050000Y-109900000D02*
X135900000Y-109750000D01*
X136320000Y-109900000D02*
X136050000Y-109900000D01*
D36*
X124720000Y-107680000D02*
X124400000Y-108000000D01*
X124800000Y-107680000D02*
X124720000Y-107680000D01*
D37*
X126000000Y-117400000D02*
X126200000Y-117600000D01*
X126600000Y-118000000D02*
X126000000Y-117400000D01*
X127650000Y-118000000D02*
X126600000Y-118000000D01*
X129400000Y-118480000D02*
X128880000Y-118480000D01*
X128400000Y-118000000D02*
X127650000Y-118000000D01*
X128880000Y-118480000D02*
X128400000Y-118000000D01*
X126965000Y-110600000D02*
X126333412Y-110600000D01*
X126333412Y-110600000D02*
X126000000Y-110933412D01*
X126000000Y-110933412D02*
X126000000Y-117400000D01*
X124350000Y-116000000D02*
X123200000Y-116000000D01*
X122920000Y-115720000D02*
X122400000Y-115720000D01*
X123200000Y-116000000D02*
X122920000Y-115720000D01*
X124350000Y-114950000D02*
X124350000Y-116000000D01*
X124290000Y-114890000D02*
X124350000Y-114950000D01*
X124290000Y-114200000D02*
X124290000Y-114890000D01*
D36*
X131510000Y-105250000D02*
X133115000Y-105250000D01*
D37*
X125800000Y-108266706D02*
X125800000Y-105340000D01*
X126965000Y-108600000D02*
X126133294Y-108600000D01*
X126133294Y-108600000D02*
X125800000Y-108266706D01*
X125800000Y-105340000D02*
X125660000Y-105200000D01*
D36*
X122400000Y-109910000D02*
X121200000Y-109910000D01*
X121200000Y-109950000D02*
X120650000Y-110500000D01*
X121200000Y-109910000D02*
X121200000Y-109950000D01*
D37*
X121900000Y-114600000D02*
X122500000Y-114600000D01*
X122739400Y-114360600D02*
X122739400Y-113660600D01*
X122500000Y-114600000D02*
X122739400Y-114360600D01*
X122739400Y-112837747D02*
X122739400Y-113660600D01*
D36*
X133890000Y-119200000D02*
X133000000Y-119200000D01*
D37*
X134910000Y-119200000D02*
X136290000Y-119200000D01*
X136150000Y-118170000D02*
X136290000Y-118310000D01*
X136150000Y-117420000D02*
X136150000Y-118170000D01*
X136290000Y-119200000D02*
X136290000Y-118310000D01*
X134310000Y-118600000D02*
X134910000Y-119200000D01*
X133800000Y-118600000D02*
X134310000Y-118600000D01*
X133351987Y-118151987D02*
X133800000Y-118600000D01*
X133351987Y-113083013D02*
X133351987Y-118151987D01*
X133835000Y-112600000D02*
X133351987Y-113083013D01*
X131000000Y-106565000D02*
X131000000Y-105800000D01*
D36*
X131000000Y-105760000D02*
X130490000Y-105250000D01*
X131000000Y-106565000D02*
X131000000Y-105760000D01*
D37*
X126266706Y-110200000D02*
X125310000Y-111156706D01*
X126965000Y-110200000D02*
X126266706Y-110200000D01*
X125310000Y-114200000D02*
X125310000Y-113690000D01*
X125310000Y-113690000D02*
X125310000Y-114000000D01*
X125310000Y-111156706D02*
X125310000Y-113690000D01*
X129050000Y-104400000D02*
X129150000Y-104500000D01*
X127750000Y-104400000D02*
X129050000Y-104400000D01*
X128000000Y-104400000D02*
X127750000Y-104400000D01*
X129000000Y-104400000D02*
X128000000Y-104400000D01*
X131800000Y-114200000D02*
X131800000Y-113435000D01*
X132200000Y-114600000D02*
X131800000Y-114200000D01*
X124237747Y-112837747D02*
X124400000Y-113000000D01*
X123561400Y-112837747D02*
X124237747Y-112837747D01*
X131400000Y-114000000D02*
X131000000Y-114400000D01*
X131400000Y-113435000D02*
X131400000Y-114000000D01*
X122752000Y-111162500D02*
X122752000Y-111752000D01*
X123000000Y-112000000D02*
X124600000Y-112000000D01*
X122752000Y-111752000D02*
X123000000Y-112000000D01*
D36*
X134000000Y-118200000D02*
X135600000Y-118200000D01*
X135684010Y-117558351D02*
X135684010Y-117420000D01*
X135650000Y-117592361D02*
X135684010Y-117558351D01*
X135650000Y-118150000D02*
X135650000Y-117592361D01*
X135600000Y-118200000D02*
X135650000Y-118150000D01*
D37*
X135150000Y-116750000D02*
X135150000Y-117420000D01*
X135000000Y-116600000D02*
X135150000Y-116750000D01*
X134478798Y-116600000D02*
X135000000Y-116600000D01*
X134200000Y-116321202D02*
X134478798Y-116600000D01*
X134200000Y-114400000D02*
X134200000Y-116321202D01*
X134920021Y-113679979D02*
X134200000Y-114400000D01*
X134920021Y-112271609D02*
X134920021Y-113679979D01*
X134448412Y-111800000D02*
X134920021Y-112271609D01*
X133835000Y-111800000D02*
X134448412Y-111800000D01*
X133835000Y-111400000D02*
X134557542Y-111400000D01*
X134557542Y-111400000D02*
X135280031Y-112122489D01*
X135280031Y-113944969D02*
X135280031Y-113719969D01*
X134650000Y-114575000D02*
X135280031Y-113944969D01*
X134650000Y-114980000D02*
X134650000Y-114575000D01*
X135280031Y-112122489D02*
X135280031Y-113719969D01*
X134666673Y-111000000D02*
X133835000Y-111000000D01*
X135640041Y-111973368D02*
X134666673Y-111000000D01*
X135150000Y-114575000D02*
X135640041Y-114084959D01*
X135640041Y-114084959D02*
X135640041Y-113959959D01*
X135150000Y-114980000D02*
X135150000Y-114575000D01*
X135640041Y-113959959D02*
X135640041Y-111973368D01*
X134775804Y-110600000D02*
X136000051Y-111824247D01*
X133835000Y-110600000D02*
X134775804Y-110600000D01*
X136000051Y-114224949D02*
X136000051Y-114199949D01*
X135650000Y-114575000D02*
X136000051Y-114224949D01*
X135650000Y-114980000D02*
X135650000Y-114575000D01*
X136000051Y-111824247D02*
X136000051Y-114199949D01*
D36*
X135306800Y-108575000D02*
X133860000Y-108575000D01*
X133860000Y-108575000D02*
X133835000Y-108600000D01*
X135806800Y-108075000D02*
X135306800Y-108575000D01*
X138090000Y-107700000D02*
X137715000Y-108075000D01*
X137715000Y-108075000D02*
X135806800Y-108075000D01*
X135993200Y-108525000D02*
X135493200Y-109025000D01*
X133860000Y-109025000D02*
X133835000Y-109000000D01*
X135493200Y-109025000D02*
X133860000Y-109025000D01*
X137715000Y-108525000D02*
X135993200Y-108525000D01*
X138090000Y-108900000D02*
X137715000Y-108525000D01*
G04 #@! TA.AperFunction,Conductor*
G36*
X136384733Y-96294400D02*
G01*
X136394373Y-96295350D01*
X136770582Y-96351156D01*
X136780088Y-96353046D01*
X137149029Y-96445462D01*
X137158300Y-96448274D01*
X137516399Y-96576403D01*
X137525368Y-96580118D01*
X137869176Y-96742727D01*
X137877739Y-96747305D01*
X138203938Y-96942821D01*
X138212016Y-96948218D01*
X138517493Y-97174775D01*
X138525000Y-97180937D01*
X138806797Y-97436342D01*
X138813657Y-97443202D01*
X139069060Y-97724996D01*
X139075224Y-97732506D01*
X139301781Y-98037983D01*
X139307178Y-98046061D01*
X139502694Y-98372260D01*
X139507274Y-98380828D01*
X139669879Y-98724628D01*
X139673597Y-98733604D01*
X139801721Y-99091686D01*
X139804541Y-99100983D01*
X139896950Y-99469900D01*
X139898845Y-99479429D01*
X139954647Y-99855612D01*
X139955600Y-99865280D01*
X139974381Y-100247577D01*
X139974500Y-100252435D01*
X139974500Y-104491715D01*
X139974500Y-104500000D01*
X139974500Y-104559210D01*
X139977510Y-104572396D01*
X140000849Y-104674655D01*
X140000850Y-104674658D01*
X140000851Y-104674660D01*
X140010181Y-104694034D01*
X140052229Y-104781351D01*
X140122603Y-104869596D01*
X140126064Y-104873936D01*
X140135780Y-104881684D01*
X140218648Y-104947770D01*
X140269793Y-104972399D01*
X140325340Y-104999149D01*
X140325343Y-104999149D01*
X140325344Y-104999150D01*
X140351290Y-105005072D01*
X140440790Y-105025500D01*
X140494928Y-105025500D01*
X150625500Y-105025500D01*
X150683691Y-105044407D01*
X150719655Y-105093907D01*
X150724500Y-105124500D01*
X150724500Y-107062065D01*
X150705593Y-107120256D01*
X150656093Y-107156220D01*
X150594907Y-107156220D01*
X150545407Y-107120256D01*
X150535059Y-107102332D01*
X150518916Y-107066074D01*
X150518914Y-107066071D01*
X150409811Y-106915903D01*
X150271869Y-106791701D01*
X150111136Y-106698900D01*
X150111131Y-106698898D01*
X149934598Y-106641538D01*
X149796279Y-106627000D01*
X149704001Y-106627000D01*
X149704000Y-106627001D01*
X149704000Y-107259988D01*
X149125389Y-107259988D01*
X149052463Y-107274494D01*
X148969764Y-107329751D01*
X148914507Y-107412450D01*
X148895103Y-107510000D01*
X148914507Y-107607550D01*
X148969764Y-107690249D01*
X149052463Y-107745506D01*
X149125389Y-107760012D01*
X149704000Y-107760012D01*
X149704000Y-108392999D01*
X149704001Y-108393000D01*
X149796275Y-108393000D01*
X149796279Y-108392999D01*
X149934598Y-108378461D01*
X150111131Y-108321101D01*
X150111136Y-108321099D01*
X150271869Y-108228298D01*
X150409811Y-108104096D01*
X150518914Y-107953928D01*
X150518918Y-107953922D01*
X150535059Y-107917668D01*
X150575999Y-107872198D01*
X150635847Y-107859476D01*
X150691743Y-107884362D01*
X150722336Y-107937350D01*
X150724500Y-107957934D01*
X150724500Y-116042065D01*
X150705593Y-116100256D01*
X150656093Y-116136220D01*
X150594907Y-116136220D01*
X150545407Y-116100256D01*
X150535059Y-116082332D01*
X150518916Y-116046074D01*
X150518914Y-116046071D01*
X150409811Y-115895903D01*
X150271869Y-115771701D01*
X150111136Y-115678900D01*
X150111131Y-115678898D01*
X149934598Y-115621538D01*
X149796279Y-115607000D01*
X149704001Y-115607000D01*
X149704000Y-115607001D01*
X149704000Y-116239988D01*
X149125389Y-116239988D01*
X149052463Y-116254494D01*
X148969764Y-116309751D01*
X148914507Y-116392450D01*
X148895103Y-116490000D01*
X148914507Y-116587550D01*
X148969764Y-116670249D01*
X149052463Y-116725506D01*
X149125389Y-116740012D01*
X149704000Y-116740012D01*
X149704000Y-117372999D01*
X149704001Y-117373000D01*
X149796275Y-117373000D01*
X149796279Y-117372999D01*
X149934598Y-117358461D01*
X150111131Y-117301101D01*
X150111136Y-117301099D01*
X150271869Y-117208298D01*
X150409811Y-117084096D01*
X150518914Y-116933928D01*
X150518918Y-116933922D01*
X150535059Y-116897668D01*
X150575999Y-116852198D01*
X150635847Y-116839476D01*
X150691743Y-116864362D01*
X150722336Y-116917350D01*
X150724500Y-116937934D01*
X150724500Y-118875500D01*
X150705593Y-118933691D01*
X150656093Y-118969655D01*
X150625500Y-118974500D01*
X140508285Y-118974500D01*
X140500000Y-118974500D01*
X140440790Y-118974500D01*
X140435603Y-118975684D01*
X140325344Y-119000849D01*
X140325338Y-119000852D01*
X140218648Y-119052229D01*
X140126068Y-119126060D01*
X140126060Y-119126068D01*
X140052229Y-119218648D01*
X140000852Y-119325338D01*
X140000849Y-119325344D01*
X139974500Y-119440791D01*
X139974500Y-123747564D01*
X139974381Y-123752422D01*
X139955600Y-124134719D01*
X139954647Y-124144387D01*
X139898845Y-124520570D01*
X139896950Y-124530099D01*
X139804541Y-124899016D01*
X139801721Y-124908313D01*
X139673597Y-125266395D01*
X139669879Y-125275371D01*
X139507274Y-125619171D01*
X139502694Y-125627739D01*
X139307178Y-125953938D01*
X139301781Y-125962016D01*
X139075224Y-126267493D01*
X139069060Y-126275003D01*
X138813662Y-126556792D01*
X138806792Y-126563662D01*
X138525003Y-126819060D01*
X138517493Y-126825224D01*
X138212016Y-127051781D01*
X138203938Y-127057178D01*
X137877739Y-127252694D01*
X137869171Y-127257274D01*
X137525371Y-127419879D01*
X137516395Y-127423597D01*
X137158313Y-127551721D01*
X137149016Y-127554541D01*
X136780099Y-127646950D01*
X136770570Y-127648845D01*
X136394387Y-127704647D01*
X136384719Y-127705600D01*
X136004858Y-127724261D01*
X135995142Y-127724261D01*
X135615280Y-127705600D01*
X135605612Y-127704647D01*
X135229429Y-127648845D01*
X135219900Y-127646950D01*
X134850983Y-127554541D01*
X134841686Y-127551721D01*
X134483604Y-127423597D01*
X134474628Y-127419879D01*
X134130828Y-127257274D01*
X134122260Y-127252694D01*
X133796061Y-127057178D01*
X133787983Y-127051781D01*
X133482506Y-126825224D01*
X133474996Y-126819060D01*
X133193207Y-126563662D01*
X133186342Y-126556797D01*
X132930937Y-126275000D01*
X132924775Y-126267493D01*
X132865752Y-126187910D01*
X132698218Y-125962016D01*
X132692821Y-125953938D01*
X132497305Y-125627739D01*
X132492725Y-125619171D01*
X132486756Y-125606551D01*
X132330118Y-125275368D01*
X132326402Y-125266395D01*
X132248413Y-125048430D01*
X132198274Y-124908300D01*
X132195462Y-124899029D01*
X132103046Y-124530088D01*
X132101156Y-124520582D01*
X132045350Y-124144373D01*
X132044400Y-124134731D01*
X132025619Y-123752421D01*
X132025560Y-123750006D01*
X132286911Y-123750006D01*
X132307250Y-124138106D01*
X132307253Y-124138134D01*
X132368049Y-124521990D01*
X132368050Y-124521992D01*
X132468642Y-124897405D01*
X132468649Y-124897428D01*
X132607922Y-125260246D01*
X132784368Y-125606540D01*
X132784374Y-125606551D01*
X132996050Y-125932501D01*
X133202876Y-126187910D01*
X134699993Y-124690792D01*
X134701570Y-124693365D01*
X134865130Y-124884870D01*
X135056635Y-125048430D01*
X135059205Y-125050004D01*
X133562088Y-126547122D01*
X133817498Y-126753949D01*
X134143448Y-126965625D01*
X134143459Y-126965631D01*
X134489753Y-127142077D01*
X134852571Y-127281350D01*
X134852594Y-127281357D01*
X135228007Y-127381949D01*
X135228009Y-127381950D01*
X135611865Y-127442746D01*
X135611893Y-127442749D01*
X135999994Y-127463089D01*
X136000006Y-127463089D01*
X136388106Y-127442749D01*
X136388134Y-127442746D01*
X136771990Y-127381950D01*
X136771992Y-127381949D01*
X137147405Y-127281357D01*
X137147428Y-127281350D01*
X137510246Y-127142077D01*
X137856540Y-126965631D01*
X137856551Y-126965624D01*
X138182492Y-126753956D01*
X138182502Y-126753949D01*
X138437910Y-126547122D01*
X136940793Y-125050005D01*
X136943365Y-125048430D01*
X137134870Y-124884870D01*
X137298430Y-124693365D01*
X137300005Y-124690793D01*
X138797122Y-126187910D01*
X139003949Y-125932502D01*
X139003956Y-125932492D01*
X139215624Y-125606551D01*
X139215631Y-125606540D01*
X139392077Y-125260246D01*
X139531350Y-124897428D01*
X139531357Y-124897405D01*
X139631949Y-124521992D01*
X139631950Y-124521990D01*
X139692746Y-124138134D01*
X139692749Y-124138106D01*
X139713089Y-123750006D01*
X139713089Y-123749993D01*
X139692749Y-123361893D01*
X139692746Y-123361865D01*
X139631950Y-122978009D01*
X139631949Y-122978007D01*
X139531357Y-122602594D01*
X139531350Y-122602571D01*
X139392077Y-122239753D01*
X139215631Y-121893461D01*
X139003949Y-121567498D01*
X138797122Y-121312088D01*
X137300004Y-122809205D01*
X137298430Y-122806635D01*
X137134870Y-122615130D01*
X136943365Y-122451570D01*
X136940792Y-122449993D01*
X138437910Y-120952876D01*
X138182501Y-120746050D01*
X137856551Y-120534374D01*
X137856540Y-120534368D01*
X137510246Y-120357922D01*
X137147428Y-120218649D01*
X137147405Y-120218642D01*
X136771992Y-120118050D01*
X136771990Y-120118049D01*
X136388134Y-120057253D01*
X136388106Y-120057250D01*
X136000006Y-120036911D01*
X135999994Y-120036911D01*
X135611893Y-120057250D01*
X135611865Y-120057253D01*
X135228009Y-120118049D01*
X135228007Y-120118050D01*
X134852594Y-120218642D01*
X134852571Y-120218649D01*
X134489753Y-120357922D01*
X134143461Y-120534368D01*
X133817504Y-120746046D01*
X133562088Y-120952876D01*
X135059206Y-122449994D01*
X135056635Y-122451570D01*
X134865130Y-122615130D01*
X134701570Y-122806635D01*
X134699994Y-122809206D01*
X133202876Y-121312088D01*
X132996046Y-121567504D01*
X132784368Y-121893461D01*
X132607922Y-122239753D01*
X132468649Y-122602571D01*
X132468642Y-122602594D01*
X132368050Y-122978007D01*
X132368049Y-122978009D01*
X132307253Y-123361865D01*
X132307250Y-123361893D01*
X132286911Y-123749993D01*
X132286911Y-123750006D01*
X132025560Y-123750006D01*
X132025500Y-123747564D01*
X132025500Y-120440791D01*
X131999150Y-120325344D01*
X131999149Y-120325343D01*
X131999149Y-120325340D01*
X131969007Y-120262750D01*
X131947770Y-120218648D01*
X131873939Y-120126068D01*
X131873936Y-120126064D01*
X131863887Y-120118050D01*
X131781351Y-120052229D01*
X131701816Y-120013928D01*
X131674660Y-120000851D01*
X131674658Y-120000850D01*
X131674655Y-120000849D01*
X131583449Y-119980032D01*
X131559210Y-119974500D01*
X131559209Y-119974500D01*
X124037824Y-119974500D01*
X123982725Y-119957750D01*
X123618960Y-119714068D01*
X123521696Y-119648911D01*
X123516613Y-119645268D01*
X123049087Y-119287268D01*
X123044238Y-119283306D01*
X122673767Y-118960499D01*
X122600293Y-118896478D01*
X122595707Y-118892220D01*
X122542303Y-118839388D01*
X122399979Y-118698587D01*
X123042000Y-118698587D01*
X123048504Y-118759088D01*
X123048506Y-118759098D01*
X123099552Y-118895960D01*
X123187092Y-119012899D01*
X123187100Y-119012907D01*
X123304039Y-119100447D01*
X123440901Y-119151493D01*
X123440911Y-119151495D01*
X123501413Y-119158000D01*
X124095999Y-119158000D01*
X124096000Y-119157999D01*
X124604000Y-119157999D01*
X124604001Y-119158000D01*
X125198587Y-119158000D01*
X125259088Y-119151495D01*
X125259098Y-119151493D01*
X125395960Y-119100447D01*
X125512899Y-119012907D01*
X125512907Y-119012899D01*
X125522562Y-119000002D01*
X130694353Y-119000002D01*
X130714834Y-119142456D01*
X130774622Y-119273371D01*
X130774623Y-119273373D01*
X130864580Y-119377190D01*
X130868873Y-119382144D01*
X130960130Y-119440791D01*
X130989947Y-119459953D01*
X131096403Y-119491211D01*
X131128035Y-119500499D01*
X131128036Y-119500499D01*
X131128039Y-119500500D01*
X131128041Y-119500500D01*
X131271959Y-119500500D01*
X131271961Y-119500500D01*
X131410053Y-119459953D01*
X131531128Y-119382143D01*
X131625377Y-119273373D01*
X131685165Y-119142457D01*
X131697374Y-119057543D01*
X131705647Y-119000002D01*
X131705647Y-118999997D01*
X131685165Y-118857543D01*
X131671122Y-118826793D01*
X131625377Y-118726627D01*
X131531128Y-118617857D01*
X131531127Y-118617856D01*
X131531126Y-118617855D01*
X131410057Y-118540049D01*
X131410054Y-118540047D01*
X131410053Y-118540047D01*
X131410050Y-118540046D01*
X131271964Y-118499500D01*
X131271961Y-118499500D01*
X131128039Y-118499500D01*
X131128035Y-118499500D01*
X130989949Y-118540046D01*
X130989942Y-118540049D01*
X130868873Y-118617855D01*
X130774622Y-118726628D01*
X130714834Y-118857543D01*
X130694353Y-118999997D01*
X130694353Y-119000002D01*
X125522562Y-119000002D01*
X125600447Y-118895960D01*
X125651493Y-118759098D01*
X125651495Y-118759088D01*
X125658000Y-118698587D01*
X125658000Y-118254001D01*
X125657999Y-118254000D01*
X124604001Y-118254000D01*
X124604000Y-118254001D01*
X124604000Y-119157999D01*
X124096000Y-119157999D01*
X124096000Y-118254001D01*
X124095999Y-118254000D01*
X123042001Y-118254000D01*
X123042000Y-118254001D01*
X123042000Y-118698587D01*
X122399979Y-118698587D01*
X122230872Y-118531290D01*
X122177103Y-118478096D01*
X122172793Y-118473554D01*
X121946127Y-118219003D01*
X121781197Y-118033784D01*
X121777185Y-118028980D01*
X121680860Y-117905951D01*
X121414187Y-117565348D01*
X121410488Y-117560303D01*
X121390473Y-117531110D01*
X121124283Y-117142848D01*
X121077520Y-117074640D01*
X121074144Y-117069366D01*
X121048330Y-117026080D01*
X120993418Y-116934000D01*
X121588327Y-116934000D01*
X121630569Y-117079396D01*
X121713909Y-117220318D01*
X121829681Y-117336090D01*
X121970604Y-117419431D01*
X122127822Y-117465107D01*
X122127829Y-117465109D01*
X122146000Y-117466538D01*
X122146000Y-116934001D01*
X122145999Y-116934000D01*
X121588327Y-116934000D01*
X120993418Y-116934000D01*
X120772542Y-116563618D01*
X120769508Y-116558142D01*
X120500490Y-116034352D01*
X120497807Y-116028694D01*
X120262445Y-115488953D01*
X120260124Y-115483136D01*
X120059345Y-114929566D01*
X120057398Y-114923615D01*
X119975123Y-114642457D01*
X119892023Y-114358482D01*
X119890459Y-114352432D01*
X119887914Y-114341126D01*
X119761135Y-113777939D01*
X119759961Y-113771825D01*
X119667219Y-113190325D01*
X119666430Y-113184125D01*
X119666337Y-113183147D01*
X119610634Y-112597895D01*
X119610240Y-112591660D01*
X119609877Y-112580203D01*
X119591618Y-112003128D01*
X119591618Y-111996869D01*
X119593818Y-111927331D01*
X119610241Y-111408322D01*
X119610633Y-111402106D01*
X119666431Y-110815859D01*
X119667218Y-110809678D01*
X119759962Y-110228169D01*
X119761134Y-110222066D01*
X119890463Y-109647547D01*
X119892021Y-109641525D01*
X120057399Y-109076379D01*
X120059345Y-109070433D01*
X120061564Y-109064316D01*
X120260128Y-108516852D01*
X120262445Y-108511046D01*
X120268012Y-108498281D01*
X120497810Y-107971296D01*
X120500490Y-107965647D01*
X120769515Y-107441844D01*
X120772535Y-107436394D01*
X121074152Y-106930618D01*
X121077511Y-106925372D01*
X121407945Y-106443405D01*
X121456443Y-106406104D01*
X121517606Y-106404433D01*
X121568070Y-106439031D01*
X121568766Y-106439947D01*
X121588327Y-106466000D01*
X122145999Y-106466000D01*
X122146000Y-106465999D01*
X122654000Y-106465999D01*
X122654001Y-106466000D01*
X123345999Y-106466000D01*
X123346000Y-106465999D01*
X123346000Y-105933460D01*
X123345999Y-105933460D01*
X123327825Y-105934890D01*
X123170601Y-105980569D01*
X123050394Y-106051659D01*
X122990683Y-106065006D01*
X122949606Y-106051659D01*
X122829398Y-105980569D01*
X122672174Y-105934890D01*
X122654000Y-105933460D01*
X122654000Y-106465999D01*
X122146000Y-106465999D01*
X122146000Y-105933460D01*
X122145999Y-105933460D01*
X122127823Y-105934891D01*
X122028136Y-105963853D01*
X121966981Y-105961931D01*
X121918635Y-105924430D01*
X121901565Y-105865674D01*
X121922291Y-105808106D01*
X121926564Y-105802965D01*
X122172805Y-105526431D01*
X122177089Y-105521917D01*
X122595726Y-105107760D01*
X122600275Y-105103536D01*
X123044246Y-104716685D01*
X123049087Y-104712731D01*
X123512941Y-104357543D01*
X123516619Y-104354726D01*
X123521653Y-104351116D01*
X123982727Y-104042248D01*
X124037824Y-104025500D01*
X127232494Y-104025500D01*
X127290685Y-104044407D01*
X127326649Y-104093907D01*
X127326649Y-104155093D01*
X127311495Y-104184164D01*
X127292029Y-104209939D01*
X127283032Y-104220279D01*
X126322802Y-105180509D01*
X126268285Y-105208286D01*
X126207853Y-105198715D01*
X126164588Y-105155450D01*
X126154806Y-105124594D01*
X126145165Y-105057543D01*
X126137199Y-105040100D01*
X126085377Y-104926627D01*
X125991128Y-104817857D01*
X125991127Y-104817856D01*
X125991126Y-104817855D01*
X125870057Y-104740049D01*
X125870054Y-104740047D01*
X125870053Y-104740047D01*
X125870050Y-104740046D01*
X125731964Y-104699500D01*
X125731961Y-104699500D01*
X125588039Y-104699500D01*
X125588035Y-104699500D01*
X125449949Y-104740046D01*
X125449942Y-104740049D01*
X125328873Y-104817855D01*
X125234622Y-104926628D01*
X125174834Y-105057543D01*
X125154353Y-105199997D01*
X125154353Y-105200004D01*
X125173759Y-105334984D01*
X125163325Y-105395273D01*
X125119447Y-105437915D01*
X125058884Y-105446622D01*
X125005763Y-105419076D01*
X124916990Y-105330303D01*
X124889213Y-105275786D01*
X124889002Y-105246215D01*
X124895647Y-105200000D01*
X124895462Y-105198715D01*
X124875165Y-105057543D01*
X124867199Y-105040100D01*
X124815377Y-104926627D01*
X124721128Y-104817857D01*
X124721127Y-104817856D01*
X124721126Y-104817855D01*
X124600057Y-104740049D01*
X124600054Y-104740047D01*
X124600053Y-104740047D01*
X124600050Y-104740046D01*
X124461964Y-104699500D01*
X124461961Y-104699500D01*
X124318039Y-104699500D01*
X124318035Y-104699500D01*
X124179949Y-104740046D01*
X124179942Y-104740049D01*
X124058873Y-104817855D01*
X123964622Y-104926628D01*
X123904834Y-105057543D01*
X123884353Y-105199997D01*
X123884353Y-105200002D01*
X123904834Y-105342456D01*
X123951720Y-105445120D01*
X123964623Y-105473373D01*
X124054619Y-105577235D01*
X124058873Y-105582144D01*
X124176287Y-105657601D01*
X124179947Y-105659953D01*
X124286403Y-105691211D01*
X124318035Y-105700499D01*
X124318036Y-105700499D01*
X124318039Y-105700500D01*
X124318041Y-105700500D01*
X124452805Y-105700500D01*
X124510996Y-105719407D01*
X124522809Y-105729496D01*
X124564724Y-105771411D01*
X124592501Y-105825928D01*
X124582930Y-105886360D01*
X124539665Y-105929625D01*
X124522341Y-105936484D01*
X124370601Y-105980569D01*
X124250394Y-106051659D01*
X124190683Y-106065006D01*
X124149606Y-106051659D01*
X124029398Y-105980569D01*
X123872174Y-105934890D01*
X123854000Y-105933460D01*
X123854000Y-106465999D01*
X123854001Y-106466000D01*
X124955000Y-106466000D01*
X125013191Y-106484907D01*
X125049155Y-106534407D01*
X125054000Y-106565000D01*
X125054000Y-106875000D01*
X125035093Y-106933191D01*
X124985593Y-106969155D01*
X124955000Y-106974000D01*
X121588327Y-106974000D01*
X121630569Y-107119398D01*
X121701196Y-107238823D01*
X121714543Y-107298534D01*
X121690243Y-107354687D01*
X121655970Y-107379781D01*
X121641018Y-107386383D01*
X121619227Y-107393132D01*
X121609570Y-107394937D01*
X121609564Y-107394940D01*
X121585381Y-107409912D01*
X121573262Y-107416300D01*
X121547237Y-107427792D01*
X121547233Y-107427795D01*
X121540284Y-107434744D01*
X121522409Y-107448903D01*
X121514048Y-107454080D01*
X121496907Y-107476778D01*
X121487909Y-107487118D01*
X121033590Y-107941437D01*
X121022361Y-107949550D01*
X121023090Y-107950515D01*
X121015771Y-107956041D01*
X120984141Y-107990737D01*
X120980989Y-107994038D01*
X120967830Y-108007198D01*
X120967818Y-108007212D01*
X120967749Y-108007314D01*
X120959255Y-108018035D01*
X120940083Y-108039066D01*
X120940083Y-108039067D01*
X120936529Y-108048240D01*
X120925896Y-108068412D01*
X120920346Y-108076515D01*
X120920341Y-108076524D01*
X120913830Y-108104206D01*
X120909777Y-108117296D01*
X120899501Y-108143823D01*
X120899500Y-108143829D01*
X120899500Y-108153651D01*
X120896870Y-108176318D01*
X120894621Y-108185879D01*
X120898551Y-108214053D01*
X120899500Y-108227730D01*
X120899500Y-108375604D01*
X120880593Y-108433795D01*
X120842341Y-108465328D01*
X120819598Y-108475933D01*
X120735933Y-108559598D01*
X120685932Y-108666824D01*
X120685932Y-108666825D01*
X120685932Y-108666827D01*
X120679500Y-108715684D01*
X120679500Y-109064316D01*
X120680524Y-109072095D01*
X120685932Y-109113174D01*
X120685932Y-109113175D01*
X120735933Y-109220401D01*
X120735934Y-109220402D01*
X120735935Y-109220404D01*
X120819596Y-109304065D01*
X120819597Y-109304065D01*
X120819598Y-109304066D01*
X120832915Y-109310276D01*
X120877663Y-109352005D01*
X120889337Y-109412066D01*
X120863478Y-109467518D01*
X120832915Y-109489724D01*
X120819598Y-109495933D01*
X120735933Y-109579598D01*
X120685932Y-109686824D01*
X120685932Y-109686825D01*
X120679500Y-109735685D01*
X120679500Y-109900500D01*
X120660593Y-109958691D01*
X120611093Y-109994655D01*
X120580500Y-109999500D01*
X120578035Y-109999500D01*
X120439949Y-110040046D01*
X120439942Y-110040049D01*
X120318873Y-110117855D01*
X120224622Y-110226628D01*
X120164834Y-110357543D01*
X120144353Y-110499997D01*
X120144353Y-110500002D01*
X120164834Y-110642456D01*
X120212122Y-110746000D01*
X120224623Y-110773373D01*
X120312876Y-110875223D01*
X120318873Y-110882144D01*
X120439942Y-110959950D01*
X120439947Y-110959953D01*
X120531500Y-110986835D01*
X120578035Y-111000499D01*
X120578036Y-111000499D01*
X120578039Y-111000500D01*
X120578041Y-111000500D01*
X120721959Y-111000500D01*
X120721961Y-111000500D01*
X120860053Y-110959953D01*
X120981128Y-110882143D01*
X121075377Y-110773373D01*
X121135165Y-110642457D01*
X121155647Y-110500000D01*
X121154725Y-110493591D01*
X121165156Y-110433304D01*
X121209032Y-110390660D01*
X121252717Y-110380500D01*
X121424314Y-110380500D01*
X121424316Y-110380500D01*
X121473173Y-110374068D01*
X121580404Y-110324065D01*
X121664065Y-110240404D01*
X121664065Y-110240402D01*
X121664972Y-110239496D01*
X121719489Y-110211719D01*
X121734976Y-110210500D01*
X121865024Y-110210500D01*
X121923215Y-110229407D01*
X121935028Y-110239496D01*
X121935934Y-110240402D01*
X121935935Y-110240404D01*
X122019596Y-110324065D01*
X122019597Y-110324065D01*
X122019598Y-110324066D01*
X122126824Y-110374067D01*
X122126825Y-110374067D01*
X122126827Y-110374068D01*
X122175684Y-110380500D01*
X122175685Y-110380500D01*
X122624314Y-110380500D01*
X122624316Y-110380500D01*
X122673173Y-110374068D01*
X122758661Y-110334203D01*
X122819390Y-110326747D01*
X122872904Y-110356410D01*
X122898762Y-110411862D01*
X122899500Y-110423928D01*
X122899500Y-110427844D01*
X122899522Y-110427966D01*
X122901101Y-110441577D01*
X122902414Y-110469989D01*
X122904259Y-110477832D01*
X122899178Y-110538806D01*
X122859227Y-110585149D01*
X122807889Y-110599500D01*
X122471252Y-110599500D01*
X122471251Y-110599500D01*
X122471241Y-110599501D01*
X122412772Y-110611132D01*
X122412766Y-110611134D01*
X122346451Y-110655445D01*
X122346445Y-110655451D01*
X122302134Y-110721766D01*
X122302132Y-110721772D01*
X122290501Y-110780241D01*
X122290500Y-110780253D01*
X122290500Y-111122100D01*
X122271593Y-111180291D01*
X122222093Y-111216255D01*
X122160907Y-111216255D01*
X122127519Y-111197344D01*
X122127280Y-111197284D01*
X122126533Y-111196786D01*
X122126482Y-111196757D01*
X122126456Y-111196734D01*
X122122909Y-111194369D01*
X122101612Y-111179335D01*
X122098573Y-111177102D01*
X122073716Y-111158096D01*
X122072946Y-111156980D01*
X122059348Y-111149048D01*
X122052140Y-111144414D01*
X122041707Y-111137050D01*
X122038909Y-111136593D01*
X122035409Y-111134699D01*
X122011530Y-111121146D01*
X122010513Y-111120561D01*
X121990153Y-111108684D01*
X121987204Y-111105379D01*
X121969653Y-111097066D01*
X121963164Y-111093694D01*
X121946293Y-111084118D01*
X121919024Y-111072931D01*
X121914218Y-111070808D01*
X121892720Y-111060624D01*
X121870066Y-111052695D01*
X121865195Y-111050845D01*
X121844758Y-111042460D01*
X121843129Y-111042021D01*
X121820332Y-111035182D01*
X121816072Y-111033798D01*
X121788154Y-111024026D01*
X121787689Y-111023672D01*
X121769989Y-111019786D01*
X121762774Y-111017915D01*
X121748428Y-111013611D01*
X121746912Y-111013863D01*
X121742739Y-111013141D01*
X121716688Y-111008058D01*
X121714418Y-111007587D01*
X121696380Y-111003627D01*
X121693975Y-111002217D01*
X121686112Y-111001094D01*
X121685743Y-111001027D01*
X121685364Y-111000986D01*
X121669533Y-110998725D01*
X121664570Y-110997888D01*
X121635693Y-110992253D01*
X121616245Y-110990864D01*
X121609301Y-110990121D01*
X121594371Y-110987988D01*
X121591780Y-110988840D01*
X121584405Y-110988590D01*
X121544256Y-110985723D01*
X121543724Y-110985507D01*
X121538763Y-110985330D01*
X121531128Y-110984784D01*
X121507830Y-110985338D01*
X121502944Y-110985334D01*
X121477955Y-110984693D01*
X121468664Y-110985342D01*
X121467063Y-110985397D01*
X121465774Y-110985543D01*
X121450165Y-110986632D01*
X121445974Y-110986835D01*
X121416420Y-110987641D01*
X121415652Y-110987414D01*
X121396946Y-110990086D01*
X121389841Y-110990840D01*
X121370699Y-110992175D01*
X121341424Y-110997888D01*
X121336469Y-110998725D01*
X121316575Y-111001567D01*
X121311796Y-111002830D01*
X121291101Y-111007643D01*
X121287634Y-111008384D01*
X121263684Y-111013057D01*
X121262817Y-111012951D01*
X121240058Y-111019625D01*
X121235131Y-111020933D01*
X121214019Y-111025959D01*
X121212103Y-111026687D01*
X121188916Y-111034802D01*
X121184663Y-111036183D01*
X121163005Y-111042681D01*
X121162145Y-111042661D01*
X121160960Y-111043187D01*
X121139847Y-111051834D01*
X121135027Y-111053663D01*
X121114603Y-111060810D01*
X121112345Y-111061933D01*
X121091271Y-111071659D01*
X121087361Y-111073362D01*
X121056857Y-111085876D01*
X121056296Y-111085918D01*
X121042155Y-111093944D01*
X121034779Y-111097731D01*
X121022400Y-111103444D01*
X121022020Y-111103929D01*
X121018462Y-111106208D01*
X120992619Y-111122000D01*
X120989867Y-111123622D01*
X120970843Y-111134419D01*
X120970811Y-111134469D01*
X120960940Y-111141359D01*
X120952536Y-111146495D01*
X120952450Y-111146548D01*
X120952381Y-111146589D01*
X120945268Y-111151140D01*
X120944701Y-111151476D01*
X120943621Y-111152193D01*
X120943404Y-111152331D01*
X120942136Y-111153274D01*
X120930738Y-111161090D01*
X120926249Y-111162414D01*
X120906063Y-111177850D01*
X120901914Y-111180856D01*
X120882803Y-111193959D01*
X120882328Y-111194385D01*
X120863743Y-111210067D01*
X120860033Y-111213048D01*
X120841640Y-111227112D01*
X120840822Y-111227399D01*
X120840379Y-111227774D01*
X120837643Y-111230671D01*
X120824011Y-111243423D01*
X120820224Y-111246788D01*
X120798586Y-111265045D01*
X120784655Y-111279937D01*
X120779993Y-111284599D01*
X120765062Y-111298565D01*
X120746773Y-111320241D01*
X120743410Y-111324026D01*
X120727721Y-111340798D01*
X120727141Y-111341603D01*
X120713055Y-111360025D01*
X120710074Y-111363736D01*
X120694343Y-111382379D01*
X120694182Y-111382478D01*
X120680848Y-111401924D01*
X120677843Y-111406072D01*
X120663132Y-111425308D01*
X120650729Y-111445605D01*
X120647905Y-111449965D01*
X120637578Y-111465026D01*
X120637447Y-111466028D01*
X120632259Y-111475546D01*
X120627106Y-111483878D01*
X120625902Y-111486234D01*
X120624659Y-111488268D01*
X120624653Y-111488277D01*
X120624610Y-111488346D01*
X120622563Y-111491746D01*
X120622420Y-111491964D01*
X120622011Y-111492662D01*
X120621737Y-111493116D01*
X120621305Y-111493949D01*
X120621246Y-111494050D01*
X120621247Y-111494051D01*
X120609181Y-111515309D01*
X120604917Y-111519204D01*
X120597728Y-111534782D01*
X120593942Y-111542157D01*
X120587702Y-111553150D01*
X120587561Y-111556206D01*
X120584816Y-111562762D01*
X120562027Y-111612140D01*
X120561385Y-111612833D01*
X120560963Y-111614167D01*
X120553696Y-111634930D01*
X120551847Y-111639798D01*
X120543398Y-111660393D01*
X120542900Y-111662266D01*
X120536173Y-111684692D01*
X120534788Y-111688956D01*
X120526691Y-111712088D01*
X120526294Y-111712607D01*
X120521172Y-111734122D01*
X120519691Y-111739633D01*
X120513844Y-111759123D01*
X120513326Y-111762305D01*
X120508554Y-111786759D01*
X120507694Y-111790730D01*
X120502677Y-111811800D01*
X120502055Y-111812818D01*
X120501918Y-111813541D01*
X120501649Y-111815993D01*
X120498729Y-111836438D01*
X120497891Y-111841403D01*
X120492178Y-111870675D01*
X120490842Y-111889830D01*
X120490087Y-111896938D01*
X120487527Y-111914853D01*
X120487524Y-111916071D01*
X120486807Y-111946155D01*
X120486595Y-111950689D01*
X120485542Y-111965777D01*
X120485432Y-111966047D01*
X120485342Y-111968652D01*
X120485165Y-111971185D01*
X120485582Y-111979644D01*
X120485582Y-111996416D01*
X120485554Y-111998774D01*
X120484931Y-112024918D01*
X120485582Y-112034622D01*
X120485582Y-112043188D01*
X120483775Y-112048746D01*
X120485193Y-112064688D01*
X120485582Y-112073454D01*
X120485582Y-112085262D01*
X120487037Y-112088118D01*
X120487869Y-112094860D01*
X120488296Y-112099675D01*
X120487135Y-112104729D01*
X120490482Y-112126487D01*
X120491244Y-112132769D01*
X120492730Y-112149482D01*
X120494714Y-112157954D01*
X120498149Y-112176600D01*
X120498636Y-112179484D01*
X120501375Y-112197290D01*
X120500960Y-112199836D01*
X120502148Y-112204720D01*
X120502394Y-112205963D01*
X120502810Y-112207441D01*
X120506347Y-112221978D01*
X120507515Y-112227449D01*
X120511252Y-112247737D01*
X120511232Y-112247883D01*
X120512111Y-112250525D01*
X120517882Y-112269935D01*
X120519183Y-112274749D01*
X120524466Y-112296470D01*
X120525365Y-112298777D01*
X120531677Y-112316747D01*
X120533168Y-112321347D01*
X120537805Y-112336946D01*
X120537790Y-112337525D01*
X120538742Y-112340303D01*
X120541559Y-112346762D01*
X120547713Y-112362552D01*
X120548855Y-112365632D01*
X120555102Y-112383380D01*
X120555158Y-112385705D01*
X120556615Y-112388892D01*
X120559295Y-112395535D01*
X120560989Y-112398460D01*
X120564437Y-112406002D01*
X120566668Y-112411281D01*
X120574784Y-112432151D01*
X120585204Y-112451835D01*
X120587746Y-112456993D01*
X120597021Y-112477283D01*
X120608613Y-112496410D01*
X120611442Y-112501399D01*
X120617640Y-112513106D01*
X120617653Y-112513181D01*
X120617951Y-112513694D01*
X120619619Y-112516845D01*
X120625807Y-112525453D01*
X120633774Y-112537973D01*
X120634912Y-112539804D01*
X120642946Y-112553058D01*
X120643642Y-112556023D01*
X120649100Y-112563713D01*
X120650081Y-112565207D01*
X120650954Y-112566324D01*
X120657866Y-112576065D01*
X120660648Y-112580203D01*
X120672216Y-112598380D01*
X120672394Y-112599073D01*
X120673640Y-112600530D01*
X120685937Y-112615901D01*
X120689365Y-112620448D01*
X120702050Y-112638321D01*
X120717113Y-112655120D01*
X120720713Y-112659369D01*
X120731694Y-112673096D01*
X120731843Y-112673493D01*
X120733712Y-112675619D01*
X120733721Y-112675630D01*
X120738933Y-112680423D01*
X120750023Y-112691922D01*
X120752474Y-112694557D01*
X120765293Y-112708854D01*
X120766057Y-112710580D01*
X120767416Y-112711842D01*
X120769039Y-112713493D01*
X120771002Y-112715173D01*
X120782777Y-112726107D01*
X120786676Y-112729933D01*
X120801587Y-112745396D01*
X120801724Y-112745678D01*
X120803937Y-112747374D01*
X120818891Y-112759835D01*
X120822882Y-112763346D01*
X120831947Y-112771764D01*
X120832013Y-112771883D01*
X120832869Y-112772621D01*
X120836561Y-112776049D01*
X120845242Y-112782175D01*
X120855926Y-112790722D01*
X120857460Y-112791975D01*
X120873305Y-112805179D01*
X120875286Y-112808326D01*
X120891134Y-112819221D01*
X120896894Y-112823496D01*
X120908872Y-112833079D01*
X120909206Y-112833146D01*
X120913820Y-112835910D01*
X120933714Y-112848571D01*
X120936645Y-112850510D01*
X120955405Y-112863407D01*
X120956637Y-112865013D01*
X120957507Y-112865488D01*
X120957546Y-112865512D01*
X120957584Y-112865530D01*
X120974112Y-112874545D01*
X120979860Y-112877936D01*
X120993056Y-112886334D01*
X120993627Y-112886377D01*
X121001414Y-112889964D01*
X121017242Y-112898104D01*
X121019373Y-112899233D01*
X121038369Y-112909595D01*
X121040578Y-112911932D01*
X121058707Y-112919702D01*
X121064986Y-112922658D01*
X121078992Y-112929861D01*
X121079552Y-112929863D01*
X121084514Y-112931642D01*
X121105100Y-112939647D01*
X121108223Y-112940923D01*
X121125788Y-112948452D01*
X121127407Y-112949869D01*
X121130054Y-112950728D01*
X121131281Y-112951188D01*
X121133014Y-112951688D01*
X121148666Y-112956764D01*
X121154010Y-112958668D01*
X121174094Y-112966479D01*
X121174141Y-112966518D01*
X121177452Y-112967254D01*
X121196405Y-112972375D01*
X121201125Y-112973777D01*
X121214577Y-112978140D01*
X121215137Y-112978546D01*
X121220151Y-112979948D01*
X121227636Y-112982375D01*
X121236012Y-112983348D01*
X121241829Y-112984721D01*
X121242011Y-112984775D01*
X121242140Y-112984805D01*
X121245646Y-112985688D01*
X121261802Y-112990072D01*
X121263620Y-112991260D01*
X121267568Y-112991988D01*
X121271104Y-112992792D01*
X121274122Y-112993196D01*
X121287461Y-112995653D01*
X121292344Y-112996680D01*
X121319792Y-113003181D01*
X121319967Y-113003288D01*
X121336943Y-113005070D01*
X121344541Y-113006167D01*
X121357888Y-113008625D01*
X121359157Y-113008208D01*
X121368786Y-113008639D01*
X121387218Y-113010366D01*
X121388347Y-113010478D01*
X121406901Y-113012431D01*
X121411362Y-113014418D01*
X121475901Y-113014418D01*
X121478589Y-113015291D01*
X121511348Y-113014451D01*
X121513887Y-113014418D01*
X121528479Y-113014418D01*
X121530968Y-113015226D01*
X121538764Y-113014670D01*
X121541777Y-113014562D01*
X121544259Y-113014276D01*
X121556670Y-113013390D01*
X121561179Y-113013172D01*
X121589890Y-113012435D01*
X121590381Y-113012580D01*
X121609297Y-113009878D01*
X121616250Y-113009134D01*
X121635713Y-113007744D01*
X121664584Y-113002110D01*
X121669551Y-113001271D01*
X121685109Y-112999049D01*
X121685218Y-112999068D01*
X121686107Y-112998907D01*
X121689834Y-112998374D01*
X121698572Y-112995891D01*
X121714395Y-112992418D01*
X121716655Y-112991949D01*
X121741859Y-112987030D01*
X121745007Y-112987414D01*
X121762769Y-112982086D01*
X121769990Y-112980213D01*
X121786566Y-112976574D01*
X121788457Y-112975866D01*
X121816054Y-112966207D01*
X121820315Y-112964823D01*
X121843035Y-112958008D01*
X121843728Y-112958023D01*
X121843835Y-112957976D01*
X121865281Y-112949134D01*
X121870310Y-112947218D01*
X121893410Y-112939132D01*
X121914342Y-112929155D01*
X121919366Y-112926929D01*
X121946289Y-112915883D01*
X121963156Y-112906310D01*
X121969651Y-112902934D01*
X121982473Y-112896861D01*
X121983810Y-112895090D01*
X121991670Y-112890127D01*
X122008471Y-112880591D01*
X122009049Y-112880295D01*
X122013549Y-112877666D01*
X122013618Y-112877627D01*
X122032994Y-112866324D01*
X122038674Y-112865089D01*
X122052127Y-112855594D01*
X122059341Y-112850956D01*
X122070918Y-112844203D01*
X122071033Y-112844025D01*
X122073572Y-112842017D01*
X122098570Y-112822900D01*
X122101621Y-112820658D01*
X122122819Y-112805696D01*
X122124129Y-112805290D01*
X122126477Y-112803245D01*
X122182776Y-112779283D01*
X122242406Y-112792989D01*
X122282592Y-112839127D01*
X122290500Y-112877898D01*
X122290500Y-113219746D01*
X122290501Y-113219758D01*
X122302132Y-113278227D01*
X122302134Y-113278233D01*
X122345048Y-113342457D01*
X122346448Y-113344552D01*
X122412765Y-113388864D01*
X122414902Y-113390292D01*
X122452781Y-113438342D01*
X122458900Y-113472607D01*
X122458900Y-114203405D01*
X122439993Y-114261596D01*
X122429897Y-114273415D01*
X122424379Y-114278932D01*
X122369860Y-114306705D01*
X122309429Y-114297128D01*
X122279563Y-114273753D01*
X122231129Y-114217858D01*
X122231127Y-114217856D01*
X122110057Y-114140049D01*
X122110054Y-114140047D01*
X122110053Y-114140047D01*
X122105452Y-114138696D01*
X121971964Y-114099500D01*
X121971961Y-114099500D01*
X121828039Y-114099500D01*
X121828035Y-114099500D01*
X121689949Y-114140046D01*
X121689942Y-114140049D01*
X121568873Y-114217855D01*
X121474622Y-114326628D01*
X121414834Y-114457543D01*
X121394353Y-114599997D01*
X121394353Y-114600002D01*
X121414834Y-114742456D01*
X121472966Y-114869744D01*
X121474623Y-114873373D01*
X121568872Y-114982143D01*
X121568873Y-114982144D01*
X121686614Y-115057811D01*
X121689947Y-115059953D01*
X121788110Y-115088776D01*
X121828035Y-115100499D01*
X121828036Y-115100499D01*
X121828039Y-115100500D01*
X121828041Y-115100500D01*
X121971959Y-115100500D01*
X121971961Y-115100500D01*
X122011889Y-115088776D01*
X122073047Y-115090523D01*
X122081602Y-115097120D01*
X122095629Y-115071294D01*
X122110232Y-115059837D01*
X122231128Y-114982143D01*
X122266568Y-114941243D01*
X122289595Y-114914669D01*
X122341991Y-114883073D01*
X122364414Y-114880500D01*
X122438493Y-114880500D01*
X122452171Y-114881449D01*
X122460573Y-114882621D01*
X122460576Y-114882622D01*
X122460578Y-114882621D01*
X122460579Y-114882622D01*
X122492000Y-114881169D01*
X122504184Y-114880605D01*
X122508755Y-114880500D01*
X122525999Y-114880500D01*
X122527024Y-114880404D01*
X122539257Y-114878984D01*
X122565333Y-114877779D01*
X122573024Y-114874382D01*
X122594819Y-114867633D01*
X122603084Y-114866089D01*
X122625274Y-114852348D01*
X122637389Y-114845962D01*
X122661266Y-114835421D01*
X122667209Y-114829476D01*
X122685097Y-114815308D01*
X122692245Y-114810883D01*
X122707970Y-114790057D01*
X122716963Y-114779722D01*
X122894249Y-114602435D01*
X122904588Y-114593439D01*
X122911360Y-114588324D01*
X122911367Y-114588321D01*
X122940798Y-114556035D01*
X122943935Y-114552749D01*
X122956123Y-114540563D01*
X122956126Y-114540557D01*
X122956820Y-114539722D01*
X122964429Y-114530113D01*
X122982017Y-114510822D01*
X122985052Y-114502985D01*
X122995693Y-114482797D01*
X123000445Y-114475862D01*
X123006419Y-114450457D01*
X123010474Y-114437363D01*
X123015529Y-114424316D01*
X123019900Y-114413035D01*
X123019900Y-114404631D01*
X123022530Y-114381962D01*
X123024455Y-114373779D01*
X123020849Y-114347927D01*
X123019900Y-114334251D01*
X123019900Y-113484302D01*
X123038807Y-113426111D01*
X123082851Y-113394110D01*
X123082224Y-113392597D01*
X123091222Y-113388868D01*
X123091231Y-113388867D01*
X123107997Y-113377663D01*
X123166885Y-113361054D01*
X123218002Y-113377663D01*
X123234769Y-113388867D01*
X123279231Y-113397711D01*
X123293241Y-113400498D01*
X123293246Y-113400498D01*
X123293252Y-113400500D01*
X123293253Y-113400500D01*
X123854747Y-113400500D01*
X123854748Y-113400500D01*
X123913231Y-113388867D01*
X123942869Y-113369063D01*
X124001754Y-113352455D01*
X124059158Y-113373632D01*
X124063381Y-113377663D01*
X124063519Y-113377505D01*
X124068872Y-113382143D01*
X124156319Y-113438342D01*
X124189947Y-113459953D01*
X124270653Y-113483650D01*
X124276987Y-113485510D01*
X124327494Y-113520046D01*
X124348056Y-113577673D01*
X124330818Y-113636380D01*
X124282365Y-113673743D01*
X124249096Y-113679500D01*
X124115684Y-113679500D01*
X124099398Y-113681644D01*
X124066825Y-113685932D01*
X124066824Y-113685932D01*
X123959598Y-113735933D01*
X123875933Y-113819598D01*
X123825932Y-113926824D01*
X123825932Y-113926825D01*
X123821644Y-113959398D01*
X123819500Y-113975684D01*
X123819500Y-114424316D01*
X123821218Y-114437363D01*
X123825932Y-114473174D01*
X123825932Y-114473175D01*
X123875933Y-114580401D01*
X123875934Y-114580402D01*
X123875935Y-114580404D01*
X123959596Y-114664065D01*
X123959600Y-114664066D01*
X123966690Y-114669031D01*
X123964557Y-114672076D01*
X123997084Y-114702402D01*
X124009500Y-114750405D01*
X124009500Y-114828489D01*
X124008551Y-114842163D01*
X124007377Y-114850575D01*
X124009394Y-114894182D01*
X124009500Y-114898755D01*
X124009500Y-114915990D01*
X124009594Y-114917014D01*
X124011015Y-114929263D01*
X124012221Y-114955334D01*
X124015616Y-114963023D01*
X124022364Y-114984814D01*
X124023910Y-114993082D01*
X124023909Y-114993082D01*
X124027192Y-114998383D01*
X124041751Y-115057811D01*
X124018598Y-115114447D01*
X123966577Y-115146657D01*
X123943021Y-115149500D01*
X123530252Y-115149500D01*
X123530251Y-115149500D01*
X123530241Y-115149501D01*
X123471772Y-115161132D01*
X123471766Y-115161134D01*
X123405451Y-115205445D01*
X123405445Y-115205451D01*
X123361134Y-115271766D01*
X123361132Y-115271772D01*
X123349501Y-115330241D01*
X123349500Y-115330253D01*
X123349500Y-115513805D01*
X123330593Y-115571996D01*
X123281093Y-115607960D01*
X123219907Y-115607960D01*
X123180496Y-115583809D01*
X123161830Y-115565143D01*
X123152828Y-115554796D01*
X123147719Y-115548031D01*
X123115459Y-115518621D01*
X123112154Y-115515466D01*
X123099964Y-115503277D01*
X123099175Y-115502622D01*
X123089508Y-115494963D01*
X123070223Y-115477383D01*
X123070218Y-115477380D01*
X123062378Y-115474343D01*
X123042197Y-115463705D01*
X123035263Y-115458955D01*
X123035261Y-115458954D01*
X123009863Y-115452981D01*
X122996765Y-115448925D01*
X122972439Y-115439501D01*
X122972436Y-115439500D01*
X122972435Y-115439500D01*
X122972434Y-115439500D01*
X122964031Y-115439500D01*
X122941363Y-115436870D01*
X122924247Y-115432844D01*
X122924770Y-115430618D01*
X122879423Y-115413529D01*
X122859335Y-115387978D01*
X122858192Y-115388779D01*
X122853226Y-115381687D01*
X122853224Y-115381685D01*
X122853224Y-115381684D01*
X122768316Y-115296776D01*
X122768314Y-115296775D01*
X122768313Y-115296774D01*
X122659489Y-115246029D01*
X122659488Y-115246028D01*
X122636988Y-115243066D01*
X122609901Y-115239500D01*
X122609899Y-115239500D01*
X122190103Y-115239500D01*
X122190093Y-115239501D01*
X122176682Y-115241266D01*
X122122796Y-115231273D01*
X122118178Y-115244219D01*
X122081619Y-115273490D01*
X122031686Y-115296774D01*
X121946774Y-115381686D01*
X121896029Y-115490510D01*
X121896028Y-115490511D01*
X121894093Y-115505211D01*
X121890053Y-115535903D01*
X121889500Y-115540100D01*
X121889500Y-115899895D01*
X121889501Y-115899897D01*
X121891790Y-115917291D01*
X121880636Y-115977452D01*
X121844034Y-116015420D01*
X121829683Y-116023907D01*
X121713909Y-116139681D01*
X121630569Y-116280603D01*
X121588326Y-116426000D01*
X122555000Y-116426000D01*
X122613191Y-116444907D01*
X122649155Y-116494407D01*
X122654000Y-116525000D01*
X122654000Y-117466538D01*
X122672170Y-117465109D01*
X122672177Y-117465107D01*
X122829396Y-117419430D01*
X122829400Y-117419429D01*
X122892605Y-117382050D01*
X122952316Y-117368702D01*
X123008470Y-117393002D01*
X123039616Y-117445666D01*
X123042000Y-117467263D01*
X123042000Y-117745999D01*
X123042001Y-117746000D01*
X125657999Y-117746000D01*
X125658000Y-117745999D01*
X125658000Y-117693695D01*
X125676907Y-117635504D01*
X125726407Y-117599540D01*
X125787593Y-117599540D01*
X125827004Y-117623691D01*
X126358166Y-118154853D01*
X126367165Y-118165195D01*
X126372277Y-118171964D01*
X126372279Y-118171967D01*
X126403748Y-118200655D01*
X126404539Y-118201376D01*
X126407844Y-118204532D01*
X126420038Y-118216725D01*
X126420847Y-118217397D01*
X126430494Y-118225038D01*
X126432791Y-118227132D01*
X126449777Y-118242617D01*
X126454223Y-118244339D01*
X126457613Y-118245652D01*
X126477801Y-118256292D01*
X126484738Y-118261045D01*
X126493875Y-118263193D01*
X126510137Y-118267019D01*
X126523235Y-118271075D01*
X126544932Y-118279480D01*
X126547565Y-118280500D01*
X126550500Y-118280500D01*
X126554473Y-118281791D01*
X126556581Y-118282185D01*
X126556529Y-118282459D01*
X126608691Y-118299407D01*
X126644655Y-118348907D01*
X126649500Y-118379500D01*
X126649500Y-118669746D01*
X126649501Y-118669758D01*
X126661132Y-118728227D01*
X126661134Y-118728233D01*
X126705445Y-118794548D01*
X126705448Y-118794552D01*
X126771769Y-118838867D01*
X126816231Y-118847711D01*
X126830241Y-118850498D01*
X126830246Y-118850498D01*
X126830252Y-118850500D01*
X126830253Y-118850500D01*
X128469747Y-118850500D01*
X128469748Y-118850500D01*
X128528231Y-118838867D01*
X128594552Y-118794552D01*
X128616456Y-118761769D01*
X128664504Y-118723892D01*
X128725642Y-118721490D01*
X128734525Y-118724456D01*
X128737618Y-118725654D01*
X128757796Y-118736290D01*
X128764738Y-118741045D01*
X128790139Y-118747018D01*
X128803233Y-118751073D01*
X128827565Y-118760500D01*
X128835969Y-118760500D01*
X128858636Y-118763129D01*
X128866821Y-118765055D01*
X128875753Y-118767156D01*
X128875229Y-118769383D01*
X128920563Y-118786460D01*
X128940664Y-118812021D01*
X128941808Y-118811221D01*
X128946773Y-118818312D01*
X128946775Y-118818314D01*
X128946776Y-118818316D01*
X129031684Y-118903224D01*
X129140513Y-118953972D01*
X129190099Y-118960500D01*
X129609900Y-118960499D01*
X129659487Y-118953972D01*
X129659488Y-118953972D01*
X129735895Y-118918342D01*
X129768316Y-118903224D01*
X129853224Y-118818316D01*
X129903972Y-118709487D01*
X129910500Y-118659901D01*
X129910499Y-118300100D01*
X129908210Y-118282709D01*
X129919361Y-118222549D01*
X129955972Y-118184574D01*
X129970318Y-118176090D01*
X130086090Y-118060318D01*
X130169430Y-117919396D01*
X130211673Y-117774000D01*
X129245000Y-117774000D01*
X129186809Y-117755093D01*
X129150845Y-117705593D01*
X129146000Y-117675000D01*
X129146000Y-117265999D01*
X129654000Y-117265999D01*
X129654001Y-117266000D01*
X130211673Y-117266000D01*
X130169430Y-117120603D01*
X130086090Y-116979681D01*
X130076413Y-116970004D01*
X130048636Y-116915487D01*
X130058207Y-116855055D01*
X130076413Y-116829996D01*
X130086090Y-116820318D01*
X130114786Y-116771796D01*
X130160682Y-116731334D01*
X130221596Y-116725575D01*
X130274261Y-116756721D01*
X130285214Y-116771796D01*
X130313909Y-116820318D01*
X130429681Y-116936090D01*
X130570604Y-117019431D01*
X130727822Y-117065107D01*
X130727829Y-117065109D01*
X130746000Y-117066538D01*
X130746000Y-116534001D01*
X130745999Y-116534000D01*
X129654001Y-116534000D01*
X129654000Y-116534001D01*
X129654000Y-117265999D01*
X129146000Y-117265999D01*
X129146000Y-116125000D01*
X129164907Y-116066809D01*
X129214407Y-116030845D01*
X129245000Y-116026000D01*
X131155000Y-116026000D01*
X131213191Y-116044907D01*
X131249155Y-116094407D01*
X131254000Y-116125000D01*
X131254000Y-117066538D01*
X131272170Y-117065109D01*
X131272177Y-117065107D01*
X131429395Y-117019431D01*
X131570318Y-116936090D01*
X131686090Y-116820318D01*
X131769431Y-116679395D01*
X131804931Y-116557206D01*
X131839322Y-116506601D01*
X131896891Y-116485875D01*
X131955646Y-116502945D01*
X131993147Y-116551291D01*
X131995069Y-116557206D01*
X132030568Y-116679395D01*
X132113909Y-116820318D01*
X132229681Y-116936090D01*
X132370604Y-117019431D01*
X132527822Y-117065107D01*
X132527829Y-117065109D01*
X132546000Y-117066538D01*
X132546000Y-116125000D01*
X132564907Y-116066809D01*
X132614407Y-116030845D01*
X132645000Y-116026000D01*
X132955000Y-116026000D01*
X133013191Y-116044907D01*
X133049155Y-116094407D01*
X133054000Y-116125000D01*
X133054000Y-117078864D01*
X133069585Y-117106694D01*
X133071487Y-117126007D01*
X133071487Y-118090476D01*
X133070538Y-118104150D01*
X133069364Y-118112562D01*
X133071381Y-118156169D01*
X133071487Y-118160742D01*
X133071487Y-118177977D01*
X133071581Y-118179001D01*
X133073002Y-118191250D01*
X133074208Y-118217321D01*
X133077603Y-118225010D01*
X133084351Y-118246801D01*
X133085896Y-118255067D01*
X133085897Y-118255069D01*
X133085898Y-118255071D01*
X133099636Y-118277259D01*
X133106024Y-118289378D01*
X133110935Y-118300500D01*
X133116566Y-118313253D01*
X133122513Y-118319200D01*
X133136675Y-118337079D01*
X133141104Y-118344232D01*
X133161925Y-118359955D01*
X133172268Y-118368955D01*
X133479418Y-118676105D01*
X133507195Y-118730622D01*
X133497624Y-118791054D01*
X133479418Y-118816113D01*
X133474349Y-118821182D01*
X133419832Y-118848959D01*
X133359400Y-118839388D01*
X133337015Y-118821869D01*
X133336476Y-118822492D01*
X133331132Y-118817862D01*
X133331128Y-118817857D01*
X133252236Y-118767156D01*
X133210057Y-118740049D01*
X133210054Y-118740047D01*
X133210053Y-118740047D01*
X133210050Y-118740046D01*
X133071964Y-118699500D01*
X133071961Y-118699500D01*
X132928039Y-118699500D01*
X132928035Y-118699500D01*
X132789949Y-118740046D01*
X132789942Y-118740049D01*
X132668873Y-118817855D01*
X132574622Y-118926628D01*
X132514834Y-119057543D01*
X132494353Y-119199997D01*
X132494353Y-119200002D01*
X132514834Y-119342456D01*
X132559743Y-119440791D01*
X132574623Y-119473373D01*
X132667365Y-119580404D01*
X132668873Y-119582144D01*
X132770056Y-119647170D01*
X132789947Y-119659953D01*
X132896403Y-119691211D01*
X132928035Y-119700499D01*
X132928036Y-119700499D01*
X132928039Y-119700500D01*
X132928041Y-119700500D01*
X133071959Y-119700500D01*
X133071961Y-119700500D01*
X133210053Y-119659953D01*
X133331128Y-119582143D01*
X133331136Y-119582133D01*
X133336476Y-119577508D01*
X133337782Y-119579015D01*
X133381902Y-119552398D01*
X133442864Y-119557622D01*
X133474349Y-119578817D01*
X133475934Y-119580402D01*
X133475935Y-119580404D01*
X133559596Y-119664065D01*
X133559597Y-119664065D01*
X133559598Y-119664066D01*
X133666824Y-119714067D01*
X133666825Y-119714067D01*
X133666827Y-119714068D01*
X133715684Y-119720500D01*
X133715685Y-119720500D01*
X134064314Y-119720500D01*
X134064316Y-119720500D01*
X134113173Y-119714068D01*
X134220404Y-119664065D01*
X134304065Y-119580404D01*
X134310275Y-119567085D01*
X134352003Y-119522337D01*
X134412064Y-119510662D01*
X134467517Y-119536519D01*
X134489724Y-119567084D01*
X134495935Y-119580404D01*
X134579596Y-119664065D01*
X134579597Y-119664065D01*
X134579598Y-119664066D01*
X134686824Y-119714067D01*
X134686825Y-119714067D01*
X134686827Y-119714068D01*
X134735684Y-119720500D01*
X134735685Y-119720500D01*
X135084314Y-119720500D01*
X135084316Y-119720500D01*
X135133173Y-119714068D01*
X135240404Y-119664065D01*
X135324065Y-119580404D01*
X135332975Y-119561296D01*
X135343997Y-119537661D01*
X135385725Y-119492913D01*
X135433721Y-119480500D01*
X135766279Y-119480500D01*
X135824470Y-119499407D01*
X135856003Y-119537661D01*
X135875933Y-119580401D01*
X135875934Y-119580402D01*
X135875935Y-119580404D01*
X135959596Y-119664065D01*
X135959597Y-119664065D01*
X135959598Y-119664066D01*
X136066824Y-119714067D01*
X136066825Y-119714067D01*
X136066827Y-119714068D01*
X136115684Y-119720500D01*
X136115685Y-119720500D01*
X136464314Y-119720500D01*
X136464316Y-119720500D01*
X136513173Y-119714068D01*
X136620404Y-119664065D01*
X136704065Y-119580404D01*
X136710275Y-119567085D01*
X136752003Y-119522337D01*
X136812064Y-119510662D01*
X136867517Y-119536519D01*
X136889724Y-119567084D01*
X136895935Y-119580404D01*
X136979596Y-119664065D01*
X136979597Y-119664065D01*
X136979598Y-119664066D01*
X137086824Y-119714067D01*
X137086825Y-119714067D01*
X137086827Y-119714068D01*
X137135684Y-119720500D01*
X137135685Y-119720500D01*
X137484314Y-119720500D01*
X137484316Y-119720500D01*
X137533173Y-119714068D01*
X137640404Y-119664065D01*
X137701007Y-119603461D01*
X137726051Y-119585265D01*
X137746804Y-119574690D01*
X137761151Y-119568748D01*
X137784090Y-119561296D01*
X137803612Y-119547111D01*
X137816849Y-119539000D01*
X137838342Y-119528050D01*
X137855261Y-119511129D01*
X137855265Y-119511127D01*
X137860907Y-119505485D01*
X137860909Y-119505484D01*
X138425484Y-118940909D01*
X138425485Y-118940907D01*
X138431127Y-118935265D01*
X138431129Y-118935261D01*
X138448050Y-118918342D01*
X138459000Y-118896849D01*
X138467111Y-118883612D01*
X138481296Y-118864090D01*
X138488748Y-118841151D01*
X138494690Y-118826802D01*
X138505646Y-118805304D01*
X138505646Y-118805302D01*
X138509184Y-118798360D01*
X138510473Y-118799017D01*
X138541389Y-118756453D01*
X138599577Y-118737538D01*
X138649986Y-118751324D01*
X138680603Y-118769430D01*
X138826000Y-118811672D01*
X139334000Y-118811672D01*
X139479396Y-118769430D01*
X139620318Y-118686090D01*
X139736090Y-118570318D01*
X139819431Y-118429395D01*
X139865107Y-118272177D01*
X139865109Y-118272170D01*
X139866539Y-118254000D01*
X139334001Y-118254000D01*
X139334000Y-118254001D01*
X139334000Y-118811672D01*
X138826000Y-118811672D01*
X138826000Y-118000002D01*
X140494353Y-118000002D01*
X140514834Y-118142456D01*
X140574074Y-118272170D01*
X140574623Y-118273373D01*
X140656890Y-118368315D01*
X140668873Y-118382144D01*
X140777892Y-118452206D01*
X140789947Y-118459953D01*
X140896403Y-118491211D01*
X140928035Y-118500499D01*
X140928036Y-118500499D01*
X140928039Y-118500500D01*
X140928041Y-118500500D01*
X141071959Y-118500500D01*
X141071961Y-118500500D01*
X141210053Y-118459953D01*
X141331128Y-118382143D01*
X141425377Y-118273373D01*
X141485165Y-118142457D01*
X141497910Y-118053813D01*
X141505647Y-118000002D01*
X141505647Y-117999997D01*
X141485165Y-117857543D01*
X141454085Y-117789488D01*
X141425377Y-117726627D01*
X141331128Y-117617857D01*
X141331127Y-117617856D01*
X141331126Y-117617855D01*
X141210057Y-117540049D01*
X141210054Y-117540047D01*
X141210053Y-117540047D01*
X141210050Y-117540046D01*
X141071964Y-117499500D01*
X141071961Y-117499500D01*
X140928039Y-117499500D01*
X140928035Y-117499500D01*
X140789949Y-117540046D01*
X140789942Y-117540049D01*
X140668873Y-117617855D01*
X140574622Y-117726628D01*
X140514834Y-117857543D01*
X140494353Y-117999997D01*
X140494353Y-118000002D01*
X138826000Y-118000002D01*
X138826000Y-117745999D01*
X139334000Y-117745999D01*
X139334001Y-117746000D01*
X139866539Y-117746000D01*
X139865109Y-117727829D01*
X139865107Y-117727822D01*
X139819431Y-117570604D01*
X139748340Y-117450395D01*
X139734993Y-117390683D01*
X139748340Y-117349605D01*
X139819431Y-117229395D01*
X139865107Y-117072177D01*
X139865109Y-117072170D01*
X139866539Y-117054000D01*
X139334001Y-117054000D01*
X139334000Y-117054001D01*
X139334000Y-117745999D01*
X138826000Y-117745999D01*
X138826000Y-116645000D01*
X138844907Y-116586809D01*
X138894407Y-116550845D01*
X138925000Y-116546000D01*
X139866539Y-116546000D01*
X139865109Y-116527829D01*
X139865108Y-116527825D01*
X139852556Y-116484621D01*
X139854478Y-116423466D01*
X139891978Y-116375119D01*
X139947625Y-116358000D01*
X140198587Y-116358000D01*
X140259088Y-116351495D01*
X140259098Y-116351493D01*
X140395960Y-116300447D01*
X140512899Y-116212907D01*
X140512907Y-116212899D01*
X140600447Y-116095960D01*
X140651493Y-115959098D01*
X140651495Y-115959088D01*
X140658000Y-115898587D01*
X140658000Y-115654001D01*
X140657999Y-115654000D01*
X138842001Y-115654000D01*
X138842000Y-115654001D01*
X138842000Y-115898590D01*
X138842002Y-115898608D01*
X138842001Y-115898611D01*
X138842142Y-115901236D01*
X138841441Y-115901273D01*
X138829417Y-115958485D01*
X138784041Y-115999530D01*
X138771190Y-116004250D01*
X138680600Y-116030570D01*
X138542189Y-116112425D01*
X138482477Y-116125772D01*
X138426324Y-116101471D01*
X138395179Y-116048806D01*
X138400938Y-115987893D01*
X138409473Y-115972220D01*
X138438867Y-115928231D01*
X138450500Y-115869748D01*
X138450500Y-115145999D01*
X138842000Y-115145999D01*
X138842001Y-115146000D01*
X139495999Y-115146000D01*
X139496000Y-115145999D01*
X140004000Y-115145999D01*
X140004001Y-115146000D01*
X140657999Y-115146000D01*
X140658000Y-115145999D01*
X140658000Y-114901412D01*
X140651495Y-114840911D01*
X140651493Y-114840901D01*
X140636239Y-114800002D01*
X140894353Y-114800002D01*
X140914834Y-114942456D01*
X140974622Y-115073371D01*
X140974623Y-115073373D01*
X141040587Y-115149500D01*
X141068873Y-115182144D01*
X141189942Y-115259950D01*
X141189947Y-115259953D01*
X141296403Y-115291211D01*
X141328035Y-115300499D01*
X141328036Y-115300499D01*
X141328039Y-115300500D01*
X141328041Y-115300500D01*
X141434521Y-115300500D01*
X141492712Y-115319407D01*
X141504525Y-115329496D01*
X143260504Y-117085475D01*
X143288281Y-117139992D01*
X143289500Y-117155479D01*
X143289500Y-117365024D01*
X143270593Y-117423215D01*
X143260504Y-117435028D01*
X143259597Y-117435934D01*
X143259596Y-117435935D01*
X143212001Y-117483530D01*
X143175933Y-117519598D01*
X143125932Y-117626824D01*
X143125932Y-117626825D01*
X143123890Y-117642339D01*
X143119500Y-117675684D01*
X143119500Y-118124316D01*
X143122541Y-118147416D01*
X143125932Y-118173174D01*
X143125932Y-118173175D01*
X143175933Y-118280401D01*
X143175934Y-118280402D01*
X143175935Y-118280404D01*
X143259596Y-118364065D01*
X143259597Y-118364065D01*
X143259598Y-118364066D01*
X143366824Y-118414067D01*
X143366825Y-118414067D01*
X143366827Y-118414068D01*
X143415684Y-118420500D01*
X143415685Y-118420500D01*
X143764314Y-118420500D01*
X143764316Y-118420500D01*
X143813173Y-118414068D01*
X143817572Y-118412016D01*
X143878298Y-118404558D01*
X143931814Y-118434219D01*
X143944625Y-118451345D01*
X143962889Y-118482228D01*
X144077771Y-118597110D01*
X144217601Y-118679805D01*
X144356000Y-118720013D01*
X144864000Y-118720013D01*
X145002398Y-118679805D01*
X145002399Y-118679805D01*
X145142228Y-118597110D01*
X145257110Y-118482228D01*
X145339805Y-118342399D01*
X145339805Y-118342398D01*
X145385131Y-118186386D01*
X145387681Y-118154000D01*
X144864001Y-118154000D01*
X144864000Y-118154001D01*
X144864000Y-118720013D01*
X144356000Y-118720013D01*
X144356000Y-117745000D01*
X144374907Y-117686809D01*
X144424407Y-117650845D01*
X144455000Y-117646000D01*
X145387680Y-117646000D01*
X145385131Y-117613613D01*
X145339805Y-117457601D01*
X145339805Y-117457600D01*
X145257110Y-117317771D01*
X145142230Y-117202891D01*
X145132630Y-117197214D01*
X145092167Y-117151318D01*
X145086409Y-117090404D01*
X145117555Y-117037739D01*
X145173708Y-117013439D01*
X145183025Y-117013000D01*
X145406275Y-117013000D01*
X145406279Y-117012999D01*
X145544598Y-116998461D01*
X145721131Y-116941101D01*
X145721136Y-116941099D01*
X145881869Y-116848298D01*
X145997705Y-116744000D01*
X148301261Y-116744000D01*
X148305588Y-116764355D01*
X148305591Y-116764365D01*
X148381083Y-116933925D01*
X148381085Y-116933928D01*
X148490188Y-117084096D01*
X148628130Y-117208298D01*
X148788863Y-117301099D01*
X148788868Y-117301101D01*
X148965401Y-117358461D01*
X149103720Y-117372999D01*
X149103725Y-117373000D01*
X149195999Y-117373000D01*
X149196000Y-117372999D01*
X149196000Y-116744001D01*
X149195999Y-116744000D01*
X148301261Y-116744000D01*
X145997705Y-116744000D01*
X146019811Y-116724096D01*
X146128914Y-116573928D01*
X146128916Y-116573925D01*
X146204408Y-116404365D01*
X146204411Y-116404355D01*
X146208738Y-116384000D01*
X143911261Y-116384000D01*
X143915588Y-116404355D01*
X143915591Y-116404365D01*
X143991083Y-116573925D01*
X143991085Y-116573928D01*
X144100188Y-116724096D01*
X144238128Y-116848297D01*
X144343539Y-116909157D01*
X144384479Y-116954627D01*
X144390874Y-117015477D01*
X144360281Y-117068465D01*
X144321659Y-117089962D01*
X144217600Y-117120194D01*
X144077771Y-117202889D01*
X144059504Y-117221157D01*
X144004987Y-117248934D01*
X143944555Y-117239363D01*
X143901290Y-117196098D01*
X143890500Y-117151153D01*
X143890500Y-117055169D01*
X143892731Y-117041496D01*
X143891505Y-117041325D01*
X143892773Y-117032233D01*
X143890606Y-116985358D01*
X143890500Y-116980786D01*
X143890500Y-116962160D01*
X143890500Y-116962156D01*
X143890478Y-116962042D01*
X143888898Y-116948430D01*
X143887585Y-116920009D01*
X143883613Y-116911014D01*
X143876865Y-116889220D01*
X143875061Y-116879567D01*
X143860087Y-116855383D01*
X143853692Y-116843250D01*
X143842207Y-116817236D01*
X143835257Y-116810286D01*
X143821088Y-116792396D01*
X143815920Y-116784049D01*
X143815919Y-116784048D01*
X143793221Y-116766907D01*
X143782879Y-116757908D01*
X143154971Y-116130000D01*
X144505103Y-116130000D01*
X144524507Y-116227550D01*
X144579764Y-116310249D01*
X144662463Y-116365506D01*
X144735389Y-116380012D01*
X145384611Y-116380012D01*
X145457537Y-116365506D01*
X145540236Y-116310249D01*
X145589848Y-116235999D01*
X148301261Y-116235999D01*
X148301262Y-116236000D01*
X149195999Y-116236000D01*
X149196000Y-116235999D01*
X149196000Y-115607001D01*
X149195999Y-115607000D01*
X149103720Y-115607000D01*
X148965401Y-115621538D01*
X148788868Y-115678898D01*
X148788863Y-115678900D01*
X148628130Y-115771701D01*
X148490188Y-115895903D01*
X148381085Y-116046071D01*
X148381083Y-116046074D01*
X148305591Y-116215634D01*
X148305588Y-116215644D01*
X148301261Y-116235999D01*
X145589848Y-116235999D01*
X145595493Y-116227550D01*
X145614897Y-116130000D01*
X145595493Y-116032450D01*
X145540236Y-115949751D01*
X145457537Y-115894494D01*
X145384611Y-115879988D01*
X144735389Y-115879988D01*
X144662463Y-115894494D01*
X144579764Y-115949751D01*
X144524507Y-116032450D01*
X144505103Y-116130000D01*
X143154971Y-116130000D01*
X142900970Y-115875999D01*
X143911261Y-115875999D01*
X143911262Y-115876000D01*
X144805999Y-115876000D01*
X144806000Y-115875999D01*
X144806000Y-115505211D01*
X144547789Y-115247000D01*
X145310831Y-115247000D01*
X145314000Y-115261643D01*
X145314000Y-115875999D01*
X145314001Y-115876000D01*
X146208738Y-115876000D01*
X146208738Y-115875999D01*
X146204411Y-115855644D01*
X146204408Y-115855634D01*
X146128916Y-115686074D01*
X146128914Y-115686071D01*
X146019811Y-115535903D01*
X145881869Y-115411701D01*
X145721136Y-115318900D01*
X145721131Y-115318898D01*
X145544598Y-115261538D01*
X145406279Y-115247000D01*
X145310831Y-115247000D01*
X144547789Y-115247000D01*
X144459999Y-115159210D01*
X144085886Y-115533322D01*
X144079840Y-115562851D01*
X144073830Y-115572181D01*
X143991088Y-115686066D01*
X143991083Y-115686074D01*
X143915591Y-115855634D01*
X143915588Y-115855644D01*
X143911261Y-115875999D01*
X142900970Y-115875999D01*
X142601975Y-115577004D01*
X142574198Y-115522487D01*
X142583769Y-115462055D01*
X142627034Y-115418790D01*
X142671979Y-115408000D01*
X142999999Y-115408000D01*
X143000000Y-115407999D01*
X143300000Y-115407999D01*
X143300001Y-115408000D01*
X143798586Y-115408000D01*
X143858103Y-115401600D01*
X143748650Y-115292147D01*
X143720873Y-115237630D01*
X143730444Y-115177198D01*
X143748650Y-115152139D01*
X144055140Y-114845649D01*
X144260000Y-114845649D01*
X144299613Y-114927905D01*
X144370992Y-114984827D01*
X144437468Y-115000000D01*
X144482532Y-115000000D01*
X144549008Y-114984827D01*
X144620387Y-114927905D01*
X144660000Y-114845649D01*
X144660000Y-114799999D01*
X144819210Y-114799999D01*
X145184646Y-115165435D01*
X145203919Y-115163265D01*
X145204998Y-115163485D01*
X145204998Y-115117407D01*
X145205709Y-115115301D01*
X145252725Y-114980938D01*
X145252726Y-114980937D01*
X145273112Y-114800000D01*
X145252726Y-114619062D01*
X145252725Y-114619058D01*
X145192591Y-114447208D01*
X145192587Y-114447200D01*
X145184646Y-114434563D01*
X145184645Y-114434563D01*
X144819210Y-114799999D01*
X144660000Y-114799999D01*
X144660000Y-114754351D01*
X144620387Y-114672095D01*
X144549008Y-114615173D01*
X144482532Y-114600000D01*
X144437468Y-114600000D01*
X144370992Y-114615173D01*
X144299613Y-114672095D01*
X144260000Y-114754351D01*
X144260000Y-114845649D01*
X144055140Y-114845649D01*
X144460000Y-114440790D01*
X144825435Y-114075353D01*
X144825435Y-114075351D01*
X144812802Y-114067414D01*
X144812792Y-114067408D01*
X144640941Y-114007274D01*
X144640937Y-114007273D01*
X144460000Y-113986887D01*
X144279062Y-114007273D01*
X144279058Y-114007274D01*
X144107207Y-114067408D01*
X144107198Y-114067413D01*
X144025157Y-114118962D01*
X143965826Y-114133912D01*
X143937891Y-114127894D01*
X143859099Y-114098506D01*
X143859088Y-114098504D01*
X143798587Y-114092000D01*
X143300001Y-114092000D01*
X143300000Y-114092001D01*
X143300000Y-115407999D01*
X143000000Y-115407999D01*
X143000000Y-114092001D01*
X142999999Y-114092000D01*
X142501413Y-114092000D01*
X142440911Y-114098504D01*
X142440901Y-114098506D01*
X142304039Y-114149552D01*
X142187100Y-114237092D01*
X142187092Y-114237100D01*
X142099552Y-114354039D01*
X142048506Y-114490901D01*
X142048504Y-114490911D01*
X142041999Y-114551418D01*
X142041995Y-114551500D01*
X142041988Y-114551515D01*
X142041717Y-114554045D01*
X142041041Y-114553972D01*
X142019983Y-114608589D01*
X141968619Y-114641837D01*
X141907523Y-114638544D01*
X141860030Y-114599968D01*
X141853088Y-114587307D01*
X141825377Y-114526627D01*
X141731128Y-114417857D01*
X141731127Y-114417856D01*
X141731126Y-114417855D01*
X141610057Y-114340049D01*
X141610054Y-114340047D01*
X141610053Y-114340047D01*
X141610050Y-114340046D01*
X141471964Y-114299500D01*
X141471961Y-114299500D01*
X141328039Y-114299500D01*
X141328035Y-114299500D01*
X141189949Y-114340046D01*
X141189942Y-114340049D01*
X141068873Y-114417855D01*
X140974622Y-114526628D01*
X140914834Y-114657543D01*
X140894353Y-114799997D01*
X140894353Y-114800002D01*
X140636239Y-114800002D01*
X140600447Y-114704039D01*
X140512907Y-114587100D01*
X140512899Y-114587092D01*
X140395960Y-114499552D01*
X140259098Y-114448506D01*
X140259088Y-114448504D01*
X140198587Y-114442000D01*
X140004001Y-114442000D01*
X140004000Y-114442001D01*
X140004000Y-115145999D01*
X139496000Y-115145999D01*
X139496000Y-114442001D01*
X139495999Y-114442000D01*
X139301413Y-114442000D01*
X139240911Y-114448504D01*
X139240901Y-114448506D01*
X139104039Y-114499552D01*
X138987100Y-114587092D01*
X138987092Y-114587100D01*
X138899552Y-114704039D01*
X138848506Y-114840901D01*
X138848504Y-114840911D01*
X138842000Y-114901412D01*
X138842000Y-115145999D01*
X138450500Y-115145999D01*
X138450500Y-114930252D01*
X138438867Y-114871769D01*
X138394552Y-114805448D01*
X138386399Y-114800000D01*
X138328233Y-114761134D01*
X138328231Y-114761133D01*
X138328228Y-114761132D01*
X138328227Y-114761132D01*
X138269758Y-114749501D01*
X138269748Y-114749500D01*
X138269747Y-114749500D01*
X138255901Y-114749500D01*
X138197710Y-114730593D01*
X138161746Y-114681093D01*
X138161746Y-114619907D01*
X138185897Y-114580496D01*
X138686897Y-114079496D01*
X138741414Y-114051719D01*
X138756901Y-114050500D01*
X139219747Y-114050500D01*
X139219748Y-114050500D01*
X139278231Y-114038867D01*
X139344552Y-113994552D01*
X139388867Y-113928231D01*
X139396604Y-113889337D01*
X139398425Y-113880184D01*
X139428322Y-113826801D01*
X139483888Y-113801186D01*
X139495522Y-113800500D01*
X143063432Y-113800500D01*
X143063433Y-113800500D01*
X143086382Y-113793043D01*
X143101465Y-113789421D01*
X143125304Y-113785646D01*
X143146802Y-113774690D01*
X143161151Y-113768748D01*
X143184090Y-113761296D01*
X143203612Y-113747111D01*
X143216849Y-113739000D01*
X143238342Y-113728050D01*
X143255262Y-113711128D01*
X143255267Y-113711125D01*
X143260907Y-113705484D01*
X143260909Y-113705484D01*
X143278653Y-113687740D01*
X143286899Y-113679495D01*
X143341416Y-113651719D01*
X143356901Y-113650500D01*
X144207712Y-113650500D01*
X144243083Y-113658195D01*
X144243153Y-113657958D01*
X144246468Y-113658931D01*
X144248838Y-113659447D01*
X144249943Y-113659951D01*
X144249944Y-113659951D01*
X144249947Y-113659953D01*
X144344582Y-113687740D01*
X144388035Y-113700499D01*
X144388036Y-113700499D01*
X144388039Y-113700500D01*
X144388041Y-113700500D01*
X144531959Y-113700500D01*
X144531961Y-113700500D01*
X144670053Y-113659953D01*
X144791128Y-113582143D01*
X144885377Y-113473373D01*
X144944502Y-113343908D01*
X144985871Y-113298834D01*
X145045838Y-113286683D01*
X145062436Y-113290046D01*
X145098039Y-113300500D01*
X145098041Y-113300500D01*
X145241959Y-113300500D01*
X145241961Y-113300500D01*
X145380053Y-113259953D01*
X145501128Y-113182143D01*
X145595377Y-113073373D01*
X145655165Y-112942457D01*
X145669775Y-112840842D01*
X145675647Y-112800002D01*
X145675647Y-112800000D01*
X145672558Y-112778518D01*
X145682990Y-112718228D01*
X145700543Y-112694426D01*
X146566405Y-111828564D01*
X146577664Y-111820493D01*
X146576905Y-111819487D01*
X146584221Y-111813961D01*
X146584228Y-111813958D01*
X146615877Y-111779239D01*
X146618995Y-111775974D01*
X146632174Y-111762797D01*
X146632238Y-111762702D01*
X146640753Y-111751953D01*
X146659916Y-111730933D01*
X146663466Y-111721767D01*
X146674107Y-111701581D01*
X146679657Y-111693480D01*
X146686170Y-111665786D01*
X146690218Y-111652712D01*
X146700500Y-111626173D01*
X146700500Y-111616348D01*
X146703129Y-111593683D01*
X146705379Y-111584119D01*
X146702399Y-111562753D01*
X146701449Y-111555944D01*
X146700500Y-111542268D01*
X146700500Y-107765169D01*
X146700691Y-107764000D01*
X148301261Y-107764000D01*
X148305588Y-107784355D01*
X148305591Y-107784365D01*
X148381083Y-107953925D01*
X148381085Y-107953928D01*
X148490188Y-108104096D01*
X148628130Y-108228298D01*
X148788863Y-108321099D01*
X148788868Y-108321101D01*
X148965401Y-108378461D01*
X149103720Y-108392999D01*
X149103725Y-108393000D01*
X149195999Y-108393000D01*
X149196000Y-108392999D01*
X149196000Y-107764001D01*
X149195999Y-107764000D01*
X148301261Y-107764000D01*
X146700691Y-107764000D01*
X146702731Y-107751496D01*
X146701505Y-107751325D01*
X146702773Y-107742233D01*
X146700606Y-107695358D01*
X146700500Y-107690786D01*
X146700500Y-107672160D01*
X146700500Y-107672156D01*
X146700478Y-107672042D01*
X146698898Y-107658430D01*
X146697585Y-107630009D01*
X146693613Y-107621014D01*
X146686865Y-107599220D01*
X146685061Y-107589567D01*
X146670087Y-107565383D01*
X146663692Y-107553250D01*
X146663481Y-107552773D01*
X146656458Y-107536865D01*
X146652207Y-107527236D01*
X146645257Y-107520286D01*
X146631088Y-107502396D01*
X146625920Y-107494049D01*
X146625919Y-107494048D01*
X146603221Y-107476907D01*
X146592879Y-107467908D01*
X146380970Y-107255999D01*
X148301261Y-107255999D01*
X148301262Y-107256000D01*
X149195999Y-107256000D01*
X149196000Y-107255999D01*
X149196000Y-106627001D01*
X149195999Y-106627000D01*
X149103720Y-106627000D01*
X148965401Y-106641538D01*
X148788868Y-106698898D01*
X148788863Y-106698900D01*
X148628130Y-106791701D01*
X148490188Y-106915903D01*
X148381085Y-107066071D01*
X148381083Y-107066074D01*
X148305591Y-107235634D01*
X148305588Y-107235644D01*
X148301261Y-107255999D01*
X146380970Y-107255999D01*
X145858565Y-106733594D01*
X145850479Y-106722344D01*
X145849487Y-106723094D01*
X145843958Y-106715772D01*
X145809272Y-106684151D01*
X145805968Y-106680996D01*
X145792800Y-106667828D01*
X145792796Y-106667825D01*
X145792693Y-106667755D01*
X145781962Y-106659255D01*
X145760933Y-106640084D01*
X145751762Y-106636531D01*
X145731586Y-106625895D01*
X145723484Y-106620345D01*
X145723479Y-106620343D01*
X145695797Y-106613832D01*
X145682703Y-106609777D01*
X145656177Y-106599500D01*
X145656173Y-106599500D01*
X145646348Y-106599500D01*
X145623683Y-106596870D01*
X145614119Y-106594621D01*
X145614118Y-106594621D01*
X145585946Y-106598551D01*
X145572269Y-106599500D01*
X145455072Y-106599500D01*
X145396881Y-106580593D01*
X145360917Y-106531093D01*
X145360003Y-106472880D01*
X145385131Y-106386386D01*
X145387681Y-106354000D01*
X144455000Y-106354000D01*
X144396809Y-106335093D01*
X144360845Y-106285593D01*
X144356000Y-106255000D01*
X144356000Y-105279985D01*
X144864000Y-105279985D01*
X144864000Y-105845999D01*
X144864001Y-105846000D01*
X145387680Y-105846000D01*
X145385131Y-105813613D01*
X145339805Y-105657601D01*
X145339805Y-105657600D01*
X145257110Y-105517771D01*
X145142228Y-105402889D01*
X145002399Y-105320194D01*
X145002395Y-105320193D01*
X144864000Y-105279985D01*
X144356000Y-105279985D01*
X144217604Y-105320193D01*
X144217600Y-105320194D01*
X144077771Y-105402889D01*
X143962889Y-105517771D01*
X143944624Y-105548655D01*
X143898727Y-105589117D01*
X143837813Y-105594873D01*
X143817576Y-105587984D01*
X143813178Y-105585933D01*
X143813176Y-105585932D01*
X143776530Y-105581108D01*
X143764316Y-105579500D01*
X143415684Y-105579500D01*
X143399398Y-105581644D01*
X143366825Y-105585932D01*
X143366824Y-105585932D01*
X143259598Y-105635933D01*
X143175933Y-105719598D01*
X143125932Y-105826824D01*
X143125932Y-105826825D01*
X143119500Y-105875685D01*
X143119500Y-106324314D01*
X143125932Y-106373174D01*
X143125932Y-106373175D01*
X143175933Y-106480401D01*
X143175934Y-106480402D01*
X143175935Y-106480404D01*
X143259596Y-106564065D01*
X143259597Y-106564065D01*
X143259598Y-106564066D01*
X143366824Y-106614067D01*
X143366825Y-106614067D01*
X143366827Y-106614068D01*
X143415684Y-106620500D01*
X143644521Y-106620500D01*
X143702712Y-106639407D01*
X143714525Y-106649496D01*
X144131436Y-107066407D01*
X144139537Y-107077647D01*
X144140516Y-107076909D01*
X144146039Y-107084222D01*
X144146042Y-107084228D01*
X144147943Y-107085961D01*
X144148284Y-107086272D01*
X144150418Y-107090022D01*
X144151572Y-107091550D01*
X144151373Y-107091700D01*
X144178549Y-107139448D01*
X144171778Y-107200257D01*
X144147831Y-107233004D01*
X144100192Y-107275897D01*
X144100191Y-107275898D01*
X143991085Y-107426071D01*
X143991083Y-107426074D01*
X143915592Y-107595632D01*
X143915590Y-107595638D01*
X143883613Y-107746083D01*
X143853020Y-107799071D01*
X143797125Y-107823958D01*
X143786776Y-107824500D01*
X143772279Y-107824500D01*
X143659767Y-107839312D01*
X143659761Y-107839314D01*
X143519768Y-107897301D01*
X143399551Y-107989547D01*
X143399547Y-107989551D01*
X143307301Y-108109768D01*
X143249314Y-108249761D01*
X143249312Y-108249767D01*
X143229534Y-108399999D01*
X143229534Y-108400000D01*
X143249312Y-108550232D01*
X143249313Y-108550237D01*
X143260674Y-108577663D01*
X143290772Y-108650327D01*
X143292464Y-108654410D01*
X143300000Y-108692296D01*
X143300000Y-109301000D01*
X143281093Y-109359191D01*
X143231593Y-109395155D01*
X143201000Y-109400000D01*
X142042001Y-109400000D01*
X142042000Y-109400001D01*
X142042000Y-109448587D01*
X142048504Y-109509088D01*
X142048506Y-109509098D01*
X142099553Y-109645961D01*
X142102946Y-109652175D01*
X142100226Y-109653659D01*
X142115704Y-109699105D01*
X142097619Y-109757557D01*
X142048630Y-109794214D01*
X142016714Y-109799500D01*
X140824500Y-109799500D01*
X140766309Y-109780593D01*
X140730345Y-109731093D01*
X140725500Y-109700500D01*
X140725500Y-109099999D01*
X142042000Y-109099999D01*
X142042001Y-109100000D01*
X142999999Y-109100000D01*
X143000000Y-109099999D01*
X143000000Y-108592001D01*
X142999999Y-108592000D01*
X142501413Y-108592000D01*
X142440911Y-108598504D01*
X142440901Y-108598506D01*
X142304039Y-108649552D01*
X142187100Y-108737092D01*
X142187092Y-108737100D01*
X142099552Y-108854039D01*
X142048506Y-108990901D01*
X142048504Y-108990911D01*
X142042000Y-109051412D01*
X142042000Y-109099999D01*
X140725500Y-109099999D01*
X140725500Y-108722455D01*
X140727731Y-108708778D01*
X140726506Y-108708608D01*
X140727774Y-108699516D01*
X140725606Y-108652619D01*
X140725500Y-108648047D01*
X140725500Y-108629443D01*
X140725500Y-108629439D01*
X140725479Y-108629329D01*
X140723900Y-108615726D01*
X140722586Y-108587292D01*
X140718615Y-108578301D01*
X140711864Y-108556500D01*
X140710061Y-108546850D01*
X140695086Y-108522666D01*
X140688697Y-108510544D01*
X140677206Y-108484518D01*
X140677204Y-108484516D01*
X140677204Y-108484515D01*
X140670256Y-108477567D01*
X140656090Y-108459682D01*
X140650919Y-108451331D01*
X140628221Y-108434190D01*
X140617879Y-108425191D01*
X140101282Y-107908594D01*
X140093196Y-107897344D01*
X140092204Y-107898094D01*
X140086675Y-107890772D01*
X140051989Y-107859151D01*
X140048685Y-107855996D01*
X140035517Y-107842828D01*
X140035513Y-107842825D01*
X140035410Y-107842755D01*
X140024679Y-107834255D01*
X140003650Y-107815084D01*
X139994479Y-107811531D01*
X139974303Y-107800895D01*
X139966201Y-107795345D01*
X139966196Y-107795343D01*
X139938514Y-107788832D01*
X139925420Y-107784777D01*
X139898894Y-107774500D01*
X139898890Y-107774500D01*
X139889065Y-107774500D01*
X139866400Y-107771870D01*
X139856836Y-107769621D01*
X139856835Y-107769621D01*
X139828663Y-107773551D01*
X139814986Y-107774500D01*
X139679500Y-107774500D01*
X139621309Y-107755593D01*
X139585345Y-107706093D01*
X139580500Y-107675500D01*
X139580500Y-107475685D01*
X139579476Y-107467908D01*
X139574068Y-107426827D01*
X139534010Y-107340924D01*
X139526554Y-107280196D01*
X139556217Y-107226682D01*
X139573342Y-107213872D01*
X139620316Y-107186092D01*
X139736090Y-107070318D01*
X139819431Y-106929395D01*
X139865107Y-106772177D01*
X139865109Y-106772170D01*
X139866539Y-106754000D01*
X138925000Y-106754000D01*
X138866809Y-106735093D01*
X138830845Y-106685593D01*
X138826000Y-106655000D01*
X138826000Y-106245999D01*
X139334000Y-106245999D01*
X139334001Y-106246000D01*
X139866539Y-106246000D01*
X139865109Y-106227829D01*
X139865107Y-106227822D01*
X139819431Y-106070604D01*
X139777677Y-106000002D01*
X140494353Y-106000002D01*
X140514834Y-106142456D01*
X140562122Y-106246000D01*
X140574623Y-106273373D01*
X140661101Y-106373175D01*
X140668873Y-106382144D01*
X140789942Y-106459950D01*
X140789947Y-106459953D01*
X140859598Y-106480404D01*
X140928035Y-106500499D01*
X140928036Y-106500499D01*
X140928039Y-106500500D01*
X140928041Y-106500500D01*
X141071959Y-106500500D01*
X141071961Y-106500500D01*
X141210053Y-106459953D01*
X141331128Y-106382143D01*
X141425377Y-106273373D01*
X141485165Y-106142457D01*
X141493417Y-106085060D01*
X141505647Y-106000002D01*
X141505647Y-105999997D01*
X141485165Y-105857543D01*
X141470727Y-105825928D01*
X141425377Y-105726627D01*
X141331128Y-105617857D01*
X141331127Y-105617856D01*
X141331126Y-105617855D01*
X141210057Y-105540049D01*
X141210054Y-105540047D01*
X141210053Y-105540047D01*
X141210050Y-105540046D01*
X141071964Y-105499500D01*
X141071961Y-105499500D01*
X140928039Y-105499500D01*
X140928035Y-105499500D01*
X140789949Y-105540046D01*
X140789942Y-105540049D01*
X140668873Y-105617855D01*
X140574622Y-105726628D01*
X140514834Y-105857543D01*
X140494353Y-105999997D01*
X140494353Y-106000002D01*
X139777677Y-106000002D01*
X139733555Y-105925395D01*
X139720208Y-105865683D01*
X139733555Y-105824605D01*
X139819431Y-105679395D01*
X139865109Y-105522173D01*
X139865109Y-105522170D01*
X139866539Y-105504000D01*
X139334001Y-105504000D01*
X139334000Y-105504001D01*
X139334000Y-106245999D01*
X138826000Y-106245999D01*
X138826000Y-104438326D01*
X139334000Y-104438326D01*
X139334000Y-104995999D01*
X139334001Y-104996000D01*
X139866539Y-104996000D01*
X139865109Y-104977829D01*
X139865107Y-104977822D01*
X139819431Y-104820604D01*
X139736090Y-104679681D01*
X139620318Y-104563909D01*
X139479396Y-104480569D01*
X139334000Y-104438326D01*
X138826000Y-104438326D01*
X138680603Y-104480569D01*
X138539681Y-104563909D01*
X138423905Y-104679685D01*
X138415419Y-104694034D01*
X138369521Y-104734495D01*
X138317290Y-104741789D01*
X138310338Y-104740874D01*
X138299901Y-104739500D01*
X138299898Y-104739500D01*
X137940104Y-104739500D01*
X137940092Y-104739501D01*
X137890513Y-104746027D01*
X137890511Y-104746027D01*
X137781686Y-104796774D01*
X137781683Y-104796776D01*
X137761119Y-104817340D01*
X137706602Y-104845116D01*
X137646170Y-104835544D01*
X137605903Y-104797730D01*
X137536090Y-104679681D01*
X137420318Y-104563909D01*
X137279396Y-104480569D01*
X137134000Y-104438326D01*
X137134000Y-105405000D01*
X137115093Y-105463191D01*
X137065593Y-105499155D01*
X137035000Y-105504000D01*
X136725000Y-105504000D01*
X136666809Y-105485093D01*
X136630845Y-105435593D01*
X136626000Y-105405000D01*
X136626000Y-104438326D01*
X136480603Y-104480569D01*
X136339681Y-104563909D01*
X136309285Y-104594306D01*
X136254768Y-104622083D01*
X136194336Y-104612512D01*
X136169277Y-104594306D01*
X136165257Y-104590286D01*
X136151088Y-104572396D01*
X136145920Y-104564049D01*
X136145919Y-104564048D01*
X136123221Y-104546907D01*
X136112879Y-104537908D01*
X135908565Y-104333594D01*
X135900479Y-104322344D01*
X135899487Y-104323094D01*
X135893958Y-104315772D01*
X135859272Y-104284151D01*
X135855968Y-104280996D01*
X135842800Y-104267828D01*
X135842796Y-104267825D01*
X135842693Y-104267755D01*
X135831962Y-104259255D01*
X135810933Y-104240084D01*
X135801762Y-104236531D01*
X135781586Y-104225895D01*
X135773484Y-104220345D01*
X135773479Y-104220343D01*
X135745797Y-104213832D01*
X135732703Y-104209777D01*
X135706177Y-104199500D01*
X135706173Y-104199500D01*
X135696348Y-104199500D01*
X135673683Y-104196870D01*
X135664119Y-104194621D01*
X135664118Y-104194621D01*
X135635946Y-104198551D01*
X135622269Y-104199500D01*
X131675516Y-104199500D01*
X131617325Y-104180593D01*
X131581361Y-104131093D01*
X131581361Y-104069907D01*
X131617325Y-104020407D01*
X131653486Y-104003982D01*
X131663180Y-104001769D01*
X131674660Y-103999149D01*
X131759418Y-103958332D01*
X131781351Y-103947770D01*
X131827548Y-103910929D01*
X131873936Y-103873936D01*
X131947769Y-103781352D01*
X131947768Y-103781352D01*
X131947770Y-103781351D01*
X131969007Y-103737250D01*
X131999149Y-103674660D01*
X132025500Y-103559210D01*
X132025500Y-103500000D01*
X132025500Y-103491715D01*
X132025500Y-100252435D01*
X132025560Y-100250006D01*
X132286911Y-100250006D01*
X132307250Y-100638106D01*
X132307253Y-100638134D01*
X132368049Y-101021990D01*
X132368050Y-101021992D01*
X132468642Y-101397405D01*
X132468649Y-101397428D01*
X132607922Y-101760246D01*
X132784368Y-102106540D01*
X132784374Y-102106551D01*
X132996050Y-102432501D01*
X133202876Y-102687910D01*
X134699993Y-101190792D01*
X134701570Y-101193365D01*
X134865130Y-101384870D01*
X135056635Y-101548430D01*
X135059205Y-101550004D01*
X133562088Y-103047122D01*
X133817498Y-103253949D01*
X134143448Y-103465625D01*
X134143459Y-103465631D01*
X134489753Y-103642077D01*
X134852571Y-103781350D01*
X134852594Y-103781357D01*
X135228007Y-103881949D01*
X135228009Y-103881950D01*
X135611865Y-103942746D01*
X135611893Y-103942749D01*
X135999994Y-103963089D01*
X136000006Y-103963089D01*
X136388106Y-103942749D01*
X136388134Y-103942746D01*
X136771990Y-103881950D01*
X136771992Y-103881949D01*
X137147405Y-103781357D01*
X137147428Y-103781350D01*
X137510246Y-103642077D01*
X137856540Y-103465631D01*
X137856551Y-103465624D01*
X138182492Y-103253956D01*
X138182502Y-103253949D01*
X138437910Y-103047122D01*
X136940793Y-101550005D01*
X136943365Y-101548430D01*
X137134870Y-101384870D01*
X137298430Y-101193365D01*
X137300005Y-101190793D01*
X138797122Y-102687910D01*
X139003949Y-102432502D01*
X139003956Y-102432492D01*
X139215624Y-102106551D01*
X139215631Y-102106540D01*
X139392077Y-101760246D01*
X139531350Y-101397428D01*
X139531357Y-101397405D01*
X139631949Y-101021992D01*
X139631950Y-101021990D01*
X139692746Y-100638134D01*
X139692749Y-100638106D01*
X139713089Y-100250006D01*
X139713089Y-100249993D01*
X139692749Y-99861893D01*
X139692746Y-99861865D01*
X139631950Y-99478009D01*
X139631949Y-99478007D01*
X139531357Y-99102594D01*
X139531350Y-99102571D01*
X139392077Y-98739753D01*
X139215631Y-98393461D01*
X139003949Y-98067498D01*
X138797122Y-97812088D01*
X137300004Y-99309205D01*
X137298430Y-99306635D01*
X137134870Y-99115130D01*
X136943365Y-98951570D01*
X136940792Y-98949993D01*
X138437910Y-97452876D01*
X138182501Y-97246050D01*
X137856551Y-97034374D01*
X137856540Y-97034368D01*
X137510246Y-96857922D01*
X137147428Y-96718649D01*
X137147405Y-96718642D01*
X136771992Y-96618050D01*
X136771990Y-96618049D01*
X136388134Y-96557253D01*
X136388106Y-96557250D01*
X136000006Y-96536911D01*
X135999994Y-96536911D01*
X135611893Y-96557250D01*
X135611865Y-96557253D01*
X135228009Y-96618049D01*
X135228007Y-96618050D01*
X134852594Y-96718642D01*
X134852571Y-96718649D01*
X134489753Y-96857922D01*
X134143461Y-97034368D01*
X133817504Y-97246046D01*
X133562088Y-97452876D01*
X135059206Y-98949994D01*
X135056635Y-98951570D01*
X134865130Y-99115130D01*
X134701570Y-99306635D01*
X134699994Y-99309206D01*
X133202876Y-97812088D01*
X132996046Y-98067504D01*
X132784368Y-98393461D01*
X132607922Y-98739753D01*
X132468649Y-99102571D01*
X132468642Y-99102594D01*
X132368050Y-99478007D01*
X132368049Y-99478009D01*
X132307253Y-99861865D01*
X132307250Y-99861893D01*
X132286911Y-100249993D01*
X132286911Y-100250006D01*
X132025560Y-100250006D01*
X132025619Y-100247578D01*
X132037834Y-99998931D01*
X132044400Y-99865266D01*
X132045350Y-99855628D01*
X132101156Y-99479414D01*
X132103045Y-99469915D01*
X132195463Y-99100965D01*
X132198272Y-99091704D01*
X132326406Y-98733593D01*
X132330115Y-98724638D01*
X132492731Y-98380815D01*
X132497298Y-98372272D01*
X132692826Y-98046052D01*
X132698211Y-98037992D01*
X132924786Y-97732492D01*
X132930928Y-97725008D01*
X133186352Y-97443191D01*
X133193191Y-97436352D01*
X133475008Y-97180928D01*
X133482492Y-97174786D01*
X133787992Y-96948211D01*
X133796052Y-96942826D01*
X134122272Y-96747298D01*
X134130815Y-96742731D01*
X134474638Y-96580115D01*
X134483593Y-96576406D01*
X134841704Y-96448272D01*
X134850965Y-96445463D01*
X135219915Y-96353045D01*
X135229414Y-96351156D01*
X135605628Y-96295350D01*
X135615264Y-96294400D01*
X135995155Y-96275738D01*
X136004845Y-96275738D01*
X136384733Y-96294400D01*
G37*
G04 #@! TD.AperFunction*
G04 #@! TA.AperFunction,Conductor*
G36*
X126434495Y-112857993D02*
G01*
X126478965Y-112887707D01*
X126543281Y-112900500D01*
X127386718Y-112900499D01*
X127386725Y-112900497D01*
X127390790Y-112900097D01*
X127450555Y-112913206D01*
X127491200Y-112958940D01*
X127499500Y-112998620D01*
X127499500Y-113869342D01*
X127511480Y-113929572D01*
X127557117Y-113997874D01*
X127557118Y-113997875D01*
X127557121Y-113997879D01*
X127557124Y-113997881D01*
X127557125Y-113997882D01*
X127625428Y-114043519D01*
X127625427Y-114043519D01*
X127645322Y-114047476D01*
X127685660Y-114055500D01*
X127685661Y-114055500D01*
X127914339Y-114055500D01*
X127914340Y-114055500D01*
X127974572Y-114043519D01*
X127974571Y-114043519D01*
X127980686Y-114042303D01*
X128019314Y-114042303D01*
X128038278Y-114046075D01*
X128085660Y-114055500D01*
X128085661Y-114055500D01*
X128314339Y-114055500D01*
X128314340Y-114055500D01*
X128374572Y-114043519D01*
X128374571Y-114043519D01*
X128380686Y-114042303D01*
X128419314Y-114042303D01*
X128438278Y-114046075D01*
X128485660Y-114055500D01*
X128485661Y-114055500D01*
X128714339Y-114055500D01*
X128714340Y-114055500D01*
X128774572Y-114043519D01*
X128774571Y-114043519D01*
X128780686Y-114042303D01*
X128819314Y-114042303D01*
X128838278Y-114046075D01*
X128885660Y-114055500D01*
X128885661Y-114055500D01*
X129020500Y-114055500D01*
X129078691Y-114074407D01*
X129114655Y-114123907D01*
X129119500Y-114154500D01*
X129119500Y-114792756D01*
X129100593Y-114850947D01*
X129062340Y-114882480D01*
X129031685Y-114896774D01*
X128947026Y-114981433D01*
X128892509Y-115009210D01*
X128832077Y-114999638D01*
X128817694Y-114990682D01*
X128695960Y-114899552D01*
X128559098Y-114848506D01*
X128559088Y-114848504D01*
X128498587Y-114842000D01*
X127904001Y-114842000D01*
X127904000Y-114842001D01*
X127904000Y-116155000D01*
X127885093Y-116213191D01*
X127835593Y-116249155D01*
X127805000Y-116254000D01*
X127495000Y-116254000D01*
X127436809Y-116235093D01*
X127400845Y-116185593D01*
X127396000Y-116155000D01*
X127396000Y-114842001D01*
X127395999Y-114842000D01*
X126801413Y-114842000D01*
X126740911Y-114848504D01*
X126740901Y-114848506D01*
X126604039Y-114899552D01*
X126487100Y-114987092D01*
X126487092Y-114987100D01*
X126458753Y-115024957D01*
X126408744Y-115060210D01*
X126347565Y-115059336D01*
X126298584Y-115022668D01*
X126280500Y-114965628D01*
X126280500Y-112940312D01*
X126299407Y-112882121D01*
X126348907Y-112846157D01*
X126410093Y-112846157D01*
X126434495Y-112857993D01*
G37*
G04 #@! TD.AperFunction*
G04 #@! TA.AperFunction,Conductor*
G36*
X137578691Y-108844407D02*
G01*
X137614655Y-108893907D01*
X137619500Y-108924500D01*
X137619500Y-108981310D01*
X137600593Y-109039501D01*
X137552227Y-109074640D01*
X137534000Y-109088326D01*
X137534000Y-109645999D01*
X137534001Y-109646000D01*
X138066539Y-109646000D01*
X138065109Y-109627829D01*
X138065108Y-109627825D01*
X138041661Y-109547121D01*
X138043583Y-109485966D01*
X138081083Y-109437619D01*
X138136730Y-109420500D01*
X138264314Y-109420500D01*
X138264316Y-109420500D01*
X138313173Y-109414068D01*
X138420404Y-109364065D01*
X138504065Y-109280404D01*
X138510275Y-109267085D01*
X138552003Y-109222337D01*
X138612064Y-109210662D01*
X138667517Y-109236519D01*
X138689724Y-109267084D01*
X138695935Y-109280404D01*
X138779596Y-109364065D01*
X138779597Y-109364065D01*
X138779598Y-109364066D01*
X138886824Y-109414067D01*
X138886825Y-109414067D01*
X138886827Y-109414068D01*
X138935684Y-109420500D01*
X138935685Y-109420500D01*
X139284314Y-109420500D01*
X139284316Y-109420500D01*
X139333173Y-109414068D01*
X139440404Y-109364065D01*
X139505498Y-109298970D01*
X139560013Y-109271195D01*
X139620445Y-109280766D01*
X139663710Y-109324031D01*
X139674500Y-109368976D01*
X139674500Y-110817032D01*
X139655593Y-110875223D01*
X139606093Y-110911187D01*
X139544907Y-110911187D01*
X139495407Y-110875223D01*
X139485447Y-110858159D01*
X139446725Y-110773373D01*
X139425377Y-110726627D01*
X139331128Y-110617857D01*
X139331127Y-110617856D01*
X139331126Y-110617855D01*
X139210057Y-110540049D01*
X139210054Y-110540047D01*
X139210053Y-110540047D01*
X139210050Y-110540046D01*
X139071964Y-110499500D01*
X139071961Y-110499500D01*
X138928039Y-110499500D01*
X138928035Y-110499500D01*
X138789949Y-110540046D01*
X138789942Y-110540049D01*
X138668873Y-110617855D01*
X138574622Y-110726628D01*
X138514834Y-110857543D01*
X138494353Y-110999997D01*
X138494353Y-111000004D01*
X138506001Y-111081025D01*
X138495567Y-111141314D01*
X138451689Y-111183956D01*
X138391126Y-111192663D01*
X138380389Y-111190182D01*
X138374000Y-111188325D01*
X138374000Y-112673348D01*
X138355093Y-112731539D01*
X138328047Y-112752979D01*
X138329876Y-112755716D01*
X138255451Y-112805445D01*
X138255445Y-112805451D01*
X138211134Y-112871766D01*
X138211132Y-112871772D01*
X138199501Y-112930241D01*
X138199500Y-112930253D01*
X138199500Y-113393099D01*
X138180593Y-113451290D01*
X138170504Y-113463103D01*
X137563103Y-114070504D01*
X137508586Y-114098281D01*
X137493099Y-114099500D01*
X137331632Y-114099500D01*
X137278110Y-114083784D01*
X137210053Y-114040047D01*
X137210050Y-114040046D01*
X137071964Y-113999500D01*
X137071961Y-113999500D01*
X136928039Y-113999500D01*
X136928035Y-113999500D01*
X136789949Y-114040046D01*
X136789942Y-114040049D01*
X136668873Y-114117855D01*
X136574622Y-114226628D01*
X136514834Y-114357543D01*
X136500238Y-114459060D01*
X136473242Y-114513967D01*
X136419127Y-114542520D01*
X136382932Y-114542068D01*
X136319750Y-114529500D01*
X136315136Y-114529046D01*
X136259078Y-114504528D01*
X136228137Y-114451742D01*
X136234132Y-114390851D01*
X136240667Y-114378401D01*
X136242662Y-114375177D01*
X136242668Y-114375171D01*
X136245702Y-114367337D01*
X136256346Y-114347144D01*
X136261095Y-114340212D01*
X136261094Y-114340212D01*
X136261096Y-114340211D01*
X136267070Y-114314806D01*
X136271125Y-114301712D01*
X136272901Y-114297128D01*
X136280551Y-114277384D01*
X136280551Y-114268980D01*
X136283181Y-114246311D01*
X136285106Y-114238128D01*
X136281500Y-114212276D01*
X136280551Y-114198600D01*
X136280551Y-112254000D01*
X137333461Y-112254000D01*
X137334890Y-112272170D01*
X137334892Y-112272177D01*
X137380568Y-112429395D01*
X137463909Y-112570318D01*
X137579681Y-112686090D01*
X137720603Y-112769430D01*
X137866000Y-112811672D01*
X137866000Y-112254001D01*
X137865999Y-112254000D01*
X137333461Y-112254000D01*
X136280551Y-112254000D01*
X136280551Y-111885753D01*
X136281501Y-111872074D01*
X136282673Y-111863670D01*
X136280657Y-111820062D01*
X136280551Y-111815490D01*
X136280551Y-111798250D01*
X136280456Y-111797230D01*
X136279035Y-111784988D01*
X136277830Y-111758914D01*
X136274433Y-111751221D01*
X136267684Y-111729424D01*
X136266140Y-111721163D01*
X136265110Y-111719500D01*
X136253345Y-111700499D01*
X136252401Y-111698975D01*
X136246015Y-111686860D01*
X136235472Y-111662981D01*
X136235470Y-111662979D01*
X136231765Y-111654586D01*
X136233710Y-111653727D01*
X136219874Y-111606760D01*
X136240384Y-111549115D01*
X136290860Y-111514534D01*
X136318832Y-111510499D01*
X136499900Y-111510499D01*
X136517288Y-111508210D01*
X136577449Y-111519361D01*
X136615423Y-111555969D01*
X136623908Y-111570317D01*
X136739681Y-111686090D01*
X136880603Y-111769430D01*
X137026000Y-111811672D01*
X137026000Y-111745999D01*
X137534000Y-111745999D01*
X137534001Y-111746000D01*
X137865999Y-111746000D01*
X137866000Y-111745999D01*
X137866000Y-111254001D01*
X137865999Y-111254000D01*
X137534001Y-111254000D01*
X137534000Y-111254001D01*
X137534000Y-111745999D01*
X137026000Y-111745999D01*
X137026000Y-110745999D01*
X137534000Y-110745999D01*
X137534001Y-110746000D01*
X138066539Y-110746000D01*
X138065109Y-110727829D01*
X138065107Y-110727822D01*
X138019431Y-110570604D01*
X137977910Y-110500395D01*
X137964563Y-110440683D01*
X137977910Y-110399605D01*
X138019431Y-110329395D01*
X138065107Y-110172177D01*
X138065109Y-110172170D01*
X138066539Y-110154000D01*
X137534001Y-110154000D01*
X137534000Y-110154001D01*
X137534000Y-110745999D01*
X137026000Y-110745999D01*
X137026000Y-109088326D01*
X136880603Y-109130569D01*
X136739681Y-109213909D01*
X136623905Y-109329685D01*
X136615419Y-109344034D01*
X136569521Y-109384495D01*
X136517290Y-109391789D01*
X136510338Y-109390874D01*
X136499901Y-109389500D01*
X136499898Y-109389500D01*
X136293030Y-109389500D01*
X136237277Y-109371385D01*
X136237085Y-109371685D01*
X136235944Y-109370952D01*
X136234839Y-109370593D01*
X136232521Y-109368752D01*
X136110057Y-109290049D01*
X136110054Y-109290047D01*
X136110053Y-109290047D01*
X136110050Y-109290046D01*
X135971964Y-109249500D01*
X135971961Y-109249500D01*
X135932677Y-109249500D01*
X135874486Y-109230593D01*
X135838522Y-109181093D01*
X135838522Y-109119907D01*
X135862674Y-109080496D01*
X135924109Y-109019062D01*
X136088675Y-108854496D01*
X136143191Y-108826719D01*
X136158678Y-108825500D01*
X137520500Y-108825500D01*
X137578691Y-108844407D01*
G37*
G04 #@! TD.AperFunction*
G04 #@! TA.AperFunction,Conductor*
G36*
X128027881Y-107174007D02*
G01*
X128085660Y-107185500D01*
X128085661Y-107185500D01*
X128314339Y-107185500D01*
X128314340Y-107185500D01*
X128374572Y-107173519D01*
X128374571Y-107173519D01*
X128380686Y-107172303D01*
X128419314Y-107172303D01*
X128427881Y-107174007D01*
X128485660Y-107185500D01*
X128485661Y-107185500D01*
X128714339Y-107185500D01*
X128714340Y-107185500D01*
X128774572Y-107173519D01*
X128774571Y-107173519D01*
X128780686Y-107172303D01*
X128819314Y-107172303D01*
X128827881Y-107174007D01*
X128885660Y-107185500D01*
X128885661Y-107185500D01*
X129114339Y-107185500D01*
X129114340Y-107185500D01*
X129174572Y-107173519D01*
X129174571Y-107173519D01*
X129180686Y-107172303D01*
X129219314Y-107172303D01*
X129227881Y-107174007D01*
X129285660Y-107185500D01*
X129285661Y-107185500D01*
X129514339Y-107185500D01*
X129514340Y-107185500D01*
X129574572Y-107173519D01*
X129574571Y-107173519D01*
X129580686Y-107172303D01*
X129619314Y-107172303D01*
X129627881Y-107174007D01*
X129685660Y-107185500D01*
X129685661Y-107185500D01*
X129914339Y-107185500D01*
X129914340Y-107185500D01*
X129974572Y-107173519D01*
X129974571Y-107173519D01*
X129980686Y-107172303D01*
X130019314Y-107172303D01*
X130027881Y-107174007D01*
X130085660Y-107185500D01*
X130085661Y-107185500D01*
X130314339Y-107185500D01*
X130314340Y-107185500D01*
X130374572Y-107173519D01*
X130374571Y-107173519D01*
X130380686Y-107172303D01*
X130419314Y-107172303D01*
X130427881Y-107174007D01*
X130485660Y-107185500D01*
X130485661Y-107185500D01*
X130714339Y-107185500D01*
X130714340Y-107185500D01*
X130774572Y-107173519D01*
X130774571Y-107173519D01*
X130780686Y-107172303D01*
X130819314Y-107172303D01*
X130827881Y-107174007D01*
X130885660Y-107185500D01*
X130885661Y-107185500D01*
X131114339Y-107185500D01*
X131114340Y-107185500D01*
X131174572Y-107173519D01*
X131174571Y-107173519D01*
X131180686Y-107172303D01*
X131219314Y-107172303D01*
X131227881Y-107174007D01*
X131285660Y-107185500D01*
X131285661Y-107185500D01*
X131514339Y-107185500D01*
X131514340Y-107185500D01*
X131574572Y-107173519D01*
X131574571Y-107173519D01*
X131580686Y-107172303D01*
X131619314Y-107172303D01*
X131627881Y-107174007D01*
X131685660Y-107185500D01*
X131685661Y-107185500D01*
X131914339Y-107185500D01*
X131914340Y-107185500D01*
X131974572Y-107173519D01*
X131974571Y-107173519D01*
X131980686Y-107172303D01*
X132019314Y-107172303D01*
X132027881Y-107174007D01*
X132085660Y-107185500D01*
X132085661Y-107185500D01*
X132314339Y-107185500D01*
X132314340Y-107185500D01*
X132374572Y-107173519D01*
X132374571Y-107173519D01*
X132380686Y-107172303D01*
X132419314Y-107172303D01*
X132427881Y-107174007D01*
X132485660Y-107185500D01*
X132485661Y-107185500D01*
X132714339Y-107185500D01*
X132714340Y-107185500D01*
X132774572Y-107173519D01*
X132774571Y-107173519D01*
X132780686Y-107172303D01*
X132819314Y-107172303D01*
X132827881Y-107174007D01*
X132885660Y-107185500D01*
X132885661Y-107185500D01*
X133116378Y-107185500D01*
X133174569Y-107204407D01*
X133210533Y-107253907D01*
X133214902Y-107294200D01*
X133214500Y-107298282D01*
X133214500Y-107501714D01*
X133214501Y-107501724D01*
X133229195Y-107575598D01*
X133226769Y-107576080D01*
X133230465Y-107623125D01*
X133227844Y-107631188D01*
X133214500Y-107698276D01*
X133214500Y-107901714D01*
X133214501Y-107901724D01*
X133229195Y-107975598D01*
X133226769Y-107976080D01*
X133230465Y-108023125D01*
X133227844Y-108031188D01*
X133214500Y-108098276D01*
X133214500Y-108301714D01*
X133214501Y-108301724D01*
X133229195Y-108375598D01*
X133226769Y-108376080D01*
X133230465Y-108423125D01*
X133227844Y-108431188D01*
X133214500Y-108498276D01*
X133214500Y-108701714D01*
X133214501Y-108701724D01*
X133229195Y-108775598D01*
X133226769Y-108776080D01*
X133230465Y-108823125D01*
X133227844Y-108831188D01*
X133214500Y-108898276D01*
X133214500Y-109101714D01*
X133214501Y-109101724D01*
X133229195Y-109175598D01*
X133226769Y-109176080D01*
X133230465Y-109223125D01*
X133227844Y-109231188D01*
X133214500Y-109298276D01*
X133214500Y-109501714D01*
X133214501Y-109501724D01*
X133229195Y-109575598D01*
X133226769Y-109576080D01*
X133230465Y-109623125D01*
X133227844Y-109631188D01*
X133214500Y-109698276D01*
X133214500Y-109901714D01*
X133214501Y-109901724D01*
X133229195Y-109975598D01*
X133226769Y-109976080D01*
X133230465Y-110023125D01*
X133227844Y-110031188D01*
X133214500Y-110098276D01*
X133214500Y-110301714D01*
X133214501Y-110301724D01*
X133229195Y-110375598D01*
X133226769Y-110376080D01*
X133230465Y-110423125D01*
X133227844Y-110431188D01*
X133214500Y-110498276D01*
X133214500Y-110701714D01*
X133214501Y-110701724D01*
X133229195Y-110775598D01*
X133226769Y-110776080D01*
X133230465Y-110823125D01*
X133227844Y-110831188D01*
X133214500Y-110898276D01*
X133214500Y-111101714D01*
X133214501Y-111101724D01*
X133229195Y-111175598D01*
X133226769Y-111176080D01*
X133230465Y-111223125D01*
X133227844Y-111231188D01*
X133214500Y-111298276D01*
X133214500Y-111501714D01*
X133214501Y-111501724D01*
X133229195Y-111575598D01*
X133226769Y-111576080D01*
X133230465Y-111623125D01*
X133227844Y-111631188D01*
X133214500Y-111698276D01*
X133214500Y-111901714D01*
X133214501Y-111901724D01*
X133229195Y-111975598D01*
X133226769Y-111976080D01*
X133230465Y-112023125D01*
X133227844Y-112031188D01*
X133214500Y-112098276D01*
X133214500Y-112301714D01*
X133214501Y-112301719D01*
X133229195Y-112375598D01*
X133226769Y-112376080D01*
X133230465Y-112423125D01*
X133227844Y-112431188D01*
X133214500Y-112498276D01*
X133214500Y-112701717D01*
X133214903Y-112705801D01*
X133201787Y-112765564D01*
X133156049Y-112806205D01*
X133116379Y-112814500D01*
X132885657Y-112814500D01*
X132819314Y-112827697D01*
X132780686Y-112827697D01*
X132714342Y-112814500D01*
X132714340Y-112814500D01*
X132485660Y-112814500D01*
X132485657Y-112814500D01*
X132419314Y-112827697D01*
X132380686Y-112827697D01*
X132314342Y-112814500D01*
X132314340Y-112814500D01*
X132085660Y-112814500D01*
X132085657Y-112814500D01*
X132019314Y-112827697D01*
X131980686Y-112827697D01*
X131914342Y-112814500D01*
X131914340Y-112814500D01*
X131685660Y-112814500D01*
X131685657Y-112814500D01*
X131619314Y-112827697D01*
X131580686Y-112827697D01*
X131514342Y-112814500D01*
X131514340Y-112814500D01*
X131285660Y-112814500D01*
X131285657Y-112814500D01*
X131219314Y-112827697D01*
X131180686Y-112827697D01*
X131114342Y-112814500D01*
X131114340Y-112814500D01*
X131008614Y-112814500D01*
X130950423Y-112795593D01*
X130914459Y-112746093D01*
X130914459Y-112684907D01*
X130938611Y-112645496D01*
X131254612Y-112329496D01*
X131309128Y-112301719D01*
X131324615Y-112300500D01*
X132052917Y-112300500D01*
X132111108Y-112319407D01*
X132127733Y-112334667D01*
X132168872Y-112382143D01*
X132289947Y-112459953D01*
X132396403Y-112491211D01*
X132428035Y-112500499D01*
X132428036Y-112500499D01*
X132428039Y-112500500D01*
X132428041Y-112500500D01*
X132571959Y-112500500D01*
X132571961Y-112500500D01*
X132710053Y-112459953D01*
X132831128Y-112382143D01*
X132925377Y-112273373D01*
X132985165Y-112142457D01*
X132996662Y-112062490D01*
X133005647Y-112000002D01*
X133005647Y-111999997D01*
X132985165Y-111857543D01*
X132975846Y-111837137D01*
X132925377Y-111726627D01*
X132831128Y-111617857D01*
X132831127Y-111617856D01*
X132831126Y-111617855D01*
X132710057Y-111540049D01*
X132710054Y-111540048D01*
X132710053Y-111540047D01*
X132639759Y-111519407D01*
X132579108Y-111501598D01*
X132528601Y-111467062D01*
X132508040Y-111409435D01*
X132508000Y-111406608D01*
X132508000Y-110254001D01*
X132507999Y-110254000D01*
X130654001Y-110254000D01*
X130654000Y-110254001D01*
X130654000Y-112039156D01*
X130635093Y-112097347D01*
X130625004Y-112109160D01*
X130033590Y-112700573D01*
X130022361Y-112708686D01*
X130023090Y-112709651D01*
X130015771Y-112715177D01*
X129984141Y-112749873D01*
X129980989Y-112753174D01*
X129967830Y-112766334D01*
X129967818Y-112766348D01*
X129967749Y-112766450D01*
X129959260Y-112777165D01*
X129954683Y-112782187D01*
X129901512Y-112812459D01*
X129881513Y-112814500D01*
X129685657Y-112814500D01*
X129619314Y-112827697D01*
X129580686Y-112827697D01*
X129514342Y-112814500D01*
X129514340Y-112814500D01*
X129285660Y-112814500D01*
X129285657Y-112814500D01*
X129219314Y-112827697D01*
X129180686Y-112827697D01*
X129114342Y-112814500D01*
X129114340Y-112814500D01*
X128885660Y-112814500D01*
X128885657Y-112814500D01*
X128819314Y-112827697D01*
X128780686Y-112827697D01*
X128714342Y-112814500D01*
X128714340Y-112814500D01*
X128485660Y-112814500D01*
X128485657Y-112814500D01*
X128419314Y-112827697D01*
X128380686Y-112827697D01*
X128314342Y-112814500D01*
X128314340Y-112814500D01*
X128085660Y-112814500D01*
X128085657Y-112814500D01*
X128019314Y-112827697D01*
X127980686Y-112827697D01*
X127914342Y-112814500D01*
X127914340Y-112814500D01*
X127685660Y-112814500D01*
X127683622Y-112814500D01*
X127625431Y-112795593D01*
X127589467Y-112746093D01*
X127585098Y-112705800D01*
X127585497Y-112701730D01*
X127585500Y-112701719D01*
X127585499Y-112498282D01*
X127582890Y-112485165D01*
X127570805Y-112424401D01*
X127573231Y-112423918D01*
X127569530Y-112376890D01*
X127572154Y-112368812D01*
X127572706Y-112366036D01*
X127572707Y-112366035D01*
X127585500Y-112301719D01*
X127585499Y-112098282D01*
X127584818Y-112094860D01*
X127570805Y-112024401D01*
X127573231Y-112023918D01*
X127569530Y-111976890D01*
X127572154Y-111968812D01*
X127572706Y-111966036D01*
X127572707Y-111966035D01*
X127585500Y-111901719D01*
X127585499Y-111698282D01*
X127576101Y-111651030D01*
X127576390Y-111648587D01*
X128292000Y-111648587D01*
X128298504Y-111709088D01*
X128298506Y-111709098D01*
X128349552Y-111845960D01*
X128437092Y-111962899D01*
X128437100Y-111962907D01*
X128554039Y-112050447D01*
X128690901Y-112101493D01*
X128690911Y-112101495D01*
X128751413Y-112108000D01*
X130145999Y-112108000D01*
X130146000Y-112107999D01*
X130146000Y-110254001D01*
X130145999Y-110254000D01*
X128292001Y-110254000D01*
X128292000Y-110254001D01*
X128292000Y-111648587D01*
X127576390Y-111648587D01*
X127583293Y-111590272D01*
X127621213Y-111549180D01*
X127620815Y-111548656D01*
X127623754Y-111546427D01*
X127624679Y-111545425D01*
X127626213Y-111544562D01*
X127741857Y-111456865D01*
X127741865Y-111456857D01*
X127829562Y-111341213D01*
X127829562Y-111341212D01*
X127882809Y-111206187D01*
X127892999Y-111121337D01*
X127893000Y-111121333D01*
X127893000Y-111100001D01*
X127892999Y-111100000D01*
X127396660Y-111100000D01*
X127386959Y-111099524D01*
X127386722Y-111099500D01*
X127386719Y-111099500D01*
X127386715Y-111099500D01*
X126964000Y-111099500D01*
X126905809Y-111080593D01*
X126869845Y-111031093D01*
X126865000Y-111000500D01*
X126865000Y-110999499D01*
X126883907Y-110941308D01*
X126933407Y-110905344D01*
X126963996Y-110900499D01*
X127386718Y-110900499D01*
X127386721Y-110900498D01*
X127386948Y-110900476D01*
X127396649Y-110900000D01*
X127892998Y-110900000D01*
X127892999Y-110899999D01*
X127892999Y-110878669D01*
X127892998Y-110878659D01*
X127882809Y-110793814D01*
X127829562Y-110658787D01*
X127829562Y-110658786D01*
X127741865Y-110543142D01*
X127741857Y-110543134D01*
X127626209Y-110455435D01*
X127624675Y-110454572D01*
X127623755Y-110453574D01*
X127620815Y-110451344D01*
X127621215Y-110450816D01*
X127583221Y-110409569D01*
X127576102Y-110348966D01*
X127579995Y-110329395D01*
X127585500Y-110301719D01*
X127585499Y-110098282D01*
X127573916Y-110040046D01*
X127570805Y-110024401D01*
X127573231Y-110023918D01*
X127569530Y-109976890D01*
X127572154Y-109968812D01*
X127572706Y-109966036D01*
X127572707Y-109966035D01*
X127585500Y-109901719D01*
X127585499Y-109745999D01*
X128292000Y-109745999D01*
X128292001Y-109746000D01*
X130145999Y-109746000D01*
X130146000Y-109745999D01*
X130654000Y-109745999D01*
X130654001Y-109746000D01*
X132507999Y-109746000D01*
X132508000Y-109745999D01*
X132508000Y-108351412D01*
X132501495Y-108290911D01*
X132501493Y-108290901D01*
X132450447Y-108154039D01*
X132362907Y-108037100D01*
X132362899Y-108037092D01*
X132245960Y-107949552D01*
X132109098Y-107898506D01*
X132109088Y-107898504D01*
X132048587Y-107892000D01*
X130654001Y-107892000D01*
X130654000Y-107892001D01*
X130654000Y-109745999D01*
X130146000Y-109745999D01*
X130146000Y-107892001D01*
X130145999Y-107892000D01*
X128751413Y-107892000D01*
X128690911Y-107898504D01*
X128690901Y-107898506D01*
X128554039Y-107949552D01*
X128437100Y-108037092D01*
X128437092Y-108037100D01*
X128349552Y-108154039D01*
X128298506Y-108290901D01*
X128298504Y-108290911D01*
X128292000Y-108351412D01*
X128292000Y-109745999D01*
X127585499Y-109745999D01*
X127585499Y-109698282D01*
X127583220Y-109686825D01*
X127570805Y-109624401D01*
X127573231Y-109623918D01*
X127569530Y-109576890D01*
X127572154Y-109568812D01*
X127572706Y-109566036D01*
X127572707Y-109566035D01*
X127585500Y-109501719D01*
X127585499Y-109298282D01*
X127583861Y-109290047D01*
X127570805Y-109224401D01*
X127573231Y-109223918D01*
X127569530Y-109176890D01*
X127572154Y-109168812D01*
X127572706Y-109166036D01*
X127572707Y-109166035D01*
X127585500Y-109101719D01*
X127585499Y-108898282D01*
X127582797Y-108884698D01*
X127570805Y-108824401D01*
X127573231Y-108823918D01*
X127569530Y-108776890D01*
X127572154Y-108768812D01*
X127572706Y-108766036D01*
X127572707Y-108766035D01*
X127585500Y-108701719D01*
X127585499Y-108498282D01*
X127582761Y-108484518D01*
X127570805Y-108424401D01*
X127573231Y-108423918D01*
X127569530Y-108376890D01*
X127572154Y-108368812D01*
X127572706Y-108366036D01*
X127572707Y-108366035D01*
X127585500Y-108301719D01*
X127585499Y-108098282D01*
X127581943Y-108080404D01*
X127570805Y-108024401D01*
X127573231Y-108023918D01*
X127569530Y-107976890D01*
X127572154Y-107968812D01*
X127572706Y-107966036D01*
X127572707Y-107966035D01*
X127585500Y-107901719D01*
X127585499Y-107698282D01*
X127584917Y-107695358D01*
X127570805Y-107624401D01*
X127573231Y-107623918D01*
X127569530Y-107576890D01*
X127572154Y-107568812D01*
X127572706Y-107566036D01*
X127572707Y-107566035D01*
X127585500Y-107501719D01*
X127585499Y-107298282D01*
X127585499Y-107298281D01*
X127585097Y-107294199D01*
X127598213Y-107234436D01*
X127643951Y-107193795D01*
X127683621Y-107185500D01*
X127914339Y-107185500D01*
X127914340Y-107185500D01*
X127974572Y-107173519D01*
X127974571Y-107173519D01*
X127980686Y-107172303D01*
X128019314Y-107172303D01*
X128027881Y-107174007D01*
G37*
G04 #@! TD.AperFunction*
G04 #@! TA.AperFunction,Conductor*
G36*
X145314000Y-108738356D02*
G01*
X145309242Y-108753000D01*
X145406275Y-108753000D01*
X145406279Y-108752999D01*
X145544598Y-108738461D01*
X145721131Y-108681101D01*
X145721136Y-108681099D01*
X145881869Y-108588298D01*
X145881875Y-108588294D01*
X145934256Y-108541131D01*
X145990152Y-108516244D01*
X146050000Y-108528965D01*
X146090941Y-108574435D01*
X146099500Y-108614702D01*
X146099500Y-111404520D01*
X146080593Y-111462711D01*
X146070504Y-111474524D01*
X145274524Y-112270504D01*
X145220007Y-112298281D01*
X145204520Y-112299500D01*
X145098039Y-112299500D01*
X145098037Y-112299500D01*
X145098033Y-112299501D01*
X145062443Y-112309951D01*
X145001283Y-112308203D01*
X144952831Y-112270840D01*
X144944504Y-112256096D01*
X144885377Y-112126627D01*
X144885375Y-112126625D01*
X144885375Y-112126624D01*
X144831831Y-112064831D01*
X144808013Y-112008472D01*
X144821872Y-111948877D01*
X144831750Y-111935262D01*
X144832096Y-111934862D01*
X144884450Y-111903203D01*
X144902432Y-111900708D01*
X144904702Y-111900603D01*
X144909213Y-111900500D01*
X144927842Y-111900500D01*
X144927844Y-111900500D01*
X144927948Y-111900480D01*
X144941571Y-111898898D01*
X144969992Y-111897585D01*
X144978976Y-111893617D01*
X145000777Y-111886865D01*
X145010433Y-111885061D01*
X145034618Y-111870086D01*
X145046728Y-111863701D01*
X145072765Y-111852206D01*
X145079709Y-111845260D01*
X145097601Y-111831089D01*
X145105952Y-111825919D01*
X145123089Y-111803223D01*
X145132082Y-111792887D01*
X145566405Y-111358564D01*
X145577664Y-111350493D01*
X145576905Y-111349487D01*
X145584221Y-111343961D01*
X145584228Y-111343958D01*
X145615877Y-111309239D01*
X145618995Y-111305974D01*
X145632174Y-111292797D01*
X145632238Y-111292702D01*
X145640753Y-111281953D01*
X145648575Y-111273373D01*
X145659916Y-111260933D01*
X145663466Y-111251767D01*
X145674107Y-111231581D01*
X145679657Y-111223480D01*
X145686170Y-111195786D01*
X145690218Y-111182712D01*
X145700500Y-111156173D01*
X145700500Y-111146348D01*
X145703129Y-111123683D01*
X145705379Y-111114119D01*
X145701449Y-111085944D01*
X145700500Y-111072268D01*
X145700500Y-110565168D01*
X145702731Y-110551495D01*
X145701505Y-110551324D01*
X145702773Y-110542232D01*
X145700606Y-110495357D01*
X145700500Y-110490785D01*
X145700500Y-110472160D01*
X145700500Y-110472156D01*
X145700478Y-110472042D01*
X145698898Y-110458430D01*
X145697585Y-110430008D01*
X145693614Y-110421016D01*
X145686864Y-110399214D01*
X145685637Y-110392651D01*
X145685061Y-110389567D01*
X145670085Y-110365379D01*
X145663697Y-110353260D01*
X145652206Y-110327234D01*
X145652205Y-110327233D01*
X145652204Y-110327231D01*
X145645254Y-110320281D01*
X145631088Y-110302395D01*
X145625921Y-110294050D01*
X145625918Y-110294047D01*
X145603226Y-110276911D01*
X145592883Y-110267911D01*
X145434873Y-110109901D01*
X145258566Y-109933595D01*
X145250479Y-109922344D01*
X145249487Y-109923094D01*
X145243958Y-109915772D01*
X145209272Y-109884151D01*
X145205968Y-109880996D01*
X145192800Y-109867828D01*
X145192796Y-109867825D01*
X145192693Y-109867755D01*
X145181962Y-109859255D01*
X145160933Y-109840084D01*
X145160931Y-109840083D01*
X145160930Y-109840082D01*
X145153130Y-109837060D01*
X145105702Y-109798406D01*
X145090051Y-109739256D01*
X145105074Y-109692076D01*
X145192588Y-109552798D01*
X145252725Y-109380941D01*
X145252726Y-109380937D01*
X145273112Y-109200000D01*
X145252726Y-109019062D01*
X145252725Y-109019058D01*
X145205710Y-108884698D01*
X145204631Y-108836661D01*
X145203917Y-108836734D01*
X145184645Y-108834563D01*
X144530003Y-109489205D01*
X144475486Y-109516982D01*
X144415054Y-109507411D01*
X144389995Y-109489205D01*
X144170793Y-109270003D01*
X144158384Y-109245649D01*
X144260000Y-109245649D01*
X144299613Y-109327905D01*
X144370992Y-109384827D01*
X144437468Y-109400000D01*
X144482532Y-109400000D01*
X144549008Y-109384827D01*
X144620387Y-109327905D01*
X144660000Y-109245649D01*
X144660000Y-109154351D01*
X144620387Y-109072095D01*
X144549008Y-109015173D01*
X144482532Y-109000000D01*
X144437468Y-109000000D01*
X144370992Y-109015173D01*
X144299613Y-109072095D01*
X144260000Y-109154351D01*
X144260000Y-109245649D01*
X144158384Y-109245649D01*
X144143016Y-109215486D01*
X144152587Y-109155054D01*
X144170793Y-109129995D01*
X144806000Y-108494788D01*
X144806000Y-108120012D01*
X145314000Y-108120012D01*
X145314000Y-108738356D01*
G37*
G04 #@! TD.AperFunction*
G04 #@! TA.AperFunction,Conductor*
G36*
X124133191Y-108564907D02*
G01*
X124169155Y-108614407D01*
X124174000Y-108645000D01*
X124174000Y-109955000D01*
X124155093Y-110013191D01*
X124105593Y-110049155D01*
X124075000Y-110054000D01*
X123765000Y-110054000D01*
X123706809Y-110035093D01*
X123670845Y-109985593D01*
X123666000Y-109955000D01*
X123666000Y-109054001D01*
X123665999Y-109054000D01*
X123599500Y-109054000D01*
X123541309Y-109035093D01*
X123505345Y-108985593D01*
X123500500Y-108955000D01*
X123500500Y-108645000D01*
X123519407Y-108586809D01*
X123568907Y-108550845D01*
X123599500Y-108546000D01*
X124075000Y-108546000D01*
X124133191Y-108564907D01*
G37*
G04 #@! TD.AperFunction*
G04 #@! TA.AperFunction,Conductor*
G36*
X122858691Y-108654907D02*
G01*
X122894655Y-108704407D01*
X122899500Y-108735000D01*
X122899500Y-109045000D01*
X122880593Y-109103191D01*
X122831093Y-109139155D01*
X122800500Y-109144000D01*
X122245000Y-109144000D01*
X122186809Y-109125093D01*
X122150845Y-109075593D01*
X122146000Y-109045000D01*
X122146000Y-108735000D01*
X122164907Y-108676809D01*
X122214407Y-108640845D01*
X122245000Y-108636000D01*
X122800500Y-108636000D01*
X122858691Y-108654907D01*
G37*
G04 #@! TD.AperFunction*
G04 #@! TA.AperFunction,Conductor*
G36*
X145227274Y-107619988D02*
G01*
X144879818Y-107619988D01*
X144905000Y-107616000D01*
X145215000Y-107616000D01*
X145227274Y-107619988D01*
G37*
G04 #@! TD.AperFunction*
G04 #@! TA.AperFunction,Conductor*
G36*
X126895365Y-105498064D02*
G01*
X126938630Y-105541329D01*
X126945489Y-105558653D01*
X126980569Y-105679396D01*
X127063909Y-105820318D01*
X127179681Y-105936090D01*
X127320604Y-106019431D01*
X127428120Y-106050668D01*
X127478726Y-106085060D01*
X127499451Y-106142628D01*
X127499500Y-106145737D01*
X127499500Y-107001377D01*
X127480593Y-107059568D01*
X127431093Y-107095532D01*
X127390811Y-107099902D01*
X127386723Y-107099500D01*
X126579500Y-107099500D01*
X126521309Y-107080593D01*
X126485345Y-107031093D01*
X126480500Y-107000500D01*
X126480500Y-105857195D01*
X126499407Y-105799004D01*
X126509496Y-105787192D01*
X126780416Y-105516271D01*
X126834933Y-105488493D01*
X126895365Y-105498064D01*
G37*
G04 #@! TD.AperFunction*
G04 #@! TA.AperFunction,Conductor*
G36*
X135437425Y-104819407D02*
G01*
X135473389Y-104868907D01*
X135473389Y-104930093D01*
X135468958Y-104941339D01*
X135446028Y-104990510D01*
X135446028Y-104990511D01*
X135439500Y-105040100D01*
X135439500Y-105459895D01*
X135439501Y-105459900D01*
X135441274Y-105473373D01*
X135441927Y-105478328D01*
X135430774Y-105538488D01*
X135413777Y-105561249D01*
X135327235Y-105647792D01*
X135327235Y-105647793D01*
X135304524Y-105670504D01*
X135250007Y-105698281D01*
X135234520Y-105699500D01*
X134966484Y-105699500D01*
X134908293Y-105680593D01*
X134872329Y-105631093D01*
X134871415Y-105572881D01*
X134885074Y-105525863D01*
X134885076Y-105525854D01*
X134886795Y-105504000D01*
X133930000Y-105504000D01*
X133871809Y-105485093D01*
X133835845Y-105435593D01*
X133831000Y-105405000D01*
X133831000Y-105095000D01*
X133849907Y-105036809D01*
X133899407Y-105000845D01*
X133930000Y-104996000D01*
X134886795Y-104996000D01*
X134886795Y-104995999D01*
X134885076Y-104974145D01*
X134885074Y-104974136D01*
X134871415Y-104927119D01*
X134873337Y-104865964D01*
X134910839Y-104817618D01*
X134966484Y-104800500D01*
X135379234Y-104800500D01*
X135437425Y-104819407D01*
G37*
G04 #@! TD.AperFunction*
M02*
