G04 #@! TF.GenerationSoftware,KiCad,Pcbnew,7.0.10*
G04 #@! TF.CreationDate,2024-01-15T15:50:16+01:00*
G04 #@! TF.ProjectId,mico,6d69636f-2e6b-4696-9361-645f70636258,rev?*
G04 #@! TF.SameCoordinates,Original*
G04 #@! TF.FileFunction,Paste,Bot*
G04 #@! TF.FilePolarity,Positive*
%FSLAX46Y46*%
G04 Gerber Fmt 4.6, Leading zero omitted, Abs format (unit mm)*
G04 Created by KiCad (PCBNEW 7.0.10) date 2024-01-15 15:50:16*
%MOMM*%
%LPD*%
G01*
G04 APERTURE LIST*
G04 Aperture macros list*
%AMRoundRect*
0 Rectangle with rounded corners*
0 $1 Rounding radius*
0 $2 $3 $4 $5 $6 $7 $8 $9 X,Y pos of 4 corners*
0 Add a 4 corners polygon primitive as box body*
4,1,4,$2,$3,$4,$5,$6,$7,$8,$9,$2,$3,0*
0 Add four circle primitives for the rounded corners*
1,1,$1+$1,$2,$3*
1,1,$1+$1,$4,$5*
1,1,$1+$1,$6,$7*
1,1,$1+$1,$8,$9*
0 Add four rect primitives between the rounded corners*
20,1,$1+$1,$2,$3,$4,$5,0*
20,1,$1+$1,$4,$5,$6,$7,0*
20,1,$1+$1,$6,$7,$8,$9,0*
20,1,$1+$1,$8,$9,$2,$3,0*%
G04 Aperture macros list end*
%ADD10C,0.300000*%
%ADD11C,0.010000*%
%ADD12C,0.001000*%
%ADD13R,1.200000X0.300000*%
%ADD14RoundRect,0.135000X0.135000X0.185000X-0.135000X0.185000X-0.135000X-0.185000X0.135000X-0.185000X0*%
%ADD15RoundRect,0.135000X-0.135000X-0.185000X0.135000X-0.185000X0.135000X0.185000X-0.135000X0.185000X0*%
%ADD16RoundRect,0.006000X0.094000X-0.414000X0.094000X0.414000X-0.094000X0.414000X-0.094000X-0.414000X0*%
%ADD17RoundRect,0.020000X0.400000X-0.080000X0.400000X0.080000X-0.400000X0.080000X-0.400000X-0.080000X0*%
%ADD18R,0.522000X0.725000*%
%ADD19R,1.600000X0.200000*%
%ADD20R,0.300000X0.500000*%
%ADD21R,0.800000X0.900000*%
%ADD22RoundRect,0.140000X-0.140000X-0.170000X0.140000X-0.170000X0.140000X0.170000X-0.140000X0.170000X0*%
%ADD23RoundRect,0.140000X-0.170000X0.140000X-0.170000X-0.140000X0.170000X-0.140000X0.170000X0.140000X0*%
%ADD24RoundRect,0.135000X0.185000X-0.135000X0.185000X0.135000X-0.185000X0.135000X-0.185000X-0.135000X0*%
%ADD25RoundRect,0.140000X0.140000X0.170000X-0.140000X0.170000X-0.140000X-0.170000X0.140000X-0.170000X0*%
%ADD26RoundRect,0.140000X0.170000X-0.140000X0.170000X0.140000X-0.170000X0.140000X-0.170000X-0.140000X0*%
%ADD27R,1.600000X1.300000*%
%ADD28RoundRect,0.147500X0.147500X0.172500X-0.147500X0.172500X-0.147500X-0.172500X0.147500X-0.172500X0*%
%ADD29RoundRect,0.135000X-0.185000X0.135000X-0.185000X-0.135000X0.185000X-0.135000X0.185000X0.135000X0*%
G04 APERTURE END LIST*
D10*
X144610000Y-114800000D02*
G75*
G03*
X144310000Y-114800000I-150000J0D01*
G01*
X144310000Y-114800000D02*
G75*
G03*
X144610000Y-114800000I150000J0D01*
G01*
X145320000Y-112800000D02*
G75*
G03*
X145020000Y-112800000I-150000J0D01*
G01*
X145020000Y-112800000D02*
G75*
G03*
X145320000Y-112800000I150000J0D01*
G01*
X144610000Y-113200000D02*
G75*
G03*
X144310000Y-113200000I-150000J0D01*
G01*
X144310000Y-113200000D02*
G75*
G03*
X144610000Y-113200000I150000J0D01*
G01*
X144610000Y-112400000D02*
G75*
G03*
X144310000Y-112400000I-150000J0D01*
G01*
X144310000Y-112400000D02*
G75*
G03*
X144610000Y-112400000I150000J0D01*
G01*
X144610000Y-111600000D02*
G75*
G03*
X144310000Y-111600000I-150000J0D01*
G01*
X144310000Y-111600000D02*
G75*
G03*
X144610000Y-111600000I150000J0D01*
G01*
X144610000Y-110800000D02*
G75*
G03*
X144310000Y-110800000I-150000J0D01*
G01*
X144310000Y-110800000D02*
G75*
G03*
X144610000Y-110800000I150000J0D01*
G01*
X144610000Y-109200000D02*
G75*
G03*
X144310000Y-109200000I-150000J0D01*
G01*
X144310000Y-109200000D02*
G75*
G03*
X144610000Y-109200000I150000J0D01*
G01*
D11*
X131380000Y-110980000D02*
X129420000Y-110980000D01*
X129420000Y-109020000D01*
X131380000Y-109020000D01*
X131380000Y-110980000D01*
G36*
X131380000Y-110980000D02*
G01*
X129420000Y-110980000D01*
X129420000Y-109020000D01*
X131380000Y-109020000D01*
X131380000Y-110980000D01*
G37*
D12*
X121660191Y-111203797D02*
X121810000Y-111250000D01*
X121915000Y-111300000D01*
X121989766Y-111354691D01*
X121875000Y-111470000D01*
X121780000Y-111565000D01*
X121730000Y-111540000D01*
X121675000Y-111515000D01*
X121620000Y-111500000D01*
X121560000Y-111490000D01*
X121500000Y-111486397D01*
X121380000Y-111500000D01*
X121275391Y-111538463D01*
X121217334Y-111573828D01*
X121115000Y-111475000D01*
X121000000Y-111360000D01*
X121090000Y-111300000D01*
X121190000Y-111250000D01*
X121270000Y-111220000D01*
X121360000Y-111200000D01*
X121500000Y-111190000D01*
X121660191Y-111203797D01*
G36*
X121660191Y-111203797D02*
G01*
X121810000Y-111250000D01*
X121915000Y-111300000D01*
X121989766Y-111354691D01*
X121875000Y-111470000D01*
X121780000Y-111565000D01*
X121730000Y-111540000D01*
X121675000Y-111515000D01*
X121620000Y-111500000D01*
X121560000Y-111490000D01*
X121500000Y-111486397D01*
X121380000Y-111500000D01*
X121275391Y-111538463D01*
X121217334Y-111573828D01*
X121115000Y-111475000D01*
X121000000Y-111360000D01*
X121090000Y-111300000D01*
X121190000Y-111250000D01*
X121270000Y-111220000D01*
X121360000Y-111200000D01*
X121500000Y-111190000D01*
X121660191Y-111203797D01*
G37*
X120970000Y-111615000D02*
X121075000Y-111720000D01*
X121040000Y-111770000D01*
X121000000Y-111880000D01*
X120986397Y-112000000D01*
X121000000Y-112120000D01*
X121038463Y-112224609D01*
X121078828Y-112282666D01*
X120980000Y-112380000D01*
X120860000Y-112500000D01*
X120795000Y-112405000D01*
X120750000Y-112310000D01*
X120720000Y-112230000D01*
X120700000Y-112140000D01*
X120690000Y-112060000D01*
X120690000Y-112000000D01*
X120690000Y-111935000D01*
X120703797Y-111839809D01*
X120720000Y-111765000D01*
X120750000Y-111690000D01*
X120795000Y-111595000D01*
X120859691Y-111500234D01*
X120970000Y-111615000D01*
G36*
X120970000Y-111615000D02*
G01*
X121075000Y-111720000D01*
X121040000Y-111770000D01*
X121000000Y-111880000D01*
X120986397Y-112000000D01*
X121000000Y-112120000D01*
X121038463Y-112224609D01*
X121078828Y-112282666D01*
X120980000Y-112380000D01*
X120860000Y-112500000D01*
X120795000Y-112405000D01*
X120750000Y-112310000D01*
X120720000Y-112230000D01*
X120700000Y-112140000D01*
X120690000Y-112060000D01*
X120690000Y-112000000D01*
X120690000Y-111935000D01*
X120703797Y-111839809D01*
X120720000Y-111765000D01*
X120750000Y-111690000D01*
X120795000Y-111595000D01*
X120859691Y-111500234D01*
X120970000Y-111615000D01*
G37*
X121270000Y-112460000D02*
X121380000Y-112500000D01*
X121500000Y-112513603D01*
X121620000Y-112500000D01*
X121724609Y-112461537D01*
X121787666Y-112426172D01*
X121885000Y-112525000D01*
X122000000Y-112640000D01*
X121905000Y-112705000D01*
X121810000Y-112750000D01*
X121720000Y-112780000D01*
X121640000Y-112800000D01*
X121500000Y-112810000D01*
X121339809Y-112796203D01*
X121190000Y-112750000D01*
X121075000Y-112690000D01*
X121005234Y-112645309D01*
X121120000Y-112530000D01*
X121220000Y-112425000D01*
X121270000Y-112460000D01*
G36*
X121270000Y-112460000D02*
G01*
X121380000Y-112500000D01*
X121500000Y-112513603D01*
X121620000Y-112500000D01*
X121724609Y-112461537D01*
X121787666Y-112426172D01*
X121885000Y-112525000D01*
X122000000Y-112640000D01*
X121905000Y-112705000D01*
X121810000Y-112750000D01*
X121720000Y-112780000D01*
X121640000Y-112800000D01*
X121500000Y-112810000D01*
X121339809Y-112796203D01*
X121190000Y-112750000D01*
X121075000Y-112690000D01*
X121005234Y-112645309D01*
X121120000Y-112530000D01*
X121220000Y-112425000D01*
X121270000Y-112460000D01*
G37*
X122200000Y-111590000D02*
X122250000Y-111690000D01*
X122280000Y-111780000D01*
X122300000Y-111860000D01*
X122310000Y-112000000D01*
X122296203Y-112160191D01*
X122250000Y-112310000D01*
X122205000Y-112400000D01*
X122140309Y-112499766D01*
X122030000Y-112385000D01*
X121930000Y-112285000D01*
X121965000Y-112230000D01*
X122005000Y-112120000D01*
X122010000Y-112120000D01*
X122005000Y-112110000D01*
X122020000Y-112005000D01*
X122023603Y-111995000D01*
X122020000Y-111995000D01*
X122005000Y-111875000D01*
X121961537Y-111775391D01*
X121926172Y-111707334D01*
X122025000Y-111610000D01*
X122135000Y-111495000D01*
X122200000Y-111590000D01*
G36*
X122200000Y-111590000D02*
G01*
X122250000Y-111690000D01*
X122280000Y-111780000D01*
X122300000Y-111860000D01*
X122310000Y-112000000D01*
X122296203Y-112160191D01*
X122250000Y-112310000D01*
X122205000Y-112400000D01*
X122140309Y-112499766D01*
X122030000Y-112385000D01*
X121930000Y-112285000D01*
X121965000Y-112230000D01*
X122005000Y-112120000D01*
X122010000Y-112120000D01*
X122005000Y-112110000D01*
X122020000Y-112005000D01*
X122023603Y-111995000D01*
X122020000Y-111995000D01*
X122005000Y-111875000D01*
X121961537Y-111775391D01*
X121926172Y-111707334D01*
X122025000Y-111610000D01*
X122135000Y-111495000D01*
X122200000Y-111590000D01*
G37*
D13*
X143150000Y-109250000D03*
X143150000Y-110750000D03*
X143150000Y-111250000D03*
X143150000Y-111750000D03*
X143150000Y-112250000D03*
X143150000Y-113250000D03*
X143150000Y-114750000D03*
D14*
X144610000Y-117900000D03*
X143590000Y-117900000D03*
D15*
X144610000Y-106100000D03*
X143590000Y-106100000D03*
D16*
X133000000Y-106565000D03*
X132600000Y-106565000D03*
X132200000Y-106565000D03*
X131800000Y-106565000D03*
X131400000Y-106565000D03*
X131000000Y-106565000D03*
X130600000Y-106565000D03*
X130200000Y-106565000D03*
X129800000Y-106565000D03*
X129400000Y-106565000D03*
X129000000Y-106565000D03*
X128600000Y-106565000D03*
X128200000Y-106565000D03*
X127800000Y-106565000D03*
X127800000Y-113435000D03*
X128200000Y-113435000D03*
X128600000Y-113435000D03*
X129000000Y-113435000D03*
X129400000Y-113435000D03*
X129800000Y-113435000D03*
X130200000Y-113435000D03*
X130600000Y-113435000D03*
X131000000Y-113435000D03*
X131400000Y-113435000D03*
X131800000Y-113435000D03*
X132200000Y-113435000D03*
X132600000Y-113435000D03*
X133000000Y-113435000D03*
D17*
X133835000Y-112600000D03*
X133835000Y-112200000D03*
X133835000Y-111800000D03*
X133835000Y-111400000D03*
X133835000Y-111000000D03*
X133835000Y-110600000D03*
X133835000Y-110200000D03*
X133835000Y-109800000D03*
X133835000Y-109400000D03*
X133835000Y-109000000D03*
X133835000Y-108600000D03*
X133835000Y-108200000D03*
X133835000Y-107800000D03*
X133835000Y-107400000D03*
X126965000Y-107400000D03*
X126965000Y-107800000D03*
X126965000Y-108200000D03*
X126965000Y-108600000D03*
X126965000Y-109000000D03*
X126965000Y-109400000D03*
X126965000Y-109800000D03*
X126965000Y-110200000D03*
X126965000Y-110600000D03*
X126965000Y-111000000D03*
X126965000Y-111400000D03*
X126965000Y-111800000D03*
X126965000Y-112200000D03*
X126965000Y-112600000D03*
D18*
X122752000Y-111162500D03*
X123574000Y-111162500D03*
X122752000Y-112837500D03*
X123574000Y-112837500D03*
D19*
X135400000Y-116200000D03*
D20*
X136150000Y-114980000D03*
X135650000Y-114980000D03*
X135150000Y-114980000D03*
X134650000Y-114980000D03*
X134650000Y-117420000D03*
X135150000Y-117420000D03*
X135650000Y-117420000D03*
X136150000Y-117420000D03*
D21*
X138800000Y-113400000D03*
X137850000Y-115400000D03*
X139750000Y-115400000D03*
D22*
X139080000Y-118000000D03*
X138120000Y-118000000D03*
D23*
X129400000Y-117520000D03*
X129400000Y-118480000D03*
D14*
X131510000Y-105250000D03*
X130490000Y-105250000D03*
D24*
X122400000Y-108890000D03*
X122400000Y-109910000D03*
D25*
X124880000Y-109800000D03*
X123920000Y-109800000D03*
D23*
X129400000Y-116280000D03*
X129400000Y-115320000D03*
D14*
X137310000Y-119200000D03*
X136290000Y-119200000D03*
D22*
X138120000Y-106500000D03*
X139080000Y-106500000D03*
D23*
X132800000Y-115320000D03*
X132800000Y-116280000D03*
D25*
X124880000Y-108800000D03*
X123920000Y-108800000D03*
D15*
X138090000Y-108900000D03*
X139110000Y-108900000D03*
D14*
X125310000Y-114200000D03*
X124290000Y-114200000D03*
D25*
X127720000Y-105250000D03*
X128680000Y-105250000D03*
X139080000Y-112000000D03*
X138120000Y-112000000D03*
D26*
X124800000Y-107680000D03*
X124800000Y-106720000D03*
D22*
X135920000Y-105250000D03*
X136880000Y-105250000D03*
X138120000Y-105250000D03*
X139080000Y-105250000D03*
D27*
X124350000Y-118000000D03*
X127650000Y-118000000D03*
X127650000Y-116000000D03*
X124350000Y-116000000D03*
D23*
X122400000Y-107680000D03*
X122400000Y-106720000D03*
X123600000Y-107680000D03*
X123600000Y-106720000D03*
D22*
X137280000Y-111000000D03*
X136320000Y-111000000D03*
D23*
X131000000Y-116280000D03*
X131000000Y-115320000D03*
D22*
X137280000Y-109900000D03*
X136320000Y-109900000D03*
D14*
X133890000Y-119200000D03*
X134910000Y-119200000D03*
D28*
X133115000Y-105250000D03*
X134085000Y-105250000D03*
D15*
X139110000Y-107700000D03*
X138090000Y-107700000D03*
D29*
X121200000Y-108890000D03*
X121200000Y-109910000D03*
D22*
X139080000Y-116800000D03*
X138120000Y-116800000D03*
D26*
X122400000Y-115720000D03*
X122400000Y-116680000D03*
M02*
