M48
; DRILL file {KiCad 7.0.10} date Mon 15 Jan 2024 03:50:11 PM CET
; FORMAT={-:-/ absolute / inch / decimal}
; #@! TF.CreationDate,2024-01-15T15:50:11+01:00
; #@! TF.GenerationSoftware,Kicad,Pcbnew,7.0.10
; #@! TF.FileFunction,Plated,1,2,PTH
FMAT,2
INCH
; #@! TA.AperFunction,Plated,PTH,ViaDrill
T1C0.0118
; #@! TA.AperFunction,Plated,PTH,ComponentDrill
T2C0.0157
; #@! TA.AperFunction,Plated,PTH,ComponentDrill
T3C0.0197
; #@! TA.AperFunction,Plated,PTH,ComponentDrill
T4C0.0256
; #@! TA.AperFunction,Plated,PTH,ComponentDrill
T5C0.1260
%
G90
G05
T1
X4.75Y-4.3504
X4.7835Y-4.5591
X4.7894Y-4.3602
X4.7992Y-4.5118
X4.8091Y-4.2717
X4.8583Y-4.1732
X4.8787Y-4.3102
X4.8972Y-4.1417
X4.8976Y-4.252
X4.8976Y-4.4488
X4.9055Y-4.4094
X4.9075Y-4.3701
X4.9441Y-4.3079
X4.9469Y-4.685
X4.9472Y-4.1417
X4.9902Y-4.4783
X5.0Y-4.1988
X5.0846Y-4.1142
X5.0945Y-4.2913
X5.0945Y-4.3701
X5.124Y-4.626
X5.1339Y-4.3307
X5.1575Y-4.5039
X5.1732Y-4.2913
X5.1732Y-4.3701
X5.1932Y-4.5504
X5.2047Y-4.5118
X5.2165Y-4.4094
X5.2362Y-4.6929
X5.2854Y-4.6299
X5.311Y-4.1437
X5.3346Y-4.2224
X5.3395Y-4.3554
X5.3504Y-4.3209
X5.3701Y-4.1732
X5.3937Y-4.1181
X5.3937Y-4.5079
X5.4094Y-4.5906
X5.4341Y-4.3356
X5.4724Y-4.3701
X5.5039Y-4.2126
X5.563Y-4.378
X5.5669Y-4.5197
T2
X5.6874Y-4.2992
X5.6874Y-4.3622
X5.6874Y-4.3937
X5.6874Y-4.4252
X5.6874Y-4.4567
X5.6874Y-4.5197
X5.7154Y-4.4409
T4
X5.6618Y-4.2677
T5
X5.3543Y-3.9469
X5.3543Y-4.872
T3
G00X5.7228Y-4.2469
M15
G01X5.6992Y-4.2469
M16
G05
G00X5.7228Y-4.572
M15
G01X5.6992Y-4.572
M16
G05
G00X5.8957Y-4.2327
M15
G01X5.872Y-4.2327
M16
G05
G00X5.8957Y-4.5862
M15
G01X5.872Y-4.5862
M16
G05
M30
